<?xml version="1.0" encoding="UTF-8"?>
<svg width="155px" height="50px" viewBox="0 0 155 50" version="1.1" xmlns="http://www.w3.org/2000/svg" xmlns:xlink="http://www.w3.org/1999/xlink">
    <!-- Generator: Sketch 55 (78076) - https://sketchapp.com -->
    <title>logo-savvyunni-H-white</title>
    <desc>Created with Sketch.</desc>
    <defs>
        <path d="M66.940242,0.0064547064 C66.6933579,0.0064547064 66.495869,0.052421437 66.3495131,0.137807982 L66.3495131,0.137807982 C66.1995898,0.233014901 66.0515418,0.407061449 65.9034479,0.656581956 L65.9034479,0.656581956 L64.8666996,2.37888204 C64.7855179,2.51346267 64.7379979,2.60378246 64.7308631,2.65302265 L64.7308631,2.65302265 C64.7133461,2.74006897 64.7449956,2.83527589 64.8296533,2.93702973 L64.8296533,2.93702973 C64.8966111,3.03062297 65.0253128,3.0765897 65.2158041,3.0765897 L65.2158041,3.0765897 L73.6278356,3.0765897 C74.1445176,3.0765897 74.4477486,2.83527589 74.539404,2.34928261 L74.539404,2.34928261 L74.6275834,1.88302228 C74.7192387,1.39546142 74.509401,1.15239562 73.9928563,1.15239562 L73.9928563,1.15239562 L70.6199026,1.15239562 C70.1473562,1.15239562 69.9427324,0.986601874 70.00626,0.656581956 L70.00626,0.656581956 C70.0186545,0.58926859 70.0415683,0.521955223 70.0768767,0.453028179 L70.0768767,0.453028179 C70.1086176,0.392261729 70.127964,0.352841915 70.1332694,0.333201166 L70.1332694,0.333201166 C70.1437887,0.270774934 70.1173075,0.195254869 70.0556551,0.108254647 L70.0556551,0.108254647 C70.0098274,0.0408951756 69.9181263,0.0064547064 69.7805975,0.0064547064 L69.7805975,0.0064547064 L66.940242,0.0064547064 Z M57.2216185,0.0064547064 C56.9765639,0.0064547064 56.8142918,0.129555179 56.7385527,0.37262098 L56.7385527,0.37262098 C56.6432842,0.691068531 56.3770994,0.848701682 55.9398156,0.848701682 L55.9398156,0.848701682 L54.6580127,0.848701682 C54.1502036,0.848701682 53.8522322,1.06212194 53.7746179,1.48734878 L53.7746179,1.48734878 L53.7534878,1.58753504 C53.6776571,2.00944231 53.8892328,2.21797544 54.3970419,2.21797544 L54.3970419,2.21797544 L55.3226512,2.21797544 C55.707064,2.21797544 55.9697271,2.29178961 56.1072558,2.43955629 L56.1072558,2.43955629 C56.2395249,2.58243582 56.2748333,2.82213595 56.2113057,3.16031647 L56.2113057,3.16031647 L56.0949985,3.76779655 C56.0314709,4.10602316 55.9062452,4.3457233 55.7211508,4.48689695 L55.7211508,4.48689695 C55.5253998,4.6363234 55.236347,4.71018368 54.8519342,4.71018368 L54.8519342,4.71018368 L53.7287445,4.71018368 C53.2156757,4.71018368 52.9159206,4.92199026 52.8366598,5.34883078 L52.8366598,5.34883078 L52.8190056,5.43919667 C52.7396533,5.86603718 52.9547964,6.07613787 53.4713411,6.07613787 L53.4713411,6.07613787 L54.8325878,6.07613787 L53.1363691,6.75747824 C52.6638227,6.94632451 52.3922868,7.23692461 52.3165019,7.62766487 L52.3165019,7.62766487 L52.2706742,7.87229824 C52.2477604,7.99871828 52.2741045,8.10379168 52.353594,8.18585866 L52.353594,8.18585866 C52.4311168,8.27451866 52.4999041,8.31725804 52.5562968,8.31725804 L52.5562968,8.31725804 C52.5862083,8.31725804 52.6779094,8.28443125 52.8366598,8.21711788 L52.8366598,8.21711788 L53.6970493,7.87229824 C53.6635704,7.9724384 53.6370434,8.05455149 53.617697,8.11365816 L53.617697,8.11365816 C53.6106078,8.15630533 53.6036102,8.18917822 53.6000428,8.21711788 L53.6000428,8.21711788 L53.5630422,8.4091454 C53.4801682,8.84755828 53.6917439,9.06747934 54.1995987,9.06747934 L54.1995987,9.06747934 L56.9307362,9.06747934 C57.3150118,9.06747934 57.4843272,9.20215218 57.4314562,9.47306543 L57.4314562,9.47306543 C57.4067129,9.60109914 57.332666,9.70617254 57.2092697,9.78662585 L57.2092697,9.78662585 L57.0082591,9.92945928 C56.6327648,10.1839591 56.3947079,10.5172525 56.2959177,10.9211327 L56.2959177,10.9211327 L56.2782635,11.0245463 L52.5033343,11.0245463 C51.9849602,11.0245463 51.687126,11.2445596 51.6041148,11.6828803 L51.6041148,11.6828803 L51.5671142,11.875 C51.4841945,12.3133668 51.6993833,12.5317203 52.2160195,12.5317203 L52.2160195,12.5317203 L55.9926866,12.5317203 L55.4777884,15.248875 C55.4126143,15.5871017 55.2892181,15.8268018 55.1022942,15.9680215 L55.1022942,15.9680215 C54.906589,16.1108089 54.6191369,16.1813957 54.2347698,16.1813957 L54.2347698,16.1813957 L52.7661346,16.1813957 C52.2494984,16.1813957 51.949789,16.4014551 51.868653,16.8414355 L51.868653,16.8414355 L51.8316067,17.0335091 C51.7470404,17.4718759 51.9638758,17.6902294 52.4786825,17.6902294 L52.4786825,17.6902294 L58.7696518,17.6902294 C59.2845043,17.6902294 59.5913027,17.4341159 59.6900015,16.920229 L59.6900015,16.920229 L60.5186958,12.5317203 L61.9115462,12.5317203 C62.4264444,12.5317203 62.7261995,12.3133668 62.8108572,11.875 L62.8108572,11.875 L62.8478578,11.6828803 C62.9289938,11.2445596 62.7121127,11.0245463 62.199044,11.0245463 L62.199044,11.0245463 L60.8043184,11.0245463 L60.8572809,10.7487459 C60.8978489,10.5336198 60.9454146,10.3776925 60.9982399,10.2840532 L60.9982399,10.2840532 C61.0582001,10.2020323 61.1781661,10.0870924 61.3597389,9.93766598 L61.3597389,9.93766598 L62.1197374,9.32036552 C62.5287563,8.98873193 62.7702434,8.63081846 62.8425524,8.24662511 L62.8425524,8.24662511 L62.8566391,8.17603829 C62.8866878,8.0217247 62.8496415,7.87723148 62.740332,7.74919777 L62.740332,7.74919777 C62.6362821,7.62107185 62.4547094,7.55703194 62.2007819,7.55703194 L62.2007819,7.55703194 L54.4869135,7.55703194 L58.1719711,6.07613787 L62.916645,6.07613787 C63.4332812,6.07613787 63.7294231,5.86603718 63.8105592,5.43919667 L63.8105592,5.43919667 L63.8282133,5.34883078 C63.9092579,4.92199026 63.6924225,4.71018368 63.1758321,4.71018368 L63.1758321,4.71018368 L61.5765742,4.71018368 L63.1793081,4.06005643 C63.6588979,3.87286995 63.932126,3.58065617 64.0080024,3.18825612 L64.0080024,3.18825612 L64.0556138,2.93702973 C64.0820493,2.80738234 64.0538758,2.70553629 63.9745692,2.62180953 L63.9745692,2.62180953 C63.8986928,2.53319563 63.8282133,2.49050236 63.7699911,2.49050236 L63.7699911,2.49050236 C63.7329448,2.49050236 63.6395515,2.52171548 63.4808469,2.58243582 L63.4808469,2.58243582 L60.465779,3.79896356 L60.5857451,3.16031647 C60.6491354,2.82213595 60.7778829,2.58243582 60.9735881,2.43955629 L60.9735881,2.43955629 C61.1675553,2.29178961 61.4566539,2.21797544 61.8410667,2.21797544 L61.8410667,2.21797544 L63.4208867,2.21797544 C63.9340012,2.21797544 64.2319726,2.00944231 64.3112791,1.58753504 L64.3112791,1.58753504 L64.3306256,1.48734878 C64.4099779,1.06212194 64.1931425,0.848701682 63.6782901,0.848701682 L63.6782901,0.848701682 L61.7405842,0.848701682 C61.2980865,0.848701682 61.089941,0.691068531 61.1129006,0.37262098 L61.1129006,0.37262098 C61.1357687,0.129555179 61.0265506,0.0064547064 60.7814045,0.0064547064 L60.7814045,0.0064547064 L57.2216185,0.0064547064 Z M36.7865447,0.0064547064 C36.271738,0.0064547064 35.9667232,0.264228017 35.867933,0.776455075 L35.867933,0.776455075 L35.7410608,1.43483513 C35.6775789,1.78126844 35.5523989,2.02092247 35.3654751,2.15559531 L35.3654751,2.15559531 C35.1715536,2.30497566 34.8824093,2.37888204 34.4963042,2.37888204 L34.4963042,2.37888204 L30.0125096,2.37888204 C29.4976571,2.37888204 29.1943803,2.62512909 29.0992033,3.11928297 L29.0992033,3.11928297 L29.0021968,3.63644327 C28.9088035,4.12898348 29.1203792,4.37527663 29.6369239,4.37527663 L29.6369239,4.37527663 L32.8246916,4.37527663 C32.9781366,4.37527663 33.0804028,4.29154987 33.1333196,4.12248266 L33.1333196,4.12248266 C33.2090587,3.87286995 33.4224639,3.74810969 33.7697846,3.74810969 L33.7697846,3.74810969 L44.6326365,3.74810969 C44.9729138,3.74810969 45.1351859,3.87286995 45.1157023,4.12248266 L45.1157023,4.12248266 C45.1051829,4.29154987 45.1774461,4.37527663 45.3291074,4.37527663 L45.3291074,4.37527663 L48.5185674,4.37527663 C49.0316819,4.37527663 49.3367424,4.12898348 49.4301815,3.63644327 L49.4301815,3.63644327 L49.5289717,3.11928297 C49.6205813,2.62512909 49.4108351,2.37888204 48.8941989,2.37888204 L48.8941989,2.37888204 L41.0480614,2.37888204 C40.7078297,2.37888204 40.5579979,2.26394217 40.6019962,2.03406241 L40.6019962,2.03406241 C40.6478696,1.79763573 40.8400531,1.6794224 41.1803305,1.6794224 L41.1803305,1.6794224 L49.0599012,1.6794224 C49.3208719,1.6794224 49.5271422,1.61542859 49.6752361,1.48734878 L49.6752361,1.48734878 C49.828681,1.35272204 49.9220744,1.21154839 49.9485556,1.07198842 L49.9485556,1.07198842 C49.9767749,0.922561965 49.9380363,0.783048097 49.8339407,0.645147905 L49.8339407,0.645147905 C49.7351962,0.517068088 49.5536235,0.453028179 49.2926527,0.453028179 L49.2926527,0.453028179 L41.3479079,0.453028179 C41.0780643,0.453028179 40.9511006,0.357775155 40.9687548,0.168974993 L40.9687548,0.168974993 C40.9722765,0.0606281351 40.9353216,0.0064547064 40.8576616,0.0064547064 L40.8576616,0.0064547064 L36.7865447,0.0064547064 Z M86.7528917,0.0179348628 C86.5077456,0.0179348628 86.3455651,0.144354898 86.2696887,0.392261729 L86.2696887,0.392261729 C86.1639009,0.717348407 85.8941945,0.879868693 85.4603865,0.879868693 L85.4603865,0.879868693 L78.971974,0.879868693 C78.4588595,0.879868693 78.1556285,1.10970235 78.0691871,1.56780208 L78.0691871,1.56780208 L78.018054,1.84198879 C77.9316583,2.3017022 78.1450634,2.52992217 78.6599159,2.52992217 L78.6599159,2.52992217 L79.0954161,2.52992217 C79.6331824,2.52992217 79.8587991,2.74993545 79.7760165,3.18825612 L79.7760165,3.18825612 C79.7406624,3.36557613 79.6472234,3.52809641 79.4885645,3.67586309 L79.4885645,3.67586309 L78.998501,4.13230304 C78.5312142,4.5723296 78.2578489,4.99589665 78.1785423,5.40798355 L78.1785423,5.40798355 L78.1538905,5.55247676 C78.0727545,5.97604382 78.2896356,6.18941797 78.8044423,6.18941797 L78.8044423,6.18941797 L97.1977147,6.18941797 C97.3705518,6.18941797 97.5098185,6.14183756 97.6156064,6.04663064 L97.6156064,6.04663064 C97.7285291,5.9530374 97.7920109,5.86110394 97.8077899,5.77405761 L97.8077899,5.77405761 C97.8166627,5.72647721 97.8042682,5.63449764 97.7637917,5.49991701 L97.7637917,5.49991701 L97.2912452,3.84829596 C97.2225037,3.59872934 97.1325406,3.42961604 97.0179256,3.34090993 L97.0179256,3.34090993 C96.9033564,3.25395581 96.7164326,3.20960276 96.4555533,3.20960276 L96.4555533,3.20960276 L93.8001549,3.20960276 C93.6396666,3.20960276 93.5163618,3.25395581 93.4263986,3.34090993 L93.4263986,3.34090993 C93.3206108,3.43616295 93.2623886,3.51827604 93.2518235,3.58392963 L93.2518235,3.58392963 C93.2465639,3.61182318 93.2501313,3.66604271 93.2623886,3.74810969 L93.2623886,3.74810969 C93.2764754,3.82690322 93.2747374,3.91394954 93.2571289,4.00094976 L93.2571289,4.00094976 C93.1900797,4.35886323 92.8991974,4.53779692 92.3843449,4.53779692 L92.3843449,4.53779692 L85.7796253,4.53779692 C85.1676748,4.53779692 84.9050118,4.31782974 84.9878858,3.87941686 L84.9878858,3.87941686 C85.0196267,3.72510328 85.0919357,3.58392963 85.2082886,3.46239672 L85.2082886,3.46239672 L85.7195736,2.94528253 C85.8994541,2.77123598 86.0528533,2.65956956 86.1868147,2.61360283 L86.1868147,2.61360283 C86.3279109,2.55781573 86.5359192,2.52992217 86.8109767,2.52992217 L86.8109767,2.52992217 L98.2169003,2.52992217 C98.731707,2.52992217 99.0315078,2.3017022 99.1213795,1.84198879 L99.1213795,1.84198879 L99.1725125,1.56780208 C99.2589082,1.10970235 99.0455946,0.879868693 98.5307878,0.879868693 L98.5307878,0.879868693 L92.0211537,0.879868693 C91.5786559,0.879868693 91.3687725,0.717348407 91.3952538,0.392261729 L91.3952538,0.392261729 C91.4128165,0.144354898 91.2982015,0.0179348628 91.051409,0.0179348628 L91.051409,0.0179348628 L86.7528917,0.0179348628 Z M6.31388315,0.421815063 C5.79907642,0.421815063 5.49223222,0.681248156 5.39344202,1.19347521 L5.39344202,1.19347521 L3.9212393,8.9674314 C3.82601652,9.47961235 4.03407052,9.73738566 4.54887725,9.73738566 L4.54887725,9.73738566 L22.5279168,9.73738566 C23.0427235,9.73738566 23.349522,9.47961235 23.4464827,8.9674314 L23.4464827,8.9674314 L24.9187312,1.19347521 C25.0174757,0.681248156 24.8059,0.421815063 24.2910018,0.421815063 L24.2910018,0.421815063 L6.31388315,0.421815063 Z M16.9456757,3.29171585 L17.0108955,2.94528253 C17.1220803,2.36408233 17.5364045,2.0750959 18.2539599,2.0750959 L18.2539599,2.0750959 L19.1584391,2.0750959 C19.867213,2.0750959 20.1687518,2.36408233 20.0594423,2.94528253 L20.0594423,2.94528253 L19.9924845,3.29171585 C19.8831292,3.87286995 19.4741104,4.16347005 18.7635069,4.16347005 L18.7635069,4.16347005 L17.858982,4.16347005 C17.1395972,4.16347005 16.8363662,3.87286995 16.9456757,3.29171585 L16.9456757,3.29171585 Z M9.52456477,3.29171585 L9.58973886,2.94528253 C9.69909413,2.36408233 10.1098967,2.0750959 10.8204544,2.0750959 L10.8204544,2.0750959 L11.7355444,2.0750959 C12.4531912,2.0750959 12.7581602,2.36408233 12.6488507,2.94528253 L12.6488507,2.94528253 L12.5818929,3.29171585 C12.4725376,3.87286995 12.0564296,4.16347005 11.3405665,4.16347005 L11.3405665,4.16347005 L10.4254765,4.16347005 C9.71491886,4.16347005 9.4152095,3.87286995 9.52456477,3.29171585 L9.52456477,3.29171585 Z M16.2140336,7.16306433 L16.3215137,6.59500406 C16.4361287,5.97931728 16.8539746,5.67230378 17.5734051,5.67230378 L17.5734051,5.67230378 L18.4760549,5.67230378 C19.1884878,5.67230378 19.4829374,5.97931728 19.3700148,6.59500406 L19.3700148,6.59500406 L19.2607052,7.16306433 C19.1443981,7.77709132 18.730028,8.08405872 18.0194246,8.08405872 L18.0194246,8.08405872 L17.1166834,8.08405872 C16.3990823,8.08405872 16.0975435,7.77709132 16.2140336,7.16306433 L16.2140336,7.16306433 Z M8.79104751,7.16306433 L8.89683535,6.59500406 C9.0150177,5.97931728 9.42760401,5.67230378 10.1398997,5.67230378 L10.1398997,5.67230378 L11.0549439,5.67230378 C11.7725907,5.67230378 12.0723458,5.97931728 11.9559014,6.59500406 L11.9559014,6.59500406 L11.8483756,7.16306433 C11.7867232,7.49308424 11.6597595,7.72946481 11.465838,7.87229824 L11.465838,7.87229824 C11.2700413,8.01185822 10.980897,8.08405872 10.5965299,8.08405872 L10.5965299,8.08405872 L9.68322366,8.08405872 C8.97271171,8.08405872 8.6746946,7.77709132 8.79104751,7.16306433 L8.79104751,7.16306433 Z M71.3092844,3.66604271 C71.0607082,3.66604271 70.8667867,3.71200944 70.7256447,3.80721636 L70.7256447,3.80721636 C70.5757672,3.9089702 70.4365004,4.08140307 70.3007096,4.32599034 L70.3007096,4.32599034 L68.9695117,6.87901114 C68.7879389,7.21557797 68.6804588,7.42245131 68.6451505,7.4963116 L68.6451505,7.4963116 L68.3753526,8.05455149 C68.3595736,7.60959169 68.3312629,7.18441096 68.2907864,6.78707768 L68.2907864,6.78707768 L68.0227265,4.33419703 C67.9768531,3.88766967 67.7353659,3.66604271 67.2927766,3.66604271 L67.2927766,3.66604271 L65.1594113,3.66604271 C64.9707495,3.66604271 64.819134,3.71200944 64.7079492,3.80721636 L64.7079492,3.80721636 C64.5704205,3.91556322 64.4929433,4.02063662 64.4734597,4.12248266 L64.4734597,4.12248266 C64.4646784,4.17660999 64.4646784,4.26692977 64.4752892,4.39500959 L64.4752892,4.39500959 L64.8984405,7.74094497 C64.9230924,7.91499152 64.928352,8.04302523 64.912573,8.12513832 L64.912573,8.12513832 C64.902008,8.17931174 64.8666996,8.2794519 64.8120449,8.42887836 L64.8120449,8.42887836 L61.7370168,16.9727888 C61.7088433,17.0384885 61.6877132,17.1123488 61.673535,17.1944158 L61.673535,17.1944158 C61.6488832,17.3076959 61.6753644,17.4160888 61.7405842,17.5195024 L61.7405842,17.5195024 C61.8305474,17.6541292 61.9962954,17.7214425 62.2343066,17.7214425 L62.2343066,17.7214425 L64.4012423,17.7214425 C64.8649616,17.7214425 65.1840174,17.4817424 65.3533328,17.0023421 L65.3533328,17.0023421 L68.2925243,8.4978054 L67.9892476,17.0023421 C67.9698554,17.4817424 68.1938256,17.7214425 68.657545,17.7214425 L68.657545,17.7214425 L70.7891723,17.7214425 C71.238805,17.7214425 71.4979006,17.5424627 71.5649498,17.1845954 L71.5649498,17.1845954 C71.5807746,17.1041421 71.5931691,17.0335091 71.5949071,16.9727888 L71.5949071,16.9727888 L71.9087946,8.41901188 C71.9176217,8.25644549 71.9263573,8.16119246 71.929879,8.13500479 L71.929879,8.13500479 C71.9439658,8.06114451 71.9986663,7.93301859 72.0903216,7.74919777 L72.0903216,7.74919777 L73.7811891,4.39500959 C73.8411493,4.27347669 73.8782871,4.1831569 73.886977,4.12248266 L73.886977,4.12248266 C73.9081986,4.02063662 73.8675848,3.91556322 73.7724993,3.80721636 L73.7724993,3.80721636 C73.6966229,3.71200944 73.5626158,3.66604271 73.3756462,3.66604271 L73.3756462,3.66604271 L71.3092844,3.66604271 Z M29.7797123,4.93347042 C29.5258764,4.93347042 29.3212983,4.99589665 29.1678991,5.12554404 L29.1678991,5.12554404 C29.0110696,5.26021688 28.9193228,5.39977685 28.8928873,5.5409505 L28.8928873,5.5409505 C28.864668,5.69033085 28.9052818,5.82989082 29.0074565,5.96783712 L29.0074565,5.96783712 C29.1132443,6.09425716 29.2949085,6.15991074 29.5470522,6.15991074 L29.5470522,6.15991074 L47.9174565,6.15991074 C48.1801195,6.15991074 48.3829138,6.09425716 48.5309619,5.96783712 L48.5309619,5.96783712 C48.6878829,5.82989082 48.7795382,5.69199063 48.8060195,5.55247676 L48.8060195,5.55247676 C48.834193,5.40305031 48.7954544,5.26021688 48.6914045,5.12554404 L48.6914045,5.12554404 C48.5909221,4.99589665 48.4110873,4.93347042 48.151946,4.93347042 L48.151946,4.93347042 L29.7797123,4.93347042 Z M43.3384391,6.66559088 C43.1939127,6.66559088 43.1092549,6.72963079 43.0845574,6.8576645 L43.0845574,6.8576645 C43.0740381,6.91843095 43.1092549,6.9791513 43.1920832,7.04153143 L43.1920832,7.04153143 L43.5888448,7.35509184 C43.8620729,7.56362496 44.116046,7.69991148 44.3505356,7.75901815 L44.3505356,7.75901815 C44.5091945,7.80171142 44.8283417,7.81973849 45.3078858,7.81973849 L45.3078858,7.81973849 L47.8557126,7.81973849 C47.998501,7.81973849 48.0832045,7.75740447 48.1078106,7.62766487 L48.1078106,7.62766487 C48.1202051,7.56694453 48.0832045,7.50617808 48.0002847,7.44711751 L48.0002847,7.44711751 L47.6035232,7.13019143 C47.3250354,6.92175052 47.0710623,6.78707768 46.8418324,6.72635733 L46.8418324,6.72635733 C46.6760844,6.68689141 46.3570286,6.66559088 45.8862201,6.66559088 L45.8862201,6.66559088 L43.3384391,6.66559088 Z M31.5094099,6.66559088 C31.0210387,6.66559088 30.7001534,6.68195817 30.5414488,6.71483107 L30.5414488,6.71483107 C30.2558262,6.7690506 29.9102434,6.90856447 29.5046548,7.13019143 L29.5046548,7.13019143 L28.9193228,7.46514459 C28.813535,7.5209778 28.7571422,7.57842468 28.7464857,7.63919113 L28.7464857,7.63919113 C28.7236176,7.75901815 28.7765344,7.81973849 28.9069283,7.81973849 L28.9069283,7.81973849 L31.6381115,7.81973849 C32.1035689,7.81973849 32.4121968,7.8033712 32.5620286,7.7704983 L32.5620286,7.7704983 C32.8423458,7.7147112 33.1738876,7.57842468 33.5546415,7.35509184 L33.5546415,7.35509184 L34.0942372,7.04153143 C34.2000251,6.9791513 34.2564178,6.91843095 34.2705046,6.8576645 L34.2705046,6.8576645 C34.2934184,6.72963079 34.2334582,6.66559088 34.0889318,6.66559088 L34.0889318,6.66559088 L31.5094099,6.66559088 Z M79.1412895,7.06121828 C78.6246076,7.06121828 78.3196385,7.31571813 78.2226778,7.83292454 L78.2226778,7.83292454 L76.4965477,16.9497824 C76.3977575,17.465329 76.6075952,17.7214425 77.1224019,17.7214425 L77.1224019,17.7214425 L80.5500561,17.7214425 C81.0666008,17.7214425 81.371707,17.465329 81.468622,16.9497824 L81.468622,16.9497824 L81.7313308,15.5624816 C81.7965506,15.2259147 81.9217306,14.9846009 82.1069165,14.8449948 L82.1069165,14.8449948 C82.300838,14.7021614 82.5899823,14.6299148 82.9743951,14.6299148 L82.9743951,14.6299148 L89.5369003,14.6299148 C89.9212673,14.6299148 90.1821467,14.7021614 90.3231971,14.8449948 L90.3231971,14.8449948 C90.4572042,14.9846009 90.4907288,15.2259147 90.427247,15.5624816 L90.427247,15.5624816 L90.1627545,16.9497824 C90.0657937,17.465329 90.2756315,17.7214425 90.7904839,17.7214425 L90.7904839,17.7214425 L94.2198303,17.7214425 C94.7328533,17.7214425 95.0396061,17.465329 95.138442,16.9497824 L95.138442,16.9497824 L96.8645721,7.83292454 C96.9615329,7.31571813 96.7535246,7.06121828 96.2368885,7.06121828 L96.2368885,7.06121828 L79.1412895,7.06121828 Z M82.8968265,9.40081883 C82.9866981,8.9427652 83.3498436,8.71288544 83.9864001,8.71288544 L83.9864001,8.71288544 L90.7656949,8.71288544 C91.4058188,8.71288544 91.6808764,8.9427652 91.5927427,9.40081883 L91.5927427,9.40081883 C91.5063013,9.86873893 91.1431558,10.1018922 90.5029861,10.1018922 L90.5029861,10.1018922 L83.7237371,10.1018922 C83.0854426,10.1018922 82.8104308,9.86873893 82.8968265,9.40081883 L82.8968265,9.40081883 Z M82.3378843,12.3609472 C82.4312777,11.8602464 82.8262555,11.6106798 83.5138536,11.6106798 L83.5138536,11.6106798 L90.1416701,11.6106798 C90.8292225,11.6106798 91.1271939,11.8602464 91.0319711,12.3609472 L91.0319711,12.3609472 C90.938532,12.8683332 90.5435999,13.1211272 89.8559103,13.1211272 L89.8559103,13.1211272 L83.2282768,13.1211272 C82.5370655,13.1211272 82.2426158,12.8683332 82.3378843,12.3609472 L82.3378843,12.3609472 Z M30.7777678,8.28770471 C30.4003069,8.28770471 30.1218191,8.3205315 29.9419844,8.38779876 L29.9419844,8.38779876 C29.7639333,8.45511213 29.5012246,8.62920478 29.1591177,8.90661884 L29.1591177,8.90661884 L28.0447551,9.78662585 C27.9248348,9.87362607 27.8614901,9.94919224 27.8508336,10.0099126 L27.8508336,10.0099126 C27.8156624,10.1921197 27.9037961,10.2840532 28.1135423,10.2840532 L28.1135423,10.2840532 L31.5552833,10.2840532 C32.0401785,10.2840532 32.4297138,10.1576793 32.7224712,9.90815875 L32.7224712,9.90815875 L32.8423458,9.8063127 C33.0734051,9.61101173 33.3924609,9.51409892 33.7979581,9.51409892 L33.7979581,9.51409892 L42.5274904,9.51409892 C42.9135497,9.51409892 43.188653,9.60603238 43.3579227,9.78662585 L43.3579227,9.78662585 L43.4760136,9.90815875 C43.7034597,10.1576793 44.0877353,10.2840532 44.6237636,10.2840532 L44.6237636,10.2840532 L47.8433181,10.2840532 C48.0461582,10.2840532 48.1660328,10.1954393 48.1995117,10.0197791 L48.1995117,10.0197791 C48.2118604,9.95901261 48.1748598,9.88681211 48.0920316,9.79649233 L48.0920316,9.79649233 L47.2668132,8.90661884 C47.0147153,8.62920478 46.8119209,8.45511213 46.658476,8.38779876 L46.658476,8.38779876 C46.4979876,8.3205315 46.2230673,8.28770471 45.8403924,8.28770471 L45.8403924,8.28770471 L30.7777678,8.28770471 Z M20.2446282,10.527119 C19.7297757,10.527119 19.4229773,10.7832325 19.3241871,11.2954596 L19.3241871,11.2954596 L18.262787,16.9104087 C18.1658262,17.4242955 18.3738345,17.6803629 18.8904706,17.6803629 L18.8904706,17.6803629 L21.2618929,17.6803629 C21.7785291,17.6803629 22.0835438,17.4242955 22.1822883,16.9104087 L22.1822883,16.9104087 L23.2437799,11.2954596 C23.3423871,10.7832325 23.1308572,10.527119 22.6178342,10.527119 L22.6178342,10.527119 L20.2446282,10.527119 Z M15.1631528,10.527119 C14.6464709,10.527119 14.3415477,10.7832325 14.2445412,11.2954596 L14.2445412,11.2954596 L13.6556875,14.4066281 C13.560419,14.9221747 13.768473,15.1766745 14.2815418,15.1766745 L14.2815418,15.1766745 L16.3603438,15.1766745 C16.8751962,15.1766745 17.1801652,14.9221747 17.2789554,14.4066281 L17.2789554,14.4066281 L17.8678548,11.2954596 C17.9647698,10.7832325 17.7568073,10.527119 17.2419091,10.527119 L17.2419091,10.527119 L15.1631528,10.527119 Z M9.02553703,10.527119 C8.50899233,10.527119 8.2038861,10.7832325 8.10523311,11.2954596 L8.10523311,11.2954596 L7.04383299,16.9104087 C6.94504279,17.4242955 7.1548805,17.6803629 7.6714252,17.6803629 L7.6714252,17.6803629 L16.4413883,17.6803629 C16.9562408,17.6803629 17.2577796,17.4521891 17.3459132,16.9925218 L17.3459132,16.9925218 L17.39883,16.7084686 C17.483442,16.2487552 17.2718663,16.0188754 16.7553216,16.0188754 L16.7553216,16.0188754 L12.8163824,16.0188754 C12.4231425,16.0188754 12.1640469,15.9466749 12.0300398,15.8071149 L12.0300398,15.8071149 C11.8925111,15.6576885 11.853681,15.4147149 11.9171171,15.0765344 L11.9171171,15.0765344 L12.6329802,11.2954596 C12.731679,10.7832325 12.5219327,10.527119 12.007126,10.527119 L12.007126,10.527119 L9.02553703,10.527119 Z M4.06050605,10.527119 C3.5474373,10.527119 3.24246828,10.7832325 3.14367808,11.2954596 L3.14367808,11.2954596 L2.08049425,16.9104087 C1.98357923,17.4242955 2.19158749,17.6803629 2.70813219,17.6803629 L2.70813219,17.6803629 L5.07960018,17.6803629 C5.59614488,17.6803629 5.90125111,17.4242955 5.9982576,16.9104087 L5.9982576,16.9104087 L7.05965772,11.2954596 C7.15840218,10.7832325 6.94856447,10.527119 6.43375775,10.527119 L6.43375775,10.527119 L4.06050605,10.527119 Z M28.7218339,10.8718464 C28.2070271,10.8718464 27.9002287,11.1263463 27.8014385,11.6418468 L27.8014385,11.6418468 L26.8053497,16.9104087 C26.7065595,17.4242955 26.9163972,17.6803629 27.4312496,17.6803629 L27.4312496,17.6803629 L45.5846813,17.6803629 C46.0996253,17.6803629 46.4063323,17.4242955 46.5033845,16.9104087 L46.5033845,16.9104087 L47.4996105,11.6418468 C47.5982635,11.1263463 47.3884258,10.8718464 46.8718811,10.8718464 L46.8718811,10.8718464 L28.7218339,10.8718464 Z M32.6166834,12.4824801 C32.6642948,12.2263666 32.8740868,12.0982867 33.2443671,12.0982867 L33.2443671,12.0982867 L41.8856285,12.0982867 C42.2541251,12.0982867 42.4163057,12.2263666 42.36874,12.4824801 L42.36874,12.4824801 C42.317607,12.7451405 42.1077693,12.8764938 41.7392726,12.8764938 L41.7392726,12.8764938 L33.0980112,12.8764938 C32.7277309,12.8764938 32.5672883,12.7451405 32.6166834,12.4824801 L32.6166834,12.4824801 Z M32.2869253,14.2260346 C32.3363204,13.9634203 32.5497256,13.8303611 32.9270035,13.8303611 L32.9270035,13.8303611 L41.5453511,13.8303611 C41.9243671,13.8303611 42.0883771,13.9634203 42.0390277,14.2260346 L42.0390277,14.2260346 C41.9878947,14.4887411 41.776319,14.6200944 41.3971658,14.6200944 L41.3971658,14.6200944 L32.7789554,14.6200944 C32.399848,14.6200944 32.2376675,14.4887411 32.2869253,14.2260346 L32.2869253,14.2260346 Z M31.9484774,16.0074414 C32.0031779,15.718501 32.2376675,15.5739617 32.651946,15.5739617 L32.651946,15.5739617 L41.1609841,15.5739617 C41.5752626,15.5739617 41.7569268,15.718501 41.6987046,16.0074414 L41.6987046,16.0074414 C41.6440499,16.3061559 41.4078224,16.4539687 40.9952361,16.4539687 L40.9952361,16.4539687 L32.4862437,16.4539687 C32.07009,16.4539687 31.8919932,16.3061559 31.9484774,16.0074414 L31.9484774,16.0074414 Z M78.5523901,23.0769585 L76.5600295,32.3465624 L78.9402331,32.3465624 L80.2520389,26.214453 L80.2838256,26.214453 L85.3670389,32.5255422 L87.0824668,32.5255422 L89.0431322,23.3166587 L86.6629286,23.3166587 L85.3670389,29.3880477 L85.3369903,29.3880477 L80.2679094,23.0769585 L78.5523901,23.0769585 Z M65.4519858,23.0769585 L63.4614547,32.3465624 L65.8416583,32.3465624 L67.1518176,26.214453 L67.1852508,26.214453 L72.2684641,32.5255422 L73.9857215,32.5255422 L75.9446489,23.3166587 L73.5643538,23.3166587 L72.2684641,29.3880477 L72.2384155,29.3880477 L67.1692889,23.0769585 L65.4519858,23.0769585 Z M15.2636353,23.0769585 L8.51251402,32.3465624 L11.021465,32.3465624 L12.4302774,30.4404415 L16.6724476,30.4404415 L17.2066465,32.3465624 L19.7473384,32.3465624 L17.1096857,23.0769585 L15.2636353,23.0769585 Z M15.4716893,25.7251863 L15.5051682,25.7251863 L16.3144703,29.0055142 L13.4193685,29.0055142 L15.4716893,25.7251863 Z M4.25268958,23.2871514 C3.78718649,23.4266653 3.3728622,23.618785 3.00793302,23.8666919 L3.00793302,23.8666919 C2.63939068,24.1162124 2.32907052,24.4019253 2.07523458,24.7302855 L2.07523458,24.7302855 C1.82126143,25.0586456 1.65555916,25.4083524 1.58151225,25.784339 L1.58151225,25.784339 C1.50563588,26.1356595 1.50915757,26.4377397 1.58860136,26.6921935 L1.58860136,26.6921935 C1.67147536,26.9499668 1.81074211,27.1732074 2.00992328,27.3653272 L2.00992328,27.3653272 C2.2109339,27.5557871 2.46133963,27.7215808 2.76278696,27.8611869 L2.76278696,27.8611869 C3.066018,28.0007008 3.4010357,28.1321002 3.76779433,28.2518811 L3.76779433,28.2518811 C3.99345677,28.322514 4.22451608,28.3947606 4.46426527,28.4653474 L4.46426527,28.4653474 C4.70232222,28.5375941 4.90863824,28.6279138 5.088473,28.7363068 L5.088473,28.7363068 C5.26474034,28.8429478 5.40409855,28.9776206 5.49922986,29.1368213 L5.49922986,29.1368213 C5.59614488,29.2960682 5.62267188,29.4931672 5.58036589,29.7230009 L5.58036589,29.7230009 C5.53810564,29.8986611 5.4604913,30.0644549 5.352874,30.2188145 L5.352874,30.2188145 C5.24708616,30.3781075 5.1113411,30.5126881 4.94906905,30.6325151 L4.94906905,30.6325151 C4.78688846,30.754048 4.60179404,30.8492088 4.39195633,30.9214554 L4.39195633,30.9214554 C4.18042638,30.9920884 3.95645618,31.0281886 3.71839923,31.0281886 L3.71839923,31.0281886 C3.46104161,31.0281886 3.22646061,30.9920884 3.01493066,30.9214554 L3.01493066,30.9214554 C2.80335497,30.8492088 2.61473886,30.754048 2.44894512,30.6325151 L2.44894512,30.6325151 C2.27967542,30.5126881 2.14219239,30.3747418 2.03466657,30.215495 L2.03466657,30.215495 C1.92704928,30.0562482 1.85300236,29.8871348 1.80717468,29.7114746 L1.80717468,29.7114746 L0.0263897905,30.8245887 C0.340277368,31.3532753 0.773948067,31.7768424 1.32406315,32.1003154 L1.32406315,32.1003154 C1.87239451,32.4237423 2.57060342,32.5862625 3.41169224,32.5862625 L3.41169224,32.5862625 C4.03759221,32.5862625 4.61405134,32.5090827 5.14486574,32.3580887 L5.14486574,32.3580887 C5.67380496,32.2070024 6.13930806,31.9935822 6.54480525,31.7177357 L6.54480525,31.7177357 C6.94856447,31.4419353 7.28532015,31.1185084 7.54798318,30.7409081 L7.54798318,30.7409081 C7.81252139,30.3649214 7.99231042,29.9511748 8.08931691,29.4947809 L8.08931691,29.4947809 C8.19862644,28.9923281 8.16514754,28.5836069 7.99231042,28.2634073 L7.99231042,28.2634073 C7.8196105,27.9433 7.57803187,27.6805935 7.26240631,27.4720603 L7.26240631,27.4720603 C6.95208616,27.265187 6.59767631,27.0977335 6.20452788,26.96804 L6.20452788,26.96804 C5.80959575,26.8416661 5.44635881,26.7184734 5.1113411,26.5986464 L5.1113411,26.5986464 C4.77636914,26.4787732 4.50487902,26.3441465 4.30213042,26.1914466 L4.30213042,26.1914466 C4.0958144,26.0387928 4.02167601,25.8368066 4.07463854,25.5790333 L4.07463854,25.5790333 C4.1080717,25.4362459 4.18042638,25.3000055 4.29499557,25.1735394 L4.29499557,25.1735394 C4.40608882,25.0471194 4.54187961,24.9371127 4.69880053,24.8484988 L4.69880053,24.8484988 C4.85215403,24.7631123 5.02668339,24.6924793 5.21534523,24.6399657 L5.21534523,24.6399657 C5.40583653,24.5890657 5.59614488,24.5611722 5.79194158,24.5611722 L5.79194158,24.5611722 C6.18861168,24.5611722 6.52189141,24.6284394 6.7881676,24.7597927 L6.7881676,24.7597927 C7.05261434,24.8911921 7.27475509,25.0733992 7.45815727,25.3048927 L7.45815727,25.3048927 L8.8333535,24.0833856 C8.68356742,23.9323455 8.48607849,23.7911257 8.24449985,23.669685 L8.24449985,23.669685 C8.00118324,23.5449248 7.73847448,23.4398053 7.45815727,23.352805 L7.45815727,23.352805 C7.17779433,23.2640989 6.88677486,23.1967856 6.58354382,23.1492051 L6.58354382,23.1492051 C6.28209649,23.1015786 5.99651962,23.0769585 5.72667601,23.0769585 L5.72667601,23.0769585 C5.2083476,23.0769585 4.71814695,23.1459317 4.25268958,23.2871514 L4.25268958,23.2871514 Z M91.5839156,23.3166587 L89.6567749,32.3465624 L92.0369785,32.3465624 L93.9641192,23.3166587 L91.5839156,23.3166587 Z M60.5134361,23.3166587 L59.4467763,28.3701405 C59.3797271,28.6492144 59.2968988,28.9480673 59.1946326,29.2632414 L59.1946326,29.2632414 C59.092275,29.5785077 58.9424889,29.867448 58.7414783,30.1301084 L58.7414783,30.1301084 C58.5422514,30.3960884 58.2794512,30.6128283 57.956828,30.7901483 L57.956828,30.7901483 C57.6323753,30.9657624 57.2180968,31.0528087 56.7085497,31.0528087 L56.7085497,31.0528087 C56.2025243,31.0528087 55.8252464,30.9657624 55.5766244,30.7901483 L55.5766244,30.7901483 C55.3279566,30.6128283 55.1604706,30.3960884 55.0759044,30.1301084 L55.0759044,30.1301084 C54.9876335,29.867448 54.9629817,29.5785077 54.9947684,29.2632414 L54.9947684,29.2632414 C55.0265093,28.9480673 55.0759044,28.6492144 55.139249,28.3701405 L55.139249,28.3701405 L56.209522,23.3166587 L53.8275804,23.3166587 L52.6779094,28.7181875 C52.5598643,29.2682207 52.533383,29.778788 52.5985571,30.2500277 L52.5985571,30.2500277 C52.6620847,30.7212212 52.8401815,31.1316483 53.132756,31.4780817 L53.132756,31.4780817 C53.4237754,31.8261287 53.8328401,32.0969958 54.3617793,32.292389 L54.3617793,32.292389 C54.8907185,32.4877822 55.5659678,32.5862625 56.3858808,32.5862625 L56.3858808,32.5862625 C57.2057023,32.5862625 57.9233491,32.4877822 58.538684,32.292389 L58.538684,32.292389 C59.1540646,32.0969958 59.6812659,31.8261287 60.118504,31.4780817 L60.118504,31.4780817 C60.5540041,31.1316483 60.9065845,30.7212212 61.169339,30.2500277 L61.169339,30.2500277 C61.4356152,29.778788 61.6259693,29.2682207 61.7441059,28.7181875 L61.7441059,28.7181875 L62.8955149,23.3166587 L60.5134361,23.3166587 Z M49.6823709,23.3166587 L46.6866495,26.4541531 L45.2162305,23.3166587 L42.4463086,23.3166587 L45.1985763,28.2010272 L44.3081838,32.3465624 L46.6866495,32.3465624 L47.5770876,28.2010272 L52.4681632,23.3166587 L49.6823709,23.3166587 Z M39.5635099,23.3166587 L35.5488772,29.4011877 L35.5170906,29.4011877 L33.8790941,23.3166587 L31.322486,23.3166587 L34.0113632,32.5862625 L35.4042136,32.5862625 L42.1236855,23.3166587 L39.5635099,23.3166587 Z M28.4097757,23.3166587 L24.3950974,29.4011877 L24.361527,29.4011877 L22.72536,23.3166587 L20.1687518,23.3166587 L22.8576291,32.5862625 L24.2487415,32.5862625 L30.9681219,23.3166587 L28.4097757,23.3166587 Z" id="path-1"></path>
        <path d="M34.1276704,0.0212544261 C32.7693966,0.0212544261 30.9808823,0.244956108 28.8630215,0.73611316 L28.8630215,0.73611316 C27.3667158,1.08213153 26.4059811,2.43462305 26.7890218,3.82644217 L26.7890218,3.82644217 C27.0161478,4.66062076 27.9200782,5.16690027 28.8224993,4.97644032 L28.8224993,4.97644032 C31.9887253,4.30847042 34.1536486,4.03349993 36.8427545,3.93220714 L36.8427545,3.93220714 C37.9106492,3.88988271 39.6016539,3.99869062 40.6988197,5.29225988 L40.6988197,5.29225988 C40.6663013,3.46373377 38.3293184,0.497289023 35.3334597,0.0938237681 L35.3334597,0.0938237681 C34.9813367,0.0469810416 34.5772116,0.0212544261 34.1276704,0.0212544261 Z M38.7691177,7.14950944 C33.2091502,7.42909044 27.3651608,8.43252066 21.7076837,10.1113898 L21.7076837,10.1113898 C20.7794674,10.3864986 20.2763691,11.2961973 20.597666,12.1515381 L20.597666,12.1515381 L20.9335527,13.0582399 C21.2322558,13.8621736 22.1913898,14.3079633 23.0644482,14.0495906 L23.0644482,14.0495906 C29.9909221,11.9928445 34.4263278,10.9758133 40.9146489,11.2569158 L40.9146489,11.2569158 C43.3311213,11.3626807 44.8955739,13.2168874 44.8907259,13.1927283 L44.8907259,13.1927283 C44.6975361,12.0714536 44.215568,10.930492 43.7887577,10.1748764 L43.7887577,10.1748764 C42.8085394,8.43099919 41.1028076,7.14346968 39.0223134,7.14346968 L39.0223134,7.14346968 C38.9379301,7.14346968 38.8535468,7.14651261 38.7691177,7.14950944 L38.7691177,7.14950944 Z M41.2440868,14.354806 C35.187424,14.4862976 28.7299749,15.5743306 21.4366967,17.6673152 L21.4366967,17.6673152 C18.0027309,18.6511047 13.9356388,20.2302947 10.457812,21.9122068 L10.457812,21.9122068 C9.60583801,22.3248008 9.29268221,23.3145839 9.75996902,24.0958801 L9.75996902,24.0958801 L10.2647595,24.9360984 C10.7142549,25.6856281 11.7171585,25.9636877 12.5367513,25.5677836 L12.5367513,25.5677836 C15.7760637,24.0021485 19.5557952,22.5348554 22.7463986,21.6175494 L22.7463986,21.6175494 C30.8445884,19.293348 35.7068044,18.283878 42.1804441,18.5907071 L42.1804441,18.5907071 C43.8504102,18.6677025 46.3448628,19.532126 47.3525686,21.7142317 L47.3525686,21.7142317 C47.6334346,20.8422931 47.3607554,18.5982222 46.6077545,17.3061283 L46.6077545,17.3061283 C45.4911965,15.3929994 43.7222116,14.3533306 41.4128533,14.3533306 L41.4128533,14.3533306 C41.3560032,14.3533306 41.3008454,14.354806 41.2440868,14.354806 L41.2440868,14.354806 Z M42.1010003,21.6175494 C26.54072,22.0180179 11.6733889,28.2848462 0.949300679,34.2404194 L0.949300679,34.2404194 C0.0177913839,34.7572569 -0.274280024,35.8860929 0.295318678,36.7444305 L0.295318678,36.7444305 L0.563058424,37.1525063 C1.12945559,38.0063256 2.32394807,38.2782993 3.24571555,37.7615078 L3.24571555,37.7615078 C13.7815536,31.8693752 28.2236294,25.7793136 43.5647875,25.797479 L43.5647875,25.797479 C46.4405429,25.8020434 47.2910077,26.3520766 47.730807,28.8727316 L47.730807,28.8727316 C47.8297344,28.0158694 47.8281794,26.803906 47.6901475,26.1419759 L47.6901475,26.1419759 C47.1318914,23.5140805 45.0156772,21.6145065 42.2583786,21.6145065 L42.2583786,21.6145065 C42.206468,21.6145065 42.1545117,21.6160741 42.1010003,21.6175494 L42.1010003,21.6175494 Z M10.5373473,37.9851634 C9.5489879,38.4838356 9.18218353,39.6338798 9.72264827,40.5496183 L9.72264827,40.5496183 L9.9693951,40.9697274 C10.4724934,41.8190285 11.6165388,42.1409339 12.533504,41.6799757 L12.533504,41.6799757 C19.8786471,37.9881602 30.6352538,33.8596378 42.9983904,33.3458432 L42.9983904,33.3458432 C46.5898716,33.1977077 47.1497285,33.7901575 47.1400325,36.3304072 L47.1400325,36.3304072 C47.3915359,35.7667269 47.956378,34.4308332 47.8183461,33.2914392 L47.8183461,33.2914392 C47.4840602,30.5667693 45.679401,29.4756934 42.363892,29.3880477 L42.363892,29.3880477 C42.021465,29.3789189 41.6773458,29.3744467 41.3333638,29.3744467 L41.3333638,29.3744467 C30.3447374,29.3744467 18.7329094,33.8626807 10.5373473,37.9851634 L10.5373473,37.9851634 Z M41.4631632,36.7837581 C34.1422145,37.0421769 28.4702847,38.6606484 21.8927324,41.3656776 L21.8927324,41.3656776 C21.0228297,41.7207786 20.6300929,42.6742771 21.0277235,43.4812998 L21.0277235,43.4812998 L21.4577811,44.3532845 C21.8457156,45.1420958 22.8437253,45.4942 23.6957908,45.1420958 L23.6957908,45.1420958 C30.1370493,42.4945135 35.4681986,41.0105304 42.6202434,40.8911644 L42.6202434,40.8911644 C43.9819017,40.8700022 46.5119829,41.2523053 46.214972,43.5462618 L46.214972,43.5462618 C46.3334287,43.4314602 46.8511626,42.1348019 46.8592122,41.5832934 L46.8592122,41.5832934 C46.907967,38.6727279 44.7998023,36.7791937 41.7309487,36.7791937 L41.7309487,36.7791937 C41.6416716,36.7791937 41.5523945,36.7807613 41.4631632,36.7837581 L41.4631632,36.7837581 Z M40.7864503,44.3441557 C37.889519,44.4968095 34.8011818,44.9683258 31.4953688,45.7617015 L31.4953688,45.7617015 C30.5638595,45.9868324 30.0087592,46.8829762 30.2733432,47.7428353 L30.2733432,47.7428353 L30.5590115,48.6677025 C30.8120699,49.4897094 31.7274343,49.9778696 32.6183756,49.7647721 L32.6183756,49.7647721 C35.7651638,49.0092026 38.6684981,48.5754924 41.360897,48.4561264 L41.360897,48.4561264 C42.433594,48.4108052 43.8828829,48.6042158 44.0484022,49.6635254 L44.0484022,49.6635254 C44.1928829,49.461032 44.3373178,49.0152423 44.44928,48.6601413 L44.44928,48.6601413 C45.1227914,46.4945873 43.3781838,44.3396835 40.9957849,44.3396835 L40.9957849,44.3396835 C40.9260372,44.3396835 40.8577988,44.3411589 40.7864503,44.3441557 L40.7864503,44.3441557 Z" id="path-3"></path>
    </defs>
    <g id="SavvyUnni-Home-V3" stroke="none" stroke-width="1" fill="none" fill-rule="evenodd">
        <g id="SavvyUnni-Home" transform="translate(-180.000000, -20.000000)">
            <g id="logo-savvyunni-H-white" transform="translate(180.000000, 20.000000)">
                <g id="Group-11" transform="translate(0.000000, 0.000000)">
                    <path d="M122.73839,8.65299037 C122.491551,8.65299037 122.294062,8.6989571 122.147661,8.78434365 C121.997783,8.87955057 121.849689,9.05359712 121.701641,9.30316373 L120.664893,11.0254177 C120.583711,11.1599983 120.536146,11.2503181 120.529057,11.2995583 C120.51154,11.3866046 120.543143,11.4818116 120.627847,11.5836115 C120.694759,11.6771586 120.823506,11.7231254 121.013952,11.7231254 L129.426029,11.7231254 C129.942665,11.7231254 130.245942,11.4818116 130.337597,10.9958183 L130.425777,10.5295579 C130.517432,10.041951 130.307594,9.79893129 129.79105,9.79893129 L126.418096,9.79893129 C125.94555,9.79893129 125.740926,9.63313754 125.804453,9.30316373 C125.816848,9.23580426 125.839762,9.16849089 125.87507,9.09956385 C125.906765,9.0387974 125.926157,8.99942369 125.931417,8.97969073 C125.941982,8.9173106 125.915501,8.84179054 125.853848,8.75479031 C125.808021,8.68747695 125.71632,8.65299037 125.578791,8.65299037 L122.73839,8.65299037 Z M113.019812,8.65299037 C112.774757,8.65299037 112.612485,8.77609085 112.5367,9.01911054 C112.441478,9.3376503 112.175247,9.49523735 111.738009,9.49523735 L110.456206,9.49523735 C109.948351,9.49523735 109.65038,9.70865761 109.572811,10.1339305 L109.551681,10.2340246 C109.475851,10.655978 109.68738,10.864465 110.195235,10.864465 L111.120845,10.864465 C111.505212,10.864465 111.76792,10.9383714 111.905449,11.0861381 C112.037718,11.2289715 112.073027,11.4686716 112.009499,11.8068982 L111.893192,12.4143783 C111.829664,12.7525588 111.704439,12.992259 111.519344,13.1334787 C111.323548,13.2828591 111.03454,13.3567193 110.650128,13.3567193 L109.526938,13.3567193 C109.013823,13.3567193 108.714114,13.5685259 108.634807,13.9954125 L108.617153,14.0856862 C108.537847,14.5125728 108.75299,14.7227196 109.269535,14.7227196 L110.630735,14.7227196 L108.934517,15.40406 C108.462016,15.5928602 108.19048,15.8834603 108.114695,16.2742005 L108.068868,16.5188339 C108.045954,16.6452539 108.072298,16.7503273 108.151742,16.8323943 C108.22931,16.9211004 108.298098,16.9637476 108.35449,16.9637476 C108.384402,16.9637476 108.476103,16.9309208 108.634807,16.8636074 L109.495197,16.5188339 C109.461718,16.6189741 109.435237,16.7010872 109.41589,16.7601938 C109.408801,16.8028871 109.401758,16.8357139 109.398236,16.8636074 L109.361236,17.0556811 C109.278362,17.4940478 109.489937,17.7140611 109.997746,17.7140611 L112.728884,17.7140611 C113.113205,17.7140611 113.282475,17.8486879 113.22965,18.1196011 C113.204906,18.2476348 113.130859,18.3527082 113.007417,18.4331615 L112.806407,18.5760411 C112.430913,18.8304948 112.192901,19.1637882 112.094111,19.5676684 L112.076457,19.671082 L108.301528,19.671082 C107.783154,19.671082 107.485274,19.8910953 107.402308,20.3294159 L107.365308,20.5215357 C107.282434,20.9599024 107.497531,21.1782098 108.014213,21.1782098 L111.790834,21.1782098 L111.275982,23.8954107 C111.210808,24.2336373 111.087366,24.4733375 110.900442,24.6145572 C110.704782,24.7573445 110.41733,24.8279775 110.032963,24.8279775 L108.564328,24.8279775 C108.047646,24.8279775 107.747982,25.0479907 107.666801,25.4879712 L107.6298,25.6800448 C107.545234,26.1184116 107.762069,26.3367651 108.276876,26.3367651 L114.567845,26.3367651 C115.082652,26.3367651 115.389496,26.0806977 115.488149,25.5667647 L116.316889,21.1782098 L117.70974,21.1782098 C118.224592,21.1782098 118.524393,20.9599024 118.609005,20.5215357 L118.646005,20.3294159 C118.727141,19.8910953 118.510306,19.671082 117.997192,19.671082 L116.602512,19.671082 L116.655474,19.3952816 C116.696042,19.1802016 116.743608,19.0242282 116.796433,18.9305889 C116.856393,18.848568 116.97636,18.7336281 117.157887,18.5842016 L117.917885,17.9669012 C118.326904,17.6352676 118.568437,17.2773541 118.640746,16.8931608 L118.654833,16.822574 C118.684881,16.6682604 118.647835,16.5237672 118.53848,16.3957334 C118.43443,16.2676536 118.252903,16.2036137 117.99893,16.2036137 L110.285061,16.2036137 L113.970165,14.7227196 L118.714793,14.7227196 C119.231429,14.7227196 119.527571,14.5125728 119.608753,14.0856862 L119.626407,13.9954125 C119.707406,13.5685259 119.49057,13.3567193 118.974026,13.3567193 L117.374768,13.3567193 L118.977456,12.7065921 C119.457091,12.5194056 119.730319,12.2271918 119.806196,11.8347918 L119.853761,11.5836115 C119.880243,11.453918 119.852069,11.352072 119.772763,11.2683913 C119.696886,11.1797313 119.626407,11.137038 119.568185,11.137038 C119.531138,11.137038 119.437745,11.168205 119.278995,11.2289715 L116.263927,12.4455453 L116.383938,11.8068982 C116.447329,11.4686716 116.576031,11.2289715 116.771781,11.0861381 C116.965703,10.9383714 117.254847,10.864465 117.63926,10.864465 L119.21908,10.864465 C119.732195,10.864465 120.030166,10.655978 120.109473,10.2340246 L120.128819,10.1339305 C120.208171,9.70865761 119.991336,9.49523735 119.476483,9.49523735 L117.538732,9.49523735 C117.096234,9.49523735 116.888134,9.3376503 116.911048,9.01911054 C116.933962,8.77609085 116.824744,8.65299037 116.579598,8.65299037 L113.019812,8.65299037 Z M92.5846924,8.65299037 C92.0698857,8.65299037 91.7648709,8.91076368 91.6660807,9.42299074 L91.5392085,10.0813247 C91.4757266,10.4278041 91.3505924,10.6674581 91.1636228,10.802131 C90.969747,10.9515113 90.6805569,11.0254177 90.2944519,11.0254177 L85.8106573,11.0254177 C85.2958505,11.0254177 84.9925738,11.2716648 84.897351,11.7658186 L84.8003902,12.2829789 C84.7069969,12.7755652 84.9185726,13.0218123 85.4350716,13.0218123 L88.6228851,13.0218123 C88.77633,13.0218123 88.8785505,12.9380855 88.931513,12.7689722 C89.0072521,12.5194056 89.2206573,12.3946454 89.5679323,12.3946454 L100.430784,12.3946454 C100.771062,12.3946454 100.933379,12.5194056 100.91385,12.7689722 C100.903331,12.9380855 100.97564,13.0218123 101.127255,13.0218123 L104.316761,13.0218123 C104.829875,13.0218123 105.134936,12.7755652 105.228375,12.2829789 L105.327165,11.7658186 C105.418729,11.2716648 105.209028,11.0254177 104.692347,11.0254177 L96.8462548,11.0254177 C96.5059774,11.0254177 96.3561914,10.9104317 96.4001896,10.6805981 C96.4460173,10.4442175 96.6382465,10.3260042 96.9784782,10.3260042 L104.858095,10.3260042 C105.11902,10.3260042 105.325336,10.2619182 105.473429,10.1339305 C105.626874,9.99925771 105.720268,9.85808406 105.746749,9.71852409 C105.774968,9.56909763 105.736184,9.42958376 105.632134,9.29168357 C105.533344,9.16360375 105.351817,9.09956385 105.090846,9.09956385 L97.1460556,9.09956385 C96.8762577,9.09956385 96.749294,9.00435693 96.7669025,8.81551066 C96.7704699,8.7071638 96.7334693,8.65299037 96.655855,8.65299037 L92.5846924,8.65299037 Z M142.551039,8.66451663 C142.305893,8.66451663 142.143713,8.79089057 142.067836,9.0387974 C141.962049,9.36388407 141.692388,9.52640436 141.25858,9.52640436 L134.770167,9.52640436 C134.257053,9.52640436 133.953822,9.75628412 133.86738,10.2143377 L133.816247,10.4885245 C133.729852,10.9482379 133.943257,11.1764117 134.458109,11.1764117 L134.893609,11.1764117 C135.43133,11.1764117 135.656992,11.396425 135.574164,11.8347918 C135.538856,12.0121118 135.445417,12.1746321 135.286712,12.3223988 L134.796649,12.7788387 C134.329362,13.2188192 134.056042,13.6424323 133.976736,14.0545192 L133.952084,14.1990124 C133.870948,14.6225795 134.087783,14.8359997 134.60259,14.8359997 L152.995908,14.8359997 C153.168745,14.8359997 153.308012,14.7883732 153.4138,14.6931663 C153.526677,14.5995731 153.590204,14.5076396 153.605983,14.4206394 C153.61481,14.3730129 153.602462,14.2810333 153.561985,14.1464527 L153.089439,12.4947855 C153.020697,12.245265 152.930734,12.0761517 152.816119,11.9874917 C152.701504,11.9004915 152.51458,11.8561384 152.253701,11.8561384 L149.598303,11.8561384 C149.43786,11.8561384 149.314555,11.9004915 149.224546,11.9874917 C149.118758,12.0826986 149.060536,12.1648117 149.050017,12.2304653 C149.044757,12.2583588 149.048279,12.3125784 149.060536,12.3946454 C149.074669,12.4734389 149.072931,12.5604852 149.055277,12.6474854 C148.988227,13.0053989 148.697391,13.1843326 148.182538,13.1843326 L141.577773,13.1843326 C140.965868,13.1843326 140.703205,12.9643654 140.786079,12.5259986 C140.817774,12.3716389 140.890129,12.2304653 141.006436,12.1089324 L141.517721,11.5918182 C141.697648,11.4177717 141.851001,11.3061052 141.985008,11.2601385 C142.126059,11.2043514 142.334113,11.1764117 142.60917,11.1764117 L154.015048,11.1764117 C154.529855,11.1764117 154.829701,10.9482379 154.919527,10.4885245 L154.97066,10.2143377 C155.057056,9.75628412 154.843788,9.52640436 154.328936,9.52640436 L147.819347,9.52640436 C147.376849,9.52640436 147.166966,9.36388407 147.193447,9.0387974 C147.21101,8.79089057 147.096395,8.66451663 146.849602,8.66451663 L142.551039,8.66451663 Z M62.1120308,9.06835073 C61.5972241,9.06835073 61.2903799,9.32778382 61.1915897,9.84001088 L59.7194327,17.613921 C59.6242099,18.126148 59.8322182,18.3839213 60.3470249,18.3839213 L78.3260645,18.3839213 C78.8408712,18.3839213 79.1476697,18.126148 79.2446304,17.613921 L80.7169246,9.84001088 C80.8156233,9.32778382 80.6040477,9.06835073 80.0891952,9.06835073 L62.1120308,9.06835073 Z M72.7438691,11.9382515 L72.8090432,11.5918182 C72.9202279,11.010618 73.3345522,10.7216316 74.0521533,10.7216316 L74.9566325,10.7216316 C75.6654065,10.7216316 75.9668995,11.010618 75.85759,11.5918182 L75.7906322,11.9382515 C75.6813227,12.5194056 75.272258,12.8100057 74.5617004,12.8100057 L73.6571754,12.8100057 C72.9377449,12.8100057 72.6345139,12.5194056 72.7438691,11.9382515 L72.7438691,11.9382515 Z M65.3227125,11.9382515 L65.3879323,11.5918182 C65.4972875,11.010618 65.9080444,10.7216316 66.6186021,10.7216316 L67.5336921,10.7216316 C68.2513846,10.7216316 68.5563536,11.010618 68.4469984,11.5918182 L68.3800863,11.9382515 C68.270731,12.5194056 67.8545773,12.8100057 67.1387142,12.8100057 L66.22367,12.8100057 C65.5131123,12.8100057 65.2134029,12.5194056 65.3227125,11.9382515 L65.3227125,11.9382515 Z M72.0121813,15.8096 L72.1197071,15.2415397 C72.2343221,14.6258529 72.652168,14.3188394 73.3715528,14.3188394 L74.2742483,14.3188394 C74.9866354,14.3188394 75.2810851,14.6258529 75.1682082,15.2415397 L75.0588529,15.8096 C74.9425457,16.423627 74.5282215,16.7306405 73.817618,16.7306405 L72.9148311,16.7306405 C72.1972757,16.7306405 71.8957369,16.423627 72.0121813,15.8096 L72.0121813,15.8096 Z M64.5892409,15.8096 L64.6950288,15.2415397 C64.8131654,14.6258529 65.2257517,14.3188394 65.9380931,14.3188394 L66.8531374,14.3188394 C67.5707842,14.3188394 67.8704935,14.6258529 67.7540949,15.2415397 L67.646569,15.8096 C67.5849166,16.1395738 67.4579072,16.3760005 67.2639857,16.5188339 C67.0682347,16.6583939 66.7790904,16.7306405 66.3946776,16.7306405 L65.4813713,16.7306405 C64.7708594,16.7306405 64.472888,16.423627 64.5892409,15.8096 L64.5892409,15.8096 Z M127.107432,12.3125784 C126.858856,12.3125784 126.664934,12.3585451 126.523838,12.453752 C126.373961,12.555552 126.234694,12.7279387 126.098903,12.972526 L124.767705,15.5255468 C124.586132,15.8621136 124.478607,16.068987 124.443344,16.1428473 L124.173546,16.7010872 C124.157721,16.2561274 124.129411,15.8309466 124.088934,15.4336133 L123.820874,12.9807788 C123.775046,12.5342053 123.533559,12.3125784 123.090924,12.3125784 L120.957559,12.3125784 C120.768943,12.3125784 120.617327,12.3585451 120.506143,12.453752 C120.368614,12.5620989 120.291137,12.6671723 120.271653,12.7689722 C120.262826,12.8231918 120.262826,12.9134654 120.273483,13.0415453 L120.696588,16.3874806 C120.72124,16.5615272 120.726545,16.689607 120.710721,16.771674 C120.700156,16.8258474 120.664893,16.9259876 120.610193,17.075414 L117.53521,25.6193245 C117.507037,25.6849781 117.485907,25.7588844 117.471728,25.8409514 C117.447077,25.9542315 117.473558,26.0626245 117.538732,26.1660381 C117.628741,26.3006648 117.794443,26.3679782 118.0325,26.3679782 L120.199436,26.3679782 C120.663155,26.3679782 120.982211,26.1282781 121.151481,25.6488778 L124.090672,17.1443411 L123.787441,25.6488778 C123.768049,26.1282781 123.992019,26.3679782 124.455693,26.3679782 L126.587366,26.3679782 C127.036953,26.3679782 127.296094,26.1889984 127.363143,25.8310849 C127.378968,25.7506316 127.391317,25.6800448 127.393055,25.6193245 L127.706988,17.0655475 C127.715815,16.9029812 127.724505,16.8077742 127.728072,16.7815405 C127.742159,16.7076802 127.796814,16.5796004 127.888515,16.3957334 L129.579383,13.0415453 C129.639297,12.9200124 129.676435,12.8297387 129.68517,12.7689722 C129.706346,12.6671723 129.665778,12.5620989 129.570647,12.453752 C129.494771,12.3585451 129.360809,12.3125784 129.17384,12.3125784 L127.107432,12.3125784 Z M85.5779057,13.5800522 C85.324024,13.5800522 85.119446,13.6424323 84.9660925,13.7721258 C84.8092173,13.9067525 84.7175162,14.0463125 84.691035,14.1874862 C84.6628615,14.3369126 84.7034295,14.4764265 84.8056499,14.6143267 C84.9114377,14.7407928 85.0931019,14.8064464 85.3452456,14.8064464 L103.71565,14.8064464 C103.978313,14.8064464 104.181062,14.7407928 104.329155,14.6143267 C104.486031,14.4764265 104.577732,14.3385263 104.604213,14.1990124 C104.632386,14.049586 104.593648,13.9067525 104.489598,13.7721258 C104.38907,13.6424323 104.209281,13.5800522 103.950139,13.5800522 L85.5779057,13.5800522 Z M99.1365868,15.3121265 C98.9921061,15.3121265 98.9074026,15.3761665 98.8827508,15.5042002 C98.8721857,15.5649666 98.9074026,15.625687 98.9902766,15.6880671 L99.3870382,16.0016736 C99.6602663,16.2101606 99.9142395,16.3464471 100.148729,16.4055538 C100.307342,16.4482471 100.626535,16.4663203 101.106079,16.4663203 L103.65386,16.4663203 C103.796649,16.4663203 103.881352,16.4039401 103.906004,16.2742005 C103.918353,16.2134341 103.881352,16.1527598 103.798478,16.0936071 L103.401717,15.7767732 C103.123229,15.5682401 102.869256,15.4336133 102.640026,15.3728469 C102.474278,15.3334732 102.155222,15.3121265 101.684414,15.3121265 L99.1365868,15.3121265 Z M87.3076033,15.3121265 C86.8192321,15.3121265 86.4983469,15.3285399 86.3395965,15.3613667 C86.0539739,15.4155402 85.7084369,15.5551001 85.3028482,15.7767732 L84.7175162,16.1116803 C84.6117284,16.1674674 84.5553356,16.2249603 84.5446791,16.2857268 C84.5217653,16.4055538 84.5746821,16.4663203 84.7051675,16.4663203 L87.436305,16.4663203 C87.9017623,16.4663203 88.2103902,16.4499069 88.3601763,16.417034 C88.6404935,16.3612469 88.972081,16.2249603 89.3528349,16.0016736 L89.8923849,15.6880671 C89.9981728,15.625687 90.0545655,15.5649666 90.068698,15.5042002 C90.0915661,15.3761665 90.0316517,15.3121265 89.8871253,15.3121265 L87.3076033,15.3121265 Z M134.939437,15.7078001 C134.422801,15.7078001 134.117786,15.9622538 134.020871,16.4794141 L132.294695,25.5963642 C132.195905,26.1118647 132.405789,26.3679782 132.920595,26.3679782 L136.348249,26.3679782 C136.864794,26.3679782 137.1699,26.1118647 137.266815,25.5963642 L137.529524,24.2090172 C137.594744,23.8724504 137.719878,23.6311366 137.90511,23.4915305 C138.099031,23.3487432 138.388176,23.2764505 138.772589,23.2764505 L145.335048,23.2764505 C145.719461,23.2764505 145.980294,23.3487432 146.121391,23.4915305 C146.255352,23.6311366 146.288922,23.8724504 146.22544,24.2090172 L145.960948,25.5963642 C145.863941,26.1118647 146.073825,26.3679782 146.588677,26.3679782 L150.018024,26.3679782 C150.531001,26.3679782 150.837799,26.1118647 150.936635,25.5963642 L152.662766,16.4794141 C152.759726,15.9622538 152.551718,15.7078001 152.035036,15.7078001 L134.939437,15.7078001 Z M138.694974,18.0473545 C138.784846,17.5893009 139.148037,17.3594211 139.784594,17.3594211 L146.563888,17.3594211 C147.204012,17.3594211 147.47907,17.5893009 147.390936,18.0473545 C147.304495,18.5152746 146.941303,18.7483817 146.30118,18.7483817 L139.521885,18.7483817 C138.883636,18.7483817 138.608578,18.5152746 138.694974,18.0473545 L138.694974,18.0473545 Z M138.136032,21.0074828 C138.229471,20.5067821 138.624403,20.2572154 139.312047,20.2572154 L145.939864,20.2572154 C146.62737,20.2572154 146.925387,20.5067821 146.830119,21.0074828 C146.736725,21.5148228 146.341793,21.7677089 145.654149,21.7677089 L139.026424,21.7677089 C138.335259,21.7677089 138.040809,21.5148228 138.136032,21.0074828 L138.136032,21.0074828 Z M86.5759155,16.9342404 C86.1985003,16.9342404 85.9200125,16.9670672 85.7401778,17.0343805 C85.562081,17.1016939 85.2993722,17.2756943 84.9572654,17.5532006 L83.8429028,18.4331615 C83.7230282,18.5201617 83.6596835,18.5957279 83.649027,18.6564483 C83.6138101,18.8386554 83.7019438,18.9305889 83.91169,18.9305889 L87.353431,18.9305889 C87.8383262,18.9305889 88.2279072,18.8042149 88.5206189,18.5546944 L88.6404935,18.4528484 C88.8715528,18.2575013 89.1906543,18.1606346 89.5961058,18.1606346 L98.3256381,18.1606346 C98.7117431,18.1606346 98.9868007,18.2525681 99.1560704,18.4331615 L99.2741613,18.5546944 C99.5016531,18.8042149 99.8859287,18.9305889 100.421957,18.9305889 L103.641512,18.9305889 C103.844352,18.9305889 103.964226,18.8420211 103.997705,18.6663147 C104.010054,18.6055483 103.973053,18.5333478 103.890179,18.443028 L103.065007,17.5532006 C102.812863,17.2756943 102.610114,17.1016939 102.456624,17.0343805 C102.296181,16.9670672 102.021215,16.9342404 101.63854,16.9342404 L86.5759155,16.9342404 Z M76.0427759,19.1736547 C75.5279692,19.1736547 75.2211707,19.4297682 75.1223805,19.9419952 L74.0609804,25.5569443 C73.9639739,26.0708312 74.1720279,26.3268986 74.6886641,26.3268986 L77.0600863,26.3268986 C77.5767225,26.3268986 77.8817372,26.0708312 77.9804817,25.5569443 L79.0419276,19.9419952 C79.1405806,19.4297682 78.9290506,19.1736547 78.4160276,19.1736547 L76.0427759,19.1736547 Z M70.9613463,19.1736547 C70.4446644,19.1736547 70.1396953,19.4297682 70.0427346,19.9419952 L69.4538352,23.0531637 C69.3586124,23.5687103 69.5666207,23.8232102 70.0797352,23.8232102 L72.1585372,23.8232102 C72.6733896,23.8232102 72.9783587,23.5687103 73.0771489,23.0531637 L73.6660025,19.9419952 C73.7629633,19.4297682 73.554955,19.1736547 73.0401025,19.1736547 L70.9613463,19.1736547 Z M64.8237305,19.1736547 C64.3071857,19.1736547 64.0020795,19.4297682 63.9033808,19.9419952 L62.8419807,25.5569443 C62.7431905,26.0708312 62.9530282,26.3268986 63.4696186,26.3268986 L72.2395817,26.3268986 C72.7543885,26.3268986 73.0559273,26.0987247 73.1440609,25.6390113 L73.1970235,25.3550042 C73.2815897,24.8952908 73.0700598,24.6654111 72.5534693,24.6654111 L68.6145758,24.6654111 C68.2213359,24.6654111 67.9621946,24.5932106 67.8282333,24.4536506 C67.6907045,24.3042241 67.6518287,24.0612506 67.7153106,23.72307 L68.4311737,19.9419952 C68.5298724,19.4297682 68.3201261,19.1736547 67.8053194,19.1736547 L64.8237305,19.1736547 Z M59.8586995,19.1736547 C59.345585,19.1736547 59.040616,19.4297682 58.9418258,19.9419952 L57.8786877,25.5569443 C57.7817269,26.0708312 57.9897352,26.3268986 58.5062799,26.3268986 L60.8777936,26.3268986 C61.3943383,26.3268986 61.6994445,26.0708312 61.7964053,25.5569443 L62.8578054,19.9419952 C62.9565956,19.4297682 62.7467579,19.1736547 62.2319054,19.1736547 L59.8586995,19.1736547 Z M84.5200273,19.5184282 C84.0052206,19.5184282 83.6984221,19.7728819 83.5996319,20.2884286 L82.6035431,25.5569443 C82.5047529,26.0708312 82.7145906,26.3268986 83.2293973,26.3268986 L101.382875,26.3268986 C101.897819,26.3268986 102.204526,26.0708312 102.301578,25.5569443 L103.297758,20.2884286 C103.396457,19.7728819 103.186573,19.5184282 102.670029,19.5184282 L84.5200273,19.5184282 Z M88.4148311,21.1290157 C88.4624882,20.8728561 88.6722344,20.7448224 89.0425605,20.7448224 L97.6838219,20.7448224 C98.0522728,20.7448224 98.2144534,20.8728561 98.1668877,21.1290157 C98.1158004,21.3916762 97.9059169,21.5230295 97.5374661,21.5230295 L88.8962046,21.5230295 C88.5259243,21.5230295 88.365436,21.3916762 88.4148311,21.1290157 L88.4148311,21.1290157 Z M88.0851188,22.8725703 C88.1345139,22.6099098 88.3478733,22.4768968 88.725197,22.4768968 L97.3435446,22.4768968 C97.7225605,22.4768968 97.8865705,22.6099098 97.8371754,22.8725703 C97.7860423,23.1352768 97.5744667,23.2666301 97.1953593,23.2666301 L88.5771489,23.2666301 C88.1979957,23.2666301 88.0358151,23.1352768 88.0851188,22.8725703 L88.0851188,22.8725703 Z M87.7466708,24.6539309 C87.8013256,24.3650367 88.0358151,24.2204974 88.4501394,24.2204974 L96.9591317,24.2204974 C97.373456,24.2204974 97.5551202,24.3650367 97.4968981,24.6539309 C97.4422433,24.9527377 97.2060158,25.1005505 96.7934295,25.1005505 L88.2843914,25.1005505 C87.8682834,25.1005505 87.6901866,24.9527377 87.7466708,24.6539309 L87.7466708,24.6539309 Z M134.350584,31.7234942 L132.358223,40.9930981 L134.738427,40.9930981 L136.050232,34.8609887 L136.081973,34.8609887 L141.165187,41.1720779 L142.88066,41.1720779 L144.841326,31.9631943 L142.461076,31.9631943 L141.165187,38.0345834 L141.135138,38.0345834 L136.066057,31.7234942 L134.350584,31.7234942 Z M121.250179,31.7234942 L119.259602,40.9930981 L121.639852,40.9930981 L122.949965,34.8609887 L122.983444,34.8609887 L128.066612,41.1720779 L129.783915,41.1720779 L131.742842,31.9631943 L129.362501,31.9631943 L128.066612,38.0345834 L128.036609,38.0345834 L122.967482,31.7234942 L121.250179,31.7234942 Z M71.0618287,31.7234942 L64.3107074,40.9930981 L66.8196585,40.9930981 L68.2284251,39.0869772 L72.470641,39.0869772 L73.0048399,40.9930981 L75.5455319,40.9930981 L72.9078792,31.7234942 L71.0618287,31.7234942 Z M71.269837,34.371768 L71.3033159,34.371768 L72.1126638,37.6520498 L69.2175162,37.6520498 L71.269837,34.371768 Z M60.050883,31.9336871 C59.5853799,32.073201 59.1710099,32.2653207 58.8060807,32.5132275 C58.4375384,32.762748 58.1272639,33.048461 57.8733823,33.3768211 C57.6194549,33.7051813 57.4537068,34.0548881 57.3797057,34.4308747 C57.3037836,34.7821952 57.307351,35.0842754 57.3867948,35.3387292 C57.469623,35.5965025 57.6088898,35.8197892 57.808071,36.0119089 C58.0091273,36.2023689 58.259533,36.3681165 58.5609804,36.5077226 C58.8642114,36.6472365 59.1992291,36.7786358 59.5659878,36.8984168 C59.7916502,36.9690497 60.0227095,37.0412963 60.2624587,37.1118831 C60.5005156,37.1841758 60.7068317,37.2744495 60.8866207,37.3827964 C61.062888,37.4895295 61.202292,37.6241563 61.2973775,37.7834031 C61.3943383,37.9426499 61.4208196,38.1396568 61.3785593,38.3695366 C61.3362533,38.5451968 61.2586847,38.7109905 61.1510217,38.8653041 C61.0452338,39.0246431 60.9095345,39.1592238 60.7472625,39.2790508 C60.5850819,39.4005837 60.3999875,39.4957445 60.1901497,39.5680372 C59.9785741,39.638624 59.7546496,39.6747243 59.5165927,39.6747243 C59.2591893,39.6747243 59.024654,39.638624 58.8131241,39.5680372 C58.6015484,39.4957445 58.4128865,39.4005837 58.2471385,39.2790508 C58.0778688,39.1592238 57.9403401,39.0212775 57.83286,38.8620307 C57.7252427,38.7027838 57.6511958,38.5336705 57.6053681,38.3580564 L55.8245375,39.4711244 C56.1384251,39.999811 56.5721415,40.423378 57.1222566,40.746851 C57.6705422,41.0702779 58.3687511,41.2327982 59.2098857,41.2327982 C59.8357856,41.2327982 60.4122448,41.1556184 60.9430134,41.0046243 C61.4719526,40.8535381 61.9375015,40.6401178 62.3429987,40.3642714 C62.7467579,40.088471 63.0834678,39.7650441 63.3461766,39.3874438 C63.6106691,39.011411 63.7905038,38.5977104 63.8874646,38.1412705 C63.9968199,37.6389099 63.963341,37.2301426 63.7905038,36.909943 C63.6178039,36.5898357 63.3761796,36.3271291 63.060554,36.118596 C62.7502796,35.9117227 62.395824,35.7442691 62.0027213,35.6145756 C61.6077434,35.4881556 61.2445522,35.3650551 60.9095345,35.245182 C60.5745626,35.1253089 60.3030267,34.9906822 60.1002781,34.8380284 C59.8940078,34.6853285 59.8198694,34.4833422 59.8727862,34.225615 C59.9062651,34.0827816 59.9785741,33.9465412 60.093189,33.8200751 C60.2042365,33.6937011 60.340073,33.5836945 60.4969482,33.4950345 C60.6503017,33.4096018 60.8248768,33.339015 61.0134929,33.2865475 C61.2039842,33.2356014 61.3943383,33.2077539 61.590135,33.2077539 C61.9867594,33.2077539 62.3200848,33.2750212 62.5863153,33.4063284 C62.8508078,33.5377278 63.0729028,33.7199349 63.256305,33.9514283 L64.6315469,32.7299213 C64.4817151,32.5788811 64.2842262,32.4376614 64.0426475,32.3162207 C63.7993309,32.1914604 63.5366679,32.0863409 63.256305,31.9993407 C62.9759878,31.9106807 62.6849683,31.8433673 62.3817372,31.7957869 C62.0802899,31.7481143 61.7946673,31.7234942 61.5248694,31.7234942 C61.0064953,31.7234942 60.5163404,31.7924674 60.050883,31.9336871 L60.050883,31.9336871 Z M147.382109,31.9631943 L145.454923,40.9930981 L147.835172,40.9930981 L149.762313,31.9631943 L147.382109,31.9631943 Z M116.31163,31.9631943 L115.24497,37.0166762 C115.17792,37.29575 115.095046,37.5946029 114.99278,37.9098231 C114.890468,38.2250433 114.740682,38.5139837 114.539626,38.7766902 C114.340445,39.0426241 114.077645,39.2593639 113.755021,39.4366839 C113.430569,39.6123442 113.016244,39.6993444 112.506697,39.6993444 C112.000672,39.6993444 111.623394,39.6123442 111.374818,39.4366839 C111.126104,39.2593639 110.958664,39.0426241 110.874052,38.7766902 C110.785827,38.5139837 110.761175,38.2250433 110.792916,37.9098231 C110.824657,37.5946029 110.874052,37.29575 110.937442,37.0166762 L112.00767,31.9631943 L109.625728,31.9631943 L108.476103,37.3647693 C108.358058,37.9147103 108.331531,38.4253237 108.396751,38.8965172 C108.460232,39.3677569 108.638375,39.778184 108.930949,40.1246173 C109.221969,40.4726643 109.631033,40.7435776 110.159927,40.9389246 C110.688866,41.1342717 111.364161,41.2327982 112.184074,41.2327982 C113.003896,41.2327982 113.721542,41.1342717 114.336877,40.9389246 C114.952258,40.7435776 115.479459,40.4726643 115.916697,40.1246173 C116.352198,39.778184 116.704732,39.3677569 116.967532,38.8965172 C117.233809,38.4253237 117.424163,37.9147103 117.542299,37.3647693 L118.693663,31.9631943 L116.31163,31.9631943 Z M105.480519,31.9631943 L102.484843,35.1006888 L101.014378,31.9631943 L98.2445021,31.9631943 L100.996724,36.8475629 L100.106332,40.9930981 L102.484843,40.9930981 L103.375235,36.8475629 L108.266357,31.9631943 L105.480519,31.9631943 Z M95.3617033,31.9631943 L91.3470249,38.0477233 L91.315284,38.0477233 L89.6772875,31.9631943 L87.1206337,31.9631943 L89.8095109,41.2327982 L91.2024071,41.2327982 L97.9218331,31.9631943 L95.3617033,31.9631943 Z M84.2079692,31.9631943 L80.1932908,38.0477233 L80.1597204,38.0477233 L78.5235077,31.9631943 L75.9668995,31.9631943 L78.6557768,41.2327982 L80.0469349,41.2327982 L86.7662695,31.9631943 L84.2079692,31.9631943 Z" id="Fill-1" fill="currentColor"></path>
                    <g id="Group-5" transform="translate(55.798171, 8.646540)">
                        <mask id="mask-2" fill="currentColor">
                            <use xlink:href="#path-1"></use>
                        </mask>
                        <g id="Clip-4"></g>
                        <polygon id="Fill-3" fill="currentColor" mask="url(#mask-2)" points="0.0263897905 32.5862625 99.2589082 32.5862625 99.2589082 0.0064547064 0.0263897905 0.0064547064"></polygon>
                    </g>
                    <path d="M28.8630215,0.76096839 C27.3667158,1.10703286 26.4059811,2.45952438 26.7890218,3.8513435 C27.0161478,4.68552209 27.9201239,5.1917555 28.8224993,5.00134166 C31.9887253,4.33337175 34.1536486,4.05840126 36.8427545,3.95710848 C37.9106492,3.91478404 39.6016539,4.02359195 40.6988197,5.31716122 C40.6663013,3.48863511 38.3293641,0.522190359 35.3334597,0.118725103 C34.9813367,0.0718823768 34.5772116,0.0461557613 34.1276704,0.0461557613 C32.7693966,0.0461557613 30.9808823,0.269857443 28.8630215,0.76096839 M38.7691177,7.17441078 C33.2091502,7.45399177 27.3651608,8.45742199 21.7076837,10.1363372 C20.7794674,10.4113538 20.2763691,11.3210986 20.5977117,12.1764394 L20.9335984,13.0831412 C21.2322558,13.8870749 22.1913441,14.3328646 23.0644482,14.0744458 C29.9909221,12.0177458 34.4263278,11.0007146 40.9146031,11.2818171 C43.3311213,11.3875821 44.8955739,13.2417887 44.8907259,13.2176296 C44.6975819,12.0963088 44.215568,10.9553934 43.7887577,10.1998239 C42.8085394,8.45590052 41.1028533,7.16837102 39.0223134,7.16837102 C38.9379301,7.16837102 38.853501,7.17141395 38.7691177,7.17441078 M41.2440868,14.3797073 C35.1874698,14.5111989 28.7299749,15.5992319 21.4366967,17.6922165 C18.0026852,18.676006 13.9356846,20.255196 10.457812,21.9371081 C9.60583801,22.3496561 9.29268221,23.3394853 9.75996902,24.1208275 L10.2647595,24.9609997 C10.7142549,25.7105295 11.7171585,25.988589 12.5367513,25.592685 C15.7760637,24.0270498 19.5557495,22.5597106 22.7463529,21.6424508 C30.8445884,19.3182493 35.7068044,18.3087793 42.1804441,18.6155623 C43.8503644,18.6926038 46.3448171,19.5570273 47.3526143,21.739133 C47.6334346,20.8671944 47.3607096,18.6231235 46.6077545,17.3310296 C45.4911965,15.4179007 43.7222116,14.378232 41.4128533,14.378232 C41.3560032,14.378232 41.3008454,14.3797073 41.2440868,14.3797073 M42.1010003,21.6424508 C26.54072,22.0429192 11.6733889,28.3097475 0.949300679,34.2653668 C0.0177913839,34.7821583 -0.27432576,35.9109942 0.295318678,36.7693318 L0.563058424,37.1774076 C1.12945559,38.0311808 2.32394807,38.3032006 3.24576129,37.7864092 C13.7815536,31.8942765 28.2236294,25.8042149 43.5647875,25.8223803 C46.4405429,25.8268986 47.2910077,26.3769779 47.730807,28.897633 C47.8297344,28.0407707 47.8281794,26.8288074 47.6901933,26.1668772 C47.1318914,23.5389357 45.0156315,21.6394078 42.2583786,21.6394078 C42.2065137,21.6394078 42.1544659,21.6409293 42.1010003,21.6424508 M10.5373473,38.0100186 C9.5489879,38.5087369 9.18218353,39.6587351 9.72264827,40.5745196 L9.9693951,40.9946288 C10.4724476,41.8439298 11.6165388,42.1657891 12.5334582,41.7048309 C19.8786928,38.0130616 30.6352995,33.8845391 42.9983904,33.3706984 C46.5898716,33.2226551 47.1497743,33.8150127 47.1400325,36.3553085 C47.3915359,35.7916282 47.9563323,34.4557345 47.8183461,33.3163406 C47.4840602,30.5916707 45.679401,29.5005948 42.363892,29.4129491 C42.021465,29.4038203 41.6773458,29.3993481 41.3333181,29.3993481 C30.3447374,29.3993481 18.7329094,33.887536 10.5373473,38.0100186 M41.4632089,36.8086594 C34.1422603,37.0670321 28.4702847,38.6855498 21.8927324,41.3905789 C21.0228297,41.74568 20.6300929,42.6992245 21.0277235,43.506155 L21.4577811,44.3781859 C21.8456698,45.1669971 22.8437253,45.5191013 23.6957908,45.1669971 C30.1370493,42.5193687 35.4681986,41.0354317 42.6202434,40.9160658 C43.9819017,40.8949035 46.5119371,41.2772066 46.214972,43.5711631 C46.3334287,43.4563155 46.8512083,42.1597033 46.8592122,41.6081486 C46.907967,38.6976293 44.7998023,36.8040951 41.7309487,36.8040951 C41.6416716,36.8040951 41.5524402,36.8056165 41.4632089,36.8086594 M40.7864503,44.3690571 C37.889519,44.5217109 34.801136,44.9931811 31.4953688,45.7865567 C30.5638595,46.0117337 30.0087592,46.9078775 30.2733432,47.7677366 L30.5590115,48.6926038 C30.8120699,49.5146568 31.7274343,50.0027709 32.6184214,49.7897195 C35.7651638,49.0341039 38.6684981,48.6003937 41.3608513,48.4810278 C42.433594,48.4356604 43.8828829,48.6291172 44.0484022,49.6884267 C44.1929286,49.4859334 44.3373178,49.0401437 44.44928,48.6850426 C45.1228371,46.5194886 43.3781838,44.3645849 40.9957392,44.3645849 C40.9260372,44.3645849 40.8577988,44.3660602 40.7864503,44.3690571" id="Fill-6" fill="currentColor"></path>
                    <g id="Group-10" transform="translate(0.000000, 0.024897)">
                        <mask id="mask-4" fill="currentColor">
                            <use xlink:href="#path-3"></use>
                        </mask>
                        <g id="Clip-9"></g>
                        <polygon id="Fill-8" fill="currentColor" mask="url(#mask-4)" points="-0.274417232 49.9778696 47.9562408 49.9778696 47.9562408 0.0212544261 -0.274417232 0.0212544261"></polygon>
                    </g>
                </g>
            </g>
        </g>
    </g>
</svg>