<?xml version="1.0" encoding="UTF-8"?>
<svg width="163px" height="50px" viewBox="0 0 163 50" version="1.1" xmlns="http://www.w3.org/2000/svg" xmlns:xlink="http://www.w3.org/1999/xlink">
    <!-- Generator: Sketch 55 (78076) - https://sketchapp.com -->
    <title>logo-savvypro-H-color Copy</title>
    <desc>Created with Sketch.</desc>
    <defs>
        <polygon id="path-1" points="0 0.106707617 31.6973323 0.106707617 31.6973323 38.8178086 0 38.8178086"></polygon>
        <polygon id="path-3" points="0.00610657362 0.0169840962 14.4578969 0.0169840962 14.4578969 28.4432422 0.00610657362 28.4432422"></polygon>
    </defs>
    <g id="SavvyPro-Home-V1" stroke="none" stroke-width="1" fill="none" fill-rule="evenodd">
        <g id="SavvyPro-home" transform="translate(-180.000000, -20.000000)">
            <g id="Group-35">
                <g id="logo-savvypro-H-white" transform="translate(180.000000, 20.000000)">
                    <g id="Group-99" transform="translate(0.000000, 0.000000)">
                        <path d="M34.0177123,27.6010451 L35.1913862,27.4777008 L35.0605062,26.2353944 L33.8589581,26.3616931 C33.7875187,25.9312805 33.7026036,25.4971749 33.6117814,25.0771025 C33.615658,25.0761793 33.6195345,25.0765486 33.6234111,25.0756253 L34.8364043,24.8178578 L34.5764904,23.5960473 L33.3638664,23.8539995 C33.3527905,23.8562152 33.3431914,23.8612007 33.3324847,23.8639704 C33.3286082,23.8479061 33.324547,23.8303646 33.3206704,23.814485 C33.2387089,23.4760266 33.1165051,23.0539231 32.9723341,22.6044919 C32.9902401,22.6004296 33.0081461,22.5987678 33.0258675,22.5928591 L34.2052639,22.2097161 L33.8192695,21.021696 L32.6398732,21.4050236 C32.6143986,21.4133328 32.5915085,21.4257041 32.56788,21.436783 C32.4034032,20.9951068 32.2320963,20.5735573 32.0692809,20.2201425 C32.1039853,20.2114641 32.1385051,20.2013085 32.1722865,20.1863521 L33.3051642,19.6817113 L32.796966,18.5405916 L31.6642729,19.0454171 C31.6072322,19.0707137 31.5581291,19.1057967 31.5130872,19.1445726 C31.3246127,18.7861724 31.1158324,18.3873344 30.8941302,17.9849882 L32.0786954,17.3008703 L31.4540159,16.2190224 L30.2626206,16.9072025 C30.194504,16.7999224 30.1262027,16.6946735 30.0575323,16.5934869 C29.899701,16.3610161 29.72341,16.1143274 29.5306897,15.855452 L30.6674439,15.0293404 L29.9331133,14.0187663 L28.7860215,14.8526331 C28.7778992,14.8583571 28.7718075,14.8655584 28.7640544,14.8716517 C28.5067248,14.55332 28.2316738,14.2235401 27.9394553,13.8837892 C27.9732367,13.8620008 28.0064643,13.838366 28.0374768,13.8102996 L29.0549807,12.8938956 L28.2189366,11.9658587 L27.2018018,12.8822628 C27.1720815,12.9090366 27.1464224,12.9383955 27.1220555,12.968493 C26.8407282,12.6785969 26.5178664,12.3759602 26.1876206,12.0821865 C26.203496,12.06723 26.2206636,12.0541201 26.2356161,12.0375018 L27.1903567,10.9768883 L26.261829,10.1415444 L25.2426636,11.2745396 L24.6393975,11.9488712 C25.1551642,12.3822382 25.7104349,12.8695221 26.1054745,13.2378933 C26.8423896,13.9253348 28.01994,15.3395477 28.667325,16.1791386 C29.3145255,17.0187294 30.5253035,19.1395871 30.9256965,19.9335701 C31.3260895,20.7273684 32.1154304,22.9111909 32.348393,23.6789539 C32.5813556,24.446717 32.7552469,25.33487 32.9450136,26.3620624 C33.1345957,27.3892548 33.3171631,29.8328758 33.2488618,30.9638399 C33.1693001,32.2766815 32.9619966,33.8520914 32.9619966,33.8520914 C32.9212005,34.1346017 32.7377101,35.0700244 32.7377101,35.0700244 L33.3179015,35.2024164 C33.3334077,35.2068479 33.3478063,35.2134952 33.3638664,35.2170035 L33.6379943,35.2753521 L33.6431631,35.2764599 L33.6431631,35.2762753 L34.5764904,35.4749557 L34.8360351,34.2529605 L33.8432673,34.0419088 L33.8508358,33.9948237 C33.851205,33.9948237 33.8513896,33.9950084 33.8515742,33.9950084 C33.8554507,33.9713735 33.8598811,33.9421993 33.864496,33.9106246 L33.8659728,33.9013922 L33.8659728,33.9012076 C33.8999388,33.6674442 33.9514417,33.239432 34.0036829,32.724451 L35.0605062,32.8354239 L35.191017,31.5933022 L34.1140725,31.4799288 C34.1149955,31.4675575 34.1159185,31.4553708 34.1168414,31.4429994 C34.1458233,31.0539478 34.1532072,30.6157799 34.1478539,30.1600707 L35.2661484,30.1600707 L35.2661484,28.9109323 L34.1050272,28.9109323 C34.0808448,28.458916 34.0502016,28.012993 34.0177123,27.6010451" id="Fill-1" fill="currentColor"></path>
                        <g id="Group-5" transform="translate(0.000000, 0.078106)">
                            <mask id="mask-2" fill="white">
                                <use xlink:href="#path-1"></use>
                            </mask>
                            <g id="Clip-4"></g>
                            <path d="M11.9853549,25.9342348 C12.6096652,26.4650955 13.6022485,27.0406408 15.3282394,27.0406408 C16.6158102,27.0406408 19.1758147,26.4722968 19.8161851,25.7601125 C20.0895746,26.5801307 20.1333243,29.0772995 18.0887173,30.5622323 C16.0442949,32.047165 13.6129552,33.8258715 9.92524168,34.7136553 C10.060552,35.7473103 10.1914319,36.7477288 10.2255826,37.0080814 C11.1733085,37.5132761 13.260373,38.6257755 13.260373,38.6257755 L18.9507898,36.006555 L18.5767943,38.8178086 L30.9516879,35.137236 L31.1207796,35.0956903 C31.1207796,35.0956903 31.3854931,33.8090686 31.4371805,33.4528842 C31.4886834,33.0966997 31.6780809,31.554711 31.6930333,31.1392548 C31.7081703,30.7237986 31.6797422,29.2091376 31.663313,28.9271813 C31.6470684,28.645225 31.534279,27.3774373 31.4849914,27.0406408 C31.4360729,26.7036597 31.1728362,25.2643348 31.0766607,24.8819304 C30.9860231,24.5200219 30.5943062,23.0445061 30.3744501,22.5516828 C30.1870831,22.0546125 29.4756426,20.421408 29.3320254,20.1420368 C29.1885928,19.8626656 28.5155486,18.6654131 28.3898374,18.4647016 C28.263757,18.2639901 27.5436403,17.1954368 27.3819325,16.9792149 C27.2200401,16.7631777 26.4174082,15.7437405 26.0339982,15.3290228 C25.651142,14.9143052 24.7091386,13.8920983 24.3039461,13.5735819 C23.8983844,13.2550655 23.1921126,12.6734268 22.9130005,12.4662526 C22.7981805,12.1095143 19.8161851,4.59566571 19.8161851,4.59566571 L14.6697785,10.2211273 L13.1597672,8.57056601 L14.745279,7.7494399 L4.02549083,0.106707617 L10.800236,7.5119836 L9.21490872,8.33310971 L13.5616369,11.432413 L0.908369649,25.2635962 C0.908369649,25.2635962 -0.714061835,26.9564417 0.37765051,29.0990878 C0.851882673,29.6310564 1.40512276,30.6820683 3.92913069,30.3576432 C4.4720333,30.1475146 5.73412956,29.7940999 6.35271733,27.7447006 C6.96392118,26.779919 7.10052367,26.618722 7.75547724,25.9253718 C8.70209558,24.9229221 10.7118136,24.9207063 11.9853549,25.9342348" id="Fill-3" fill="currentColor" mask="url(#mask-2)"></path>
                        </g>
                        <polygon id="Fill-6" fill="currentColor" points="18.089345 42.435472 29.8775862 38.9377 30.6303767 36.9438796 18.3402136 40.5856763"></polygon>
                        <polygon id="Fill-8" fill="currentColor" points="17.0021183 42.89312 17.7074672 37.6919777 13.2603177 39.7483936 8.77901755 37.3594281 9.46609117 42.6119024 13.2328126 40.8836046"></polygon>
                        <path d="M29.7160814,44.2260513 C31.2013566,44.1653023 31.9707609,43.2295103 31.9707609,43.2295103 L29.7160814,43.2295103 L12.8615492,43.2295103 C11.1148832,43.2317261 9.69938607,44.6487087 9.69938607,46.3965791 C9.69938607,48.1442649 11.1148832,49.5612475 12.8615492,49.5634632 L29.7160814,49.5634632 L31.9707609,49.5634632 C31.9707609,49.5634632 31.2013566,48.6278559 29.7160814,48.5669223 L12.8615492,48.5669223 L12.8615492,48.0283064 L28.7916148,48.0283064 L29.7050055,48.0283064 C29.7050055,48.0283064 29.393035,47.3693006 28.7916148,47.3266471 L28.7916148,47.3192612 L12.8615492,47.3192612 L12.8615492,46.7511017 L28.0655911,46.7511017 L28.7916148,46.7511017 L29.3618379,46.7511017 C29.5573272,46.7511017 29.7160814,46.5923051 29.7160814,46.3963945 C29.7160814,46.2006684 29.5573272,46.0420565 29.3618379,46.0420565 L28.7916148,46.0420565 L28.0655911,46.0420565 L12.8615492,46.0420565 L12.8615492,45.5353846 L28.7916148,45.5353846 L28.7916148,45.531507 C29.393035,45.4888535 29.7050055,44.8300323 29.7050055,44.8300323 L28.7916148,44.8300323 L28.7916148,44.8263393 L12.8615492,44.8263393 L12.8615492,44.2260513 L29.7160814,44.2260513 Z" id="Fill-10" fill="currentColor"></path>
                        <path d="M92.3413091,28.8435361 L91.6514665,33.8018674 L88.5910169,12.355095 L85.3900882,12.3574954 L85.3899036,12.3574954 L83.9732989,12.3586033 C83.9732989,12.3586033 84.884659,12.6789662 85.0574427,13.4242023 L89.432599,40.3745692 L92.0978243,40.3721687 L92.0981935,40.372538 L93.0942841,40.3712455 L93.8779025,40.3708762 L96.2634619,25.5257952 L94.4184053,14.16076 L92.3413091,28.8435361 Z" id="Fill-12" fill="currentColor"></path>
                        <path d="M123.65372,18.2698619 L123.658889,25.2223829 L123.238744,25.2225676 L123.233021,18.2700465 L123.65372,18.2698619 Z M124.036576,25.6234367 L124.053559,25.4408206 C124.057066,25.3976131 124.060758,25.3429576 124.060389,25.2764846 L124.054667,18.2150217 C124.054667,18.1481794 124.05079,18.0957396 124.04599,18.0565944 L124.028084,17.9029679 L123.875237,17.8811795 C123.827611,17.8745322 123.76134,17.8688082 123.672364,17.8688082 L122.831151,17.8695468 L122.837797,25.6243599 L124.036576,25.6234367 Z" id="Fill-14" fill="currentColor"></path>
                        <path d="M124.480091,12.524435 C127.803408,12.5214806 129.711043,14.5171476 129.713997,17.9988552 L129.720273,25.5189817 C129.722673,28.9779777 127.831098,30.9634891 124.530117,30.9660742 L122.842153,30.9679206 L122.849537,40.1469176 L117.190133,40.1517184 L117.167981,12.5303437 L124.480091,12.524435 Z M123.250853,40.5477867 L123.243654,31.3687897 L124.530486,31.3674972 C128.086397,31.3649121 130.124174,29.2326062 130.12122,25.5182431 L130.115128,17.9988552 C130.112175,14.2615958 128.057969,12.1204269 124.479722,12.1233813 L116.766481,12.1291053 L116.789002,40.5533261 L123.250853,40.5477867 Z" id="Fill-16" fill="currentColor"></path>
                        <path d="M123.671312,16.732637 C124.683093,16.7318984 125.189815,17.225645 125.190369,18.2144308 L125.195907,25.275709 C125.196645,26.2639409 124.749918,26.7584261 123.856095,26.7593493 L121.703129,26.7613804 L121.695006,16.7342988 L123.671312,16.732637 Z M121.712912,39.011799 L121.705713,29.832248 L124.528954,29.8302169 C127.234791,29.8280011 128.586787,28.3918152 128.584756,25.5198126 L128.578664,18.0000554 C128.576264,15.1051566 127.21024,13.6586304 124.480774,13.6608462 L118.304495,13.6658317 L118.324801,39.0145687 L121.712912,39.011799 Z" id="Fill-18" fill="currentColor"></path>
                        <path d="M146.247864,40.1282867 L140.701988,40.1325336 L138.474075,29.9132343 L138.482013,40.1341954 L132.822977,40.1388116 L132.800641,12.5179908 L140.571846,12.5118974 C143.76133,12.5091277 145.591803,14.50461 145.594757,17.9863176 L145.599925,24.2353329 C145.601402,26.3870267 145.009581,27.9607748 143.840338,28.913739 L143.743793,28.9918447 L146.247864,40.1282867 Z M146.000872,24.2347789 L145.995888,17.9859483 C145.992934,14.2488737 144.015521,12.1073354 140.571661,12.1101051 L132.399141,12.1167524 L132.422031,40.5402346 L138.883882,40.5352492 L138.877975,33.6508629 L140.379126,40.5341413 L146.749048,40.5291558 L144.189412,29.1441787 C145.393545,28.1064614 146.002718,26.4555308 146.000872,24.2347789 L146.000872,24.2347789 Z" id="Fill-20" fill="currentColor"></path>
                        <path d="M139.519232,24.3263455 L138.870554,24.3270841 L138.865939,18.2577306 L139.514247,18.2575459 C139.525139,18.3251268 139.533815,18.4222512 139.533815,18.5561204 L139.53843,24.0285095 C139.538614,24.1612709 139.529569,24.2587646 139.519232,24.3263455 M139.861845,17.9951622 L139.821049,17.8856665 L139.706045,17.8666478 C139.672817,17.8614777 139.622976,17.855569 139.553013,17.8559383 L138.464623,17.8568615 L138.469608,24.7288764 L139.557997,24.7277685 C139.628883,24.7277685 139.678909,24.7224137 139.711767,24.7176129 L139.826772,24.697671 L139.867014,24.5883598 C139.900611,24.4978827 139.940115,24.3270841 139.939746,24.0277709 L139.935315,18.5555665 C139.934946,18.2566227 139.895627,18.085824 139.861845,17.9951622" id="Fill-22" fill="currentColor"></path>
                        <path d="M139.559437,25.8638473 L137.335032,25.8660631 L137.327832,16.7215951 L139.552238,16.7199333 C140.563096,16.7191947 141.069818,17.3313002 141.070925,18.5547725 L141.075171,24.0267923 C141.075909,25.2508186 140.57048,25.8631087 139.559437,25.8638473 M144.46402,24.2358129 L144.458852,17.987167 C144.456636,15.0922682 143.160943,13.6459267 140.572695,13.6474039 L133.937322,13.6533126 L133.957443,39.0022342 L137.346107,38.9994645 L137.337616,28.7609619 L139.384992,28.7594847 L141.616966,38.9957716 L144.828601,38.9931865 L142.455594,28.4389372 C143.796329,27.8499126 144.465866,26.4488096 144.46402,24.2358129" id="Fill-24" fill="currentColor"></path>
                        <g id="Group-28" transform="translate(148.416761, 12.080174)">
                            <mask id="mask-4" fill="white">
                                <use xlink:href="#path-3"></use>
                            </mask>
                            <g id="Clip-27"></g>
                            <path d="M5.65462322,28.0414471 C2.33130612,28.0444015 0.423670781,26.0620291 0.420717214,22.6030331 L0.407610759,5.90317101 C0.404657191,2.42146339 2.2962325,0.423026737 5.59721325,0.420995618 L8.84466059,0.417856615 C12.1458259,0.415640849 14.040724,2.41075385 14.043493,5.89227682 L14.056784,22.592139 C14.059553,26.051135 12.1548712,28.036277 8.83118494,28.0392314 L5.65462322,28.0414471 Z M14.4579154,22.5917697 L14.4446243,5.89227682 C14.4418554,2.15520213 12.4003865,0.0138485401 8.84429139,0.0169875425 L5.59702865,0.0190186617 C2.04093352,0.0219730169 0.00297202718,2.1668349 0.00611019253,5.90409424 L0.0195858437,22.6030331 C0.0225394111,26.3173962 2.07674553,28.4460092 5.65499241,28.4432395 L8.83155413,28.4402851 C12.4103548,28.4375154 14.4606844,26.3063174 14.4579154,22.5917697 L14.4579154,22.5917697 Z" id="Fill-26" fill="currentColor" mask="url(#mask-4)"></path>
                        </g>
                        <path d="M154.897663,34.3759171 L154.885295,18.244953 L156.399552,18.2436604 L156.412659,34.3748092 L154.897663,34.3759171 Z M156.792192,18.0303929 L156.774286,17.8767665 L156.621624,17.8553474 C156.573997,17.8483308 156.507542,17.8424221 156.418566,17.8424221 L154.83047,17.8437146 C154.761799,17.8437146 154.707712,17.8475922 154.666362,17.8525777 L154.509823,17.8725196 L154.491732,18.0294697 C154.487487,18.0697228 154.483795,18.1230858 154.483425,18.1908513 L154.496532,34.4311266 C154.496532,34.4983382 154.500962,34.550778 154.505393,34.5897385 L154.523299,34.7431804 L154.67633,34.7647841 C154.723403,34.7718007 154.790227,34.7777094 154.879019,34.7777094 L156.790346,34.7760476 L156.807145,34.5932468 C156.810652,34.550224 156.813605,34.4961224 156.813605,34.4292801 L156.801053,18.1886356 C156.801053,18.1219779 156.796992,18.0691688 156.792192,18.0303929 L156.792192,18.0303929 Z" id="Fill-29" fill="currentColor"></path>
                        <path d="M156.609606,35.9120525 L154.880108,35.9137144 C153.867957,35.9146376 153.362159,35.4207063 153.360867,34.4319206 L153.348314,18.1916453 C153.347576,17.2034135 153.841006,16.708559 154.829528,16.7076358 L156.417624,16.7065279 C157.428667,16.7056047 157.935758,17.1999052 157.936496,18.188137 L157.949603,34.4282276 C157.950341,35.4168287 157.503245,35.9114986 156.609606,35.9120525 L156.609606,35.9120525 Z M161.324607,17.9739463 C161.322208,15.0784935 159.967997,13.632152 157.26216,13.6345524 L154.015082,13.6373221 C151.308691,13.6389839 149.957249,15.0877259 149.959649,17.9828093 L149.97294,34.6815636 C149.975525,37.5539354 151.340811,38.9880903 154.07083,38.9858745 L157.246838,38.9832894 C159.976673,38.9812583 161.340667,37.5445184 161.338268,34.6730698 L161.324607,17.9739463 Z" id="Fill-31" fill="currentColor"></path>
                        <path d="M57.9068484,35.6776429 L57.9016796,29.7065217 C57.9009412,28.7184746 57.8090114,28.0482052 57.6269978,27.6971909 C57.4444305,27.3461766 57.1909775,27.047602 56.8659005,26.7998055 C56.5400851,26.5534861 55.9872142,26.2094884 55.2069186,25.767443 L51.6545154,23.8580063 C51.186375,23.5723571 50.8476377,23.3385937 50.639965,23.1561623 C50.4310001,22.9748387 50.3272561,22.6240091 50.3268869,22.1029347 L50.3231949,17.4588729 C50.3220873,16.3404648 50.8546524,15.7802452 51.9212595,15.7796913 L52.5066196,15.7789527 C53.5990703,15.7780294 54.1456649,16.3371412 54.1465879,17.4557339 L54.1484339,19.914496 L57.8941111,19.911357 L57.8915267,17.1795017 C57.8893116,13.9797504 56.3922221,12.3810749 53.4011813,12.3834753 L51.0602946,12.3847678 C48.0690692,12.3875375 46.5751179,13.9887981 46.5777023,17.1887341 L46.5821326,22.9253533 C46.5826864,23.6543404 46.6609559,24.2459501 46.817495,24.7009208 C46.9742187,25.1564454 47.2278563,25.5270324 47.5791462,25.8126816 C47.9304361,26.0988847 48.4965981,26.4495298 49.2772629,26.864986 L52.8292968,28.8523438 C53.2978065,29.1385469 53.6356207,29.3721257 53.8442164,29.5538185 C54.0520737,29.7360653 54.1563716,30.0872643 54.1572946,30.6074154 L54.1608019,35.3685435 C54.1615403,36.4609163 53.6677408,37.008026 52.6794033,37.0085799 L52.016512,37.0091339 C50.8978484,37.0102418 50.3381473,36.4644246 50.3375935,35.3716825 L50.3361168,33.849451 L46.5908087,33.85259 L46.5922855,35.2575705 C46.5948699,38.6918238 48.091221,40.4071963 51.0826309,40.4051652 L53.3845675,40.4035034 C56.4016366,40.4009183 57.9090635,38.8258777 57.9068484,35.6776429" id="Fill-33" fill="currentColor"></path>
                        <path d="M66.2005025,15.7679292 L67.2146837,15.7671907 C68.3067652,15.7666367 68.8535444,16.3124538 68.854652,17.405196 L68.8618513,26.7320954 L64.5701333,26.735419 L64.5631186,17.408335 C64.5621956,16.3159621 65.1078672,15.7686678 66.2005025,15.7679292 L66.2005025,15.7679292 Z M64.5813938,40.3943264 L64.5732715,30.1307118 L68.8649895,30.1275728 L68.8729272,40.3908181 L72.6186044,40.3876791 L72.59996,17.168109 C72.5977448,13.9678037 71.1001016,12.3687589 68.1096146,12.371344 L65.3002182,12.3741137 C62.3086237,12.3763295 60.814857,13.9768514 60.8170721,17.1773413 L60.8360857,40.3970961 L64.5813938,40.3943264 Z" id="Fill-35" fill="currentColor"></path>
                        <path d="M103.674793,39.2584322 L103.667594,30.0602319 L108.179168,12.3392708 L104.472626,12.3424098 L101.946587,24.5200773 L101.829183,24.5200773 L99.0107411,12.3470259 L95.9174331,12.349611 L95.9172485,12.3492417 L94.5002745,12.350165 C94.5002745,12.350165 95.3204433,12.6382146 95.5526675,13.3034984 L95.6032473,13.4968241 C95.6111851,13.5424319 95.6215225,13.5817618 95.6338906,13.614629 L99.9219166,30.0631863 L99.9304082,40.3655768 L103.675532,40.3626225 L103.675532,40.3618839 L104.767798,40.360776 C104.767798,40.360776 103.825241,40.0304422 103.674793,39.2584322" id="Fill-37" fill="currentColor"></path>
                        <path d="M85.537582,25.5343074 L83.6930792,14.1692722 L81.6154291,28.8520484 L80.9246635,33.8183195 L77.8631063,12.3636073 L74.6621777,12.3661923 L74.6619931,12.3660077 L73.2453883,12.3673002 C73.2453883,12.3673002 74.1613634,12.6893249 74.3306398,13.4388079 L78.7045039,40.3828967 L81.8609444,40.3803117 L83.1525763,40.3795731 L85.537582,25.5343074 Z" id="Fill-39" fill="currentColor"></path>
                        <path d="M48.8483864,47.7168435 L47.3010863,47.7179514 L47.2994249,45.5219422 L48.8465404,45.5208344 C50.2712675,45.5195418 50.2732981,47.7153663 48.8483864,47.7168435 M48.8461712,45.2148739 C48.2225993,45.2154279 47.5927511,45.2156125 46.96881,45.2163511 L46.9723173,49.4979504 L47.3027477,49.4979504 L47.3012709,48.0176338 L48.848571,48.0167106 C50.7076571,48.0150487 50.7052573,45.2132121 48.8461712,45.2148739" id="Fill-41" fill="currentColor"></path>
                        <path d="M51.4599307,47.5615922 L51.4582693,45.5188402 L53.0116612,45.5175476 C53.7210711,45.5169937 54.0640541,46.0364063 54.058147,46.5380927 C54.0524245,47.1374575 53.7227325,47.5597457 52.9767721,47.5602996 L51.4599307,47.5615922 Z M54.419036,46.5438168 C54.4122059,45.8772404 53.9411119,45.2108486 53.0114766,45.2114026 C52.3814437,45.2119565 51.7578718,45.2125105 51.1280236,45.2130644 L51.1315309,49.495033 L51.4615921,49.4946637 L51.4601153,47.8736459 L52.6280666,47.8729073 L54.1096498,49.4926326 L54.5438242,49.4922633 L53.0317823,47.8538887 C53.9675094,47.8531501 54.4256815,47.2412293 54.419036,46.5438168 L54.419036,46.5438168 Z" id="Fill-43" fill="currentColor"></path>
                        <path d="M57.2223037,49.2578721 C56.0052494,49.2586107 55.3933071,48.31691 55.3862924,47.3506512 C55.3792777,46.3413696 55.9902969,45.4478618 57.2193502,45.4469385 C58.448588,45.4458307 59.0607148,46.3566953 59.0616378,47.3475122 C59.0623762,48.3141403 58.4454498,49.2567642 57.2223037,49.2578721 M57.2191656,45.1409781 C55.7759787,45.142086 55.0612154,46.1949444 55.0621384,47.3447425 C55.063246,48.4764452 55.7857624,49.5645711 57.2224883,49.5634632 C58.6597681,49.5621707 59.3743468,48.4788456 59.3795155,47.3536055 C59.3846843,46.1973448 58.662537,45.139501 57.2191656,45.1409781" id="Fill-45" fill="currentColor"></path>
                        <polygon id="Fill-47" fill="currentColor" points="63.1941586 45.2033704 60.3138766 45.2055862 60.3173839 49.4934635 60.6476297 49.4932788 60.6461529 47.5541139 63.1105357 47.5522675 63.1103511 47.2403983 60.6457837 47.2422448 60.6444915 45.5357354 63.1943431 45.5338889"></polygon>
                        <polygon id="Fill-49" fill="currentColor" points="64.4028322 49.1662686 64.40154 47.47767 66.9085649 47.4760082 66.9083803 47.1763258 64.4011708 47.1781722 64.3998786 45.514501 67.0294766 45.5124698 67.0291074 45.2002314 64.07554 45.2026318 64.0790473 49.4846004 67.1060847 49.4820154 67.1059001 49.1640529"></polygon>
                        <path d="M69.6056519,47.1190851 C68.8838738,46.9850313 68.2968523,46.8572554 68.2964831,46.3127308 C68.2959293,45.627505 69.0906236,45.4432271 69.5921762,45.4430425 C70.0750845,45.4485819 70.5766371,45.5218868 70.8889769,46.0230194 L71.1579361,45.8638535 C70.735576,45.2340219 70.2031955,45.1367128 69.5919916,45.1372667 C68.8884888,45.1378207 67.9472238,45.4199616 67.9662374,46.3252868 C67.9667912,47.114469 68.7679463,47.272527 69.5510109,47.4250455 C70.2541445,47.5590994 70.9637391,47.6992466 70.9582011,48.3414496 C70.9587549,49.100165 70.1210494,49.2473288 69.5951298,49.2478827 C69.0690256,49.2480674 68.3965352,48.991777 68.1331139,48.4718105 L67.8396032,48.6189743 C68.1704027,49.273364 68.9287311,49.5479344 69.595499,49.5473805 C70.3110007,49.5468265 71.2830935,49.3138018 71.2884469,48.3471737 C71.2877085,47.4235684 70.4315431,47.2773278 69.6056519,47.1190851" id="Fill-51" fill="currentColor"></path>
                        <path d="M73.6300351,47.1158538 C72.9082571,46.9817999 72.321051,46.8540241 72.3206818,46.3094995 C72.320128,45.6244584 73.1148222,45.4401805 73.6163749,45.4398112 C74.0996523,45.4453506 74.6008358,45.5186555 74.9131755,46.019788 L75.1821348,45.8606221 C74.7599592,45.2307905 74.2275787,45.1334815 73.6160057,45.1342201 C72.912872,45.1345893 71.9712378,45.4167303 71.9902514,46.3220555 C71.9911744,47.1114223 72.7923296,47.2692956 73.5752095,47.4218142 C74.2785277,47.5558681 74.9879377,47.6960153 74.9822152,48.3382183 C74.9831382,49.0969336 74.145248,49.2440974 73.6193284,49.2446514 C73.0934088,49.244836 72.4205493,48.9885457 72.157128,48.4685792 L71.8639864,48.615743 C72.194786,49.2701327 72.9531144,49.5447031 73.619513,49.5441491 C74.3350147,49.5435952 75.3071076,49.3107551 75.3126455,48.3439423 C75.3120917,47.420337 74.4555572,47.2740965 73.6300351,47.1158538" id="Fill-53" fill="currentColor"></path>
                        <polygon id="Fill-55" fill="currentColor" points="76.1668172 45.1929194 76.1703246 49.4747033 76.4941094 49.4745187 76.490602 45.1927347"></polygon>
                        <path d="M79.6924721,49.2398321 C78.4754178,49.2407553 77.8632909,48.2990546 77.8564608,47.3326112 C77.8494461,46.3235142 78.4604653,45.4298218 79.689334,45.4288985 C80.9187564,45.4279753 81.5308832,46.3388399 81.5316216,47.3296568 C81.5325446,48.2962849 80.9154336,49.2387242 79.6924721,49.2398321 M79.6891494,45.1231228 C78.2461471,45.124046 77.5313838,46.1769043 77.5321222,47.3267024 C77.5334144,48.4585898 78.2557462,49.5465311 79.6926567,49.5456079 C81.1299365,49.5441307 81.8445152,48.4608056 81.8496839,47.3355655 C81.8546681,46.1793047 81.1325208,45.1216456 79.6891494,45.1231228" id="Fill-57" fill="currentColor"></path>
                        <polygon id="Fill-59" fill="currentColor" points="85.8113408 45.1851642 85.8141097 48.7270668 82.9310588 45.1877493 82.7903951 45.1877493 82.7939025 49.4695332 83.1239636 49.4691639 83.1213793 45.9335393 86.0103374 49.4669482 86.1390022 49.4667635 86.1354948 45.1849796"></polygon>
                        <path d="M87.7526837,48.1077786 L88.9003292,45.5009294 L90.0518513,48.1059321 L87.7526837,48.1077786 Z M88.7225614,45.1831516 L86.8060653,49.466228 L87.160678,49.4658587 L87.6245727,48.413739 L90.1807007,48.4117079 L90.6523485,49.4632737 L91.0071458,49.463089 L89.0834504,45.1827823 L88.7225614,45.1831516 Z" id="Fill-61" fill="currentColor"></path>
                        <polygon id="Fill-63" fill="currentColor" points="92.1019963 49.150389 92.0986735 45.1802895 91.7684277 45.1806588 91.7719351 49.4624428 94.5115535 49.460227 94.5113689 49.1481732"></polygon>
                        <polygon id="Fill-65" fill="currentColor" points="97.4472148 49.139938 97.4459227 47.451524 99.9533168 47.4494928 99.9529476 47.1499951 97.4457381 47.1520262 97.4442613 45.4883549 100.073859 45.4861392 100.073675 45.1739007 97.1199227 45.1763011 97.12343 49.4582697 100.150467 49.4558693 100.150283 49.1377222"></polygon>
                        <path d="M102.44993,49.1357834 L101.330898,49.1367066 L101.328129,45.4851236 L102.446977,45.4842004 C103.682491,45.4832771 104.270251,46.3695837 104.289264,47.2625375 C104.308278,48.1800495 103.72218,49.1348602 102.44993,49.1357834 M102.446608,45.1719619 C101.963699,45.1723312 101.480791,45.1728852 100.997514,45.1730698 L101.001021,49.4550384 C101.484298,49.4548538 101.967207,49.4542998 102.450115,49.4541152 C103.948497,49.452638 104.6448,48.3510328 104.61951,47.2623529 C104.594405,46.2100485 103.896255,45.1706694 102.446608,45.1719619" id="Fill-67" fill="currentColor"></path>
                        <path d="M108.471091,45.1673088 L108.473306,47.8282596 C108.474599,49.6632835 105.845001,49.6712233 105.843708,47.8301061 L105.841493,45.1691553 L105.517524,45.1695246 L105.519554,47.8304754 C105.5214,50.0750468 108.799306,50.0667377 108.79746,47.8278903 L108.795245,45.1669395 L108.471091,45.1673088 Z" id="Fill-69" fill="currentColor"></path>
                        <path d="M111.82603,49.1895157 C110.590516,49.1902543 109.954022,48.3224125 109.940916,47.3190396 C109.933901,46.2916626 110.575563,45.4099722 111.823076,45.4092336 C112.306169,45.4086796 112.789262,45.5857563 113.156612,45.9526503 L113.382745,45.7567396 C112.954108,45.3287274 112.385362,45.1154599 111.822707,45.1158292 C110.355153,45.1167524 109.609931,46.1878908 109.623038,47.331411 C109.630053,48.4876717 110.383028,49.496584 111.826215,49.4954761 C112.388869,49.4949222 112.957246,49.2801775 113.385144,48.851796 L113.164919,48.6442525 C112.798123,49.0050532 112.308938,49.1889618 111.82603,49.1895157" id="Fill-71" fill="currentColor"></path>
                        <path d="M114.626455,48.0861379 L115.7741,45.4794734 L116.925807,48.0841068 L114.626455,48.0861379 Z M115.596517,45.1613263 L113.679837,49.444772 L114.034449,49.4445874 L114.498529,48.392283 L117.054472,48.3900672 L117.526304,49.4418177 L117.880917,49.441633 L115.957222,45.160957 L115.596517,45.1613263 Z" id="Fill-73" fill="currentColor"></path>
                        <polygon id="Fill-75" fill="currentColor" points="120.97201 45.1631727 117.547718 45.1663117 117.548087 45.4597161 119.095018 45.4586083 119.098156 49.4405251 119.428586 49.4401558 119.425264 45.458239 120.972194 45.4569464"></polygon>
                        <polygon id="Fill-77" fill="currentColor" points="121.755296 45.1564885 121.758803 49.4382724 122.082957 49.4380878 122.07945 45.1563039"></polygon>
                        <path d="M125.281228,49.203235 C124.064173,49.2041583 123.452047,48.2626422 123.445216,47.2961987 C123.438202,46.2871018 124.048852,45.3934093 125.27809,45.3923014 C126.507327,45.3915629 127.119639,46.3022428 127.120377,47.2930597 C127.1213,48.2598725 126.504189,49.2023118 125.281228,49.203235 M125.277905,45.086341 C123.834718,45.0876336 123.119955,46.1404919 123.120878,47.29029 C123.121801,48.4221774 123.844317,49.5103033 125.281412,49.5088261 C126.718323,49.5077183 127.433086,48.4243931 127.43844,47.2989684 C127.443424,46.1428923 126.721092,45.0852331 125.277905,45.086341" id="Fill-79" fill="currentColor"></path>
                        <polygon id="Fill-81" fill="currentColor" points="131.399819 45.1487333 131.402588 48.6906359 128.519537 45.1511337 128.378874 45.1511337 128.382381 49.4331023 128.712442 49.432733 128.709673 45.8972931 131.598816 49.4305173 131.727481 49.4303326 131.723973 45.1485487"></polygon>
                        <polygon id="Fill-83" fill="currentColor" points="137.760419 45.1498227 134.336127 45.1525924 134.336312 45.4461815 135.883427 45.4452583 135.886565 49.4271751 136.216811 49.4269905 136.213673 45.444889 137.760604 45.4435964"></polygon>
                        <path d="M138.875852,47.4916293 L138.874191,45.4488773 L140.427398,45.4475848 C141.136808,45.4470309 141.479607,45.9664434 141.474069,46.4681299 C141.468346,47.0674947 141.138285,47.4897829 140.392325,47.4903368 L138.875852,47.4916293 Z M141.834958,46.4740386 C141.828128,45.8074622 141.356664,45.1408858 140.427029,45.1414398 C139.797365,45.1419937 139.173424,45.1425476 138.543761,45.1431016 L138.547083,49.4250702 L138.877514,49.4248855 L138.876037,47.8038677 L140.043988,47.8029445 L141.525202,49.4224851 L141.959377,49.4223005 L140.447704,47.7841105 C141.383246,47.7831873 141.841234,47.1714511 141.834958,46.4740386 L141.834958,46.4740386 Z" id="Fill-85" fill="currentColor"></path>
                        <path d="M143.169638,48.0632417 L144.317283,45.4565771 L145.46899,48.0613952 L143.169638,48.0632417 Z M144.1397,45.1386147 L142.223019,49.4218758 L142.577632,49.4216911 L143.041711,48.3692021 L145.597839,48.3673556 L146.069487,49.4189214 L146.4241,49.4185521 L144.500405,45.1382454 L144.1397,45.1386147 Z" id="Fill-87" fill="currentColor"></path>
                        <polygon id="Fill-89" fill="currentColor" points="147.063049 45.1361219 147.066556 49.4179059 147.39071 49.4177212 147.387203 45.1359373"></polygon>
                        <polygon id="Fill-91" fill="currentColor" points="151.509091 45.1326875 151.51186 48.6745901 148.628809 45.1350879 148.488145 45.1350879 148.491652 49.4168718 148.821714 49.4166872 148.819129 45.8810626 151.708087 49.4144714 151.836752 49.4141021 151.833245 45.1325028"></polygon>
                        <polygon id="Fill-93" fill="currentColor" points="152.94685 45.1316165 152.950358 49.4134005 153.274143 49.4132158 153.270635 45.1312472"></polygon>
                        <polygon id="Fill-95" fill="currentColor" points="157.392615 45.1281821 157.395569 48.6700847 154.512333 45.1303979 154.37167 45.1305825 154.375177 49.4123664 154.705423 49.4121818 154.702469 45.8765572 157.591981 49.4095967 157.720092 49.4095967 157.716585 45.1278128"></polygon>
                        <path d="M160.629928,47.1684967 L160.630113,47.4561771 L162.122218,47.4546999 L162.123141,48.6536142 C161.756345,48.9905953 161.279529,49.1497612 160.820987,49.1501305 C159.57329,49.1510537 158.930704,48.2832119 158.929966,47.2737456 C158.922951,46.2829288 159.564244,45.3648629 160.818034,45.3641243 C161.301127,45.363755 161.821139,45.5463711 162.194396,45.9132651 L162.383609,45.7051677 C161.94925,45.2773401 161.380134,45.0638879 160.817664,45.0642572 C159.515141,45.0649958 158.604704,45.9405928 158.611903,47.2802083 C158.612826,48.4486558 159.365801,49.4632921 160.821172,49.4619996 C161.457112,49.4614457 161.989123,49.2166035 162.435112,48.7695726 L162.43382,47.1668349 L160.629928,47.1684967 Z" id="Fill-97" fill="currentColor"></path>
                    </g>
                </g>
            </g>
        </g>
    </g>
</svg>