<?xml version="1.0" encoding="UTF-8"?>
<svg width="100px" height="100px" viewBox="0 0 100 100" version="1.1" xmlns="http://www.w3.org/2000/svg" xmlns:xlink="http://www.w3.org/1999/xlink">
    <!-- Generator: Sketch 55 (78076) - https://sketchapp.com -->
    <title>courselogo-cfa</title>
    <desc>Created with Sketch.</desc>
    <defs>
        <polygon id="path-1" points="2.83405483 1.41991342 27.5728716 1.41991342 27.5728716 46.002886 2.83405483 46.002886"></polygon>
        <polygon id="path-3" points="0.173160173 1.25252525 44.6984127 1.25252525 44.6984127 41.6883117 0.173160173 41.6883117"></polygon>
    </defs>
    <g id="courselogo-cfa" stroke="none" stroke-width="1" fill="none" fill-rule="evenodd">
        <g id="cfa_institute_cmyk" transform="translate(1.000000, 0.000000)">
            <path d="M63.015873,2.15295815 C61.4487734,1.68253968 59.8441558,1.2987013 58.2222222,0.98989899 L57.7748918,0.903318903 L51.6738817,45.6161616 L58,41.8268398 L58.020202,41.6161616 L63.3650794,2.25685426 L63.015873,2.15295815" id="Fill-1" fill="#5670A8"></path>
            <path d="M67.8066378,3.84992785 L67.2871573,3.63636364 L62.4646465,39.1515152 L68.7445887,35.3881674 L68.7792208,35.1832612 L72.7070707,6.21067821 L72.4502165,6.06926407 C70.9437229,5.24675325 69.3910534,4.51082251 67.8066378,3.84992785" id="Fill-2" fill="#5670A8"></path>
            <path d="M81.6190476,12.5541126 C80.1760462,11.2669553 78.6551227,10.0634921 77.0764791,8.95238095 L76.4906205,8.54834055 L73.2150072,32.7099567 L79.5930736,28.8917749 L79.6219336,28.6839827 L81.7922078,12.7099567 L81.6190476,12.5541126" id="Fill-3" fill="#5670A8"></path>
            <path d="M21.2813853,8.82251082 L20.975469,9.03896104 C19.6277056,9.98556999 18.3318903,11.001443 17.0880231,12.0779221 L16.7445887,12.3780664 L47.6392496,45.0562771 L48.6435786,37.7200577 L48.4992785,37.5670996 L21.2813853,8.82251082" id="Fill-4" fill="#1585BB"></path>
            <path d="M30.1616162,3.92784993 L29.8874459,4.04617605 C28.3059163,4.72150072 26.7705628,5.48917749 25.2813853,6.32034632 L24.7907648,6.58874459 L49.3506494,32.5252525 L50.3463203,25.2380952 L50.2049062,25.0880231 L30.1616162,3.92784993" id="Fill-5" fill="#1585BB"></path>
            <path d="M51.9249639,12.4906205 L40.8686869,0.81962482 L40.6435786,0.857142857 C38.7243867,1.19480519 36.8484848,1.63924964 35.010101,2.19047619 L34.3318903,2.3953824 L51.0533911,20.049062 L52.0663781,12.6435786 L51.9249639,12.4906205" id="Fill-6" fill="#1585BB"></path>
            <path d="M97.3939394,40.8427128 C97.0909091,39.1370851 96.6984127,37.4545455 96.2308802,35.8066378 L96.0750361,35.2669553 L65.5064935,53.6046176 L72.3318903,56.2106782 L72.5108225,56.1038961 L97.4458874,41.1399711 L97.3939394,40.8427128" id="Fill-7" fill="#009D76"></path>
            <path d="M94.5685426,30.966811 C93.9451659,29.4285714 93.2525253,27.9278499 92.4877345,26.4704185 L92.2741703,26.0663781 L53.7518038,49.1399711 L60.6378066,51.7604618 L60.8167388,51.6507937 L94.7041847,31.3131313 L94.5685426,30.966811" id="Fill-8" fill="#009D76"></path>
            <path d="M98.049062,46.2857143 L98.002886,45.5786436 L77.2034632,58.0577201 L84.1471861,60.6984127 L84.3232323,60.5945166 L98.0952381,52.3347763 L98.1038961,52.0981241 C98.1414141,51.2611833 98.1645022,50.4213564 98.1645022,49.5757576 C98.1645022,48.4646465 98.1212121,47.3679654 98.049062,46.2857143" id="Fill-9" fill="#009D76"></path>
            <path d="M30.4877345,81.5036075 L30.5541126,81.7056277 L35.4805195,97.0562771 L35.7056277,97.1226551 C37.5497835,97.6450216 39.4314574,98.0663781 41.3535354,98.3751804 L42.049062,98.4848485 L34.5916306,75.2756133 L30.4877345,81.5036075" id="Fill-10" fill="#009D76"></path>
            <g id="Group-14" transform="translate(34.632035, 52.813853)">
                <mask id="mask-2" fill="white">
                    <use xlink:href="#path-1"></use>
                </mask>
                <g id="Clip-12"></g>
                <path d="M13.8095238,1.41991342 L9.74025974,7.6017316 L9.80663781,7.7950938 L21.9451659,45.5959596 L22.3145743,45.5411255 C23.950938,45.2727273 25.5555556,44.9235209 27.1284271,44.5050505 L27.5728716,44.3838384 L13.8095238,1.41991342" id="Fill-11" fill="#009D76" mask="url(#mask-2)"></path>
                <path d="M2.83405483,18.0952381 L2.89466089,18.2886003 L11.8326118,46.1067821 L12.1298701,46.1212121 C12.8946609,46.1529582 13.6565657,46.1760462 14.4329004,46.1760462 C15.3852814,46.1760462 16.3261183,46.1500722 17.2640693,46.0923521 L17.8210678,46.0606061 L6.86868687,11.962482 L2.83405483,18.0952381" id="Fill-13" fill="#009D76" mask="url(#mask-2)"></path>
            </g>
            <path d="M12.6926407,54.8340548 L12.5743146,55.012987 L3.72294372,68.4790765 L3.80952381,68.6926407 C4.56277056,70.4906205 5.42279942,72.2222222 6.36363636,73.9018759 L6.71572872,74.5165945 L20.0779221,54.1789322 L12.6926407,54.8340548" id="Fill-15" fill="#5670A8"></path>
            <path d="M37.7142857,52.6204906 L37.6017316,52.7936508 L15.8326118,85.9249639 L16.1096681,86.1731602 C17.3246753,87.2813853 18.5916306,88.3347763 19.9191919,89.3160173 L20.2828283,89.5844156 L45.0505051,51.97114 L37.7142857,52.6204906" id="Fill-16" fill="#5670A8"></path>
            <g id="Group-20" transform="translate(0.000000, 41.269841)">
                <mask id="mask-4" fill="white">
                    <use xlink:href="#path-3"></use>
                </mask>
                <g id="Clip-18"></g>
                <path d="M25.2640693,12.4559885 L25.1515152,12.6291486 L9.13419913,36.992785 L9.31024531,37.2438672 C10.3116883,38.6435786 11.3823954,39.991342 12.5281385,41.2756133 L12.8975469,41.6883117 L32.5367965,11.8095238 L25.2640693,12.4559885" id="Fill-17" fill="#5670A8" mask="url(#mask-4)"></path>
                <path d="M39.6161616,1.25252525 L39.4112554,1.26984127 L0.124098124,4.77922078 L0.106782107,5.15728716 C0.0432900433,6.17893218 0,7.21789322 0,8.26839827 C0,8.89177489 0.0202020202,9.5036075 0.0404040404,10.1096681 L0.0577200577,10.5685426 L44.6984127,6.61760462 L39.6161616,1.25252525" id="Fill-19" fill="#009D76" mask="url(#mask-4)"></path>
            </g>
            <path d="M22.2886003,24.1933622 L22.0836941,24.2106782 L6.10966811,25.6392496 L6.00577201,25.8412698 C5.08225108,27.5382395 4.26839827,29.2987013 3.53823954,31.1053391 L3.28138528,31.7575758 L27.4083694,29.6046176 L22.2886003,24.1933622" id="Fill-21" fill="#009D76"></path>
            <path d="M30.995671,33.3997114 L30.7907648,33.4170274 L1.87878788,36.005772 L1.7979798,36.2857143 C1.33910534,37.9422799 0.96969697,39.6248196 0.683982684,41.3391053 L0.591630592,41.8903319 L36.031746,38.7243867 L30.995671,33.3997114" id="Fill-22" fill="#009D76"></path>
            <path d="M52.3145743,52.978355 L54.5743146,60.02886 L54.7705628,60.1010101 L91.6854257,74.1067821 L91.8643579,73.7806638 C92.6666667,72.3434343 93.4025974,70.8658009 94.0606061,69.3419913 L94.2453102,68.9235209 L52.3145743,52.978355" id="Fill-23" fill="#1585BB"></path>
            <path d="M58.4098124,72.008658 L58.6089466,72.0836941 L85.7604618,82.3867244 L85.962482,82.1616162 C87.0880231,80.8658009 88.1500722,79.5093795 89.1399711,78.1067821 L89.4632035,77.6479076 L56.1673882,65.015873 L58.4098124,72.008658" id="Fill-24" fill="#1585BB"></path>
            <path d="M62.2886003,84.1125541 L62.4848485,84.1875902 L77.4689755,89.8701299 L77.6565657,89.7373737 C79.2236652,88.6002886 80.7330447,87.3881674 82.1587302,86.0779221 L82.6782107,85.5988456 L60.01443,77.001443 L62.2886003,84.1125541" id="Fill-25" fill="#1585BB"></path>
        </g>
    </g>
</svg>