<?xml version="1.0" encoding="UTF-8"?>
<svg width="100px" height="100px" viewBox="0 0 100 100" version="1.1" xmlns="http://www.w3.org/2000/svg" xmlns:xlink="http://www.w3.org/1999/xlink">
    <!-- Generator: Sketch 55 (78076) - https://sketchapp.com -->
    <title>courselogo-csc</title>
    <desc>Created with Sketch.</desc>
    <defs>
        <path d="M32.662069,58.9517241 C31.1172337,58.9517241 29.765523,58.7126461 28.6068966,58.2344828 C27.4482701,57.7563194 26.4873601,57.0988548 25.7241379,56.262069 C24.9609157,55.4252832 24.3908065,54.441385 24.0137931,53.3103448 C23.6367797,52.1793047 23.4482759,50.9609261 23.4482759,49.6551724 C23.4482759,48.5701095 23.6367797,47.4758676 24.0137931,46.3724138 C24.3908065,45.26896 24.9609157,44.2712688 25.7241379,43.3793103 C26.4873601,42.4873519 27.4482701,41.7609223 28.6068966,41.2 C29.765523,40.6390777 31.1172337,40.3586207 32.662069,40.3586207 C33.2689686,40.3586207 33.8252848,40.3724137 34.3310345,40.4 C34.8367841,40.4275863 35.3195379,40.4735629 35.7793103,40.537931 C36.2390828,40.6022992 36.689653,40.685057 37.1310345,40.7862069 C37.572416,40.8873568 38.0321815,41.0022982 38.5103448,41.1310345 C38.5287357,41.6275887 38.5931029,42.2344792 38.7034483,42.9517241 C38.8137937,43.6689691 38.9609186,44.3953986 39.1448276,45.1310345 C38.9977004,45.2045981 38.8505754,45.2413793 38.7034483,45.2413793 C38.5563211,45.2413793 38.4229891,45.2229887 38.3034483,45.1862069 C38.1839074,45.1494251 38.1057473,45.0482767 38.0689655,44.8827586 C37.7379294,43.6689594 37.2137967,42.8046003 36.4965517,42.2896552 C35.7793068,41.7747101 34.7402367,41.5172414 33.3793103,41.5172414 C32.2390748,41.5172414 31.2321883,41.7011476 30.3586207,42.0689655 C29.4850531,42.4367834 28.7494283,42.9517208 28.1517241,43.6137931 C27.55402,44.2758654 27.1034498,45.0712597 26.8,46 C26.4965502,46.9287403 26.3448276,47.9632127 26.3448276,49.1034483 C26.3448276,50.3724201 26.5379291,51.5402246 26.9241379,52.6068966 C27.3103468,53.6735686 27.8298818,54.5930996 28.4827586,55.3655172 C29.1356354,56.1379349 29.8988462,56.7356301 30.7724138,57.1586207 C31.6459814,57.5816113 32.5793054,57.7931034 33.5724138,57.7931034 C34.3632223,57.7931034 35.0298823,57.7149433 35.5724138,57.5586207 C36.1149452,57.4022981 36.5655154,57.177013 36.9241379,56.8827586 C37.2827604,56.5885043 37.5862057,56.2252895 37.8344828,55.7931034 C38.0827599,55.3609174 38.3172403,54.8689683 38.537931,54.3172414 C38.6666673,54.0413779 38.8873548,53.9034483 39.2,53.9034483 C39.2919545,53.9034483 39.3885052,53.9172412 39.4896552,53.9448276 C39.5908051,53.9724139 39.6689652,54.0045975 39.7241379,54.0413793 C39.5034472,54.6850607 39.2827597,55.3930996 39.062069,56.1655172 C38.8413782,56.9379349 38.657472,57.710341 38.5103448,58.4827586 C37.6091909,58.6298858 36.6896599,58.7448272 35.7517241,58.8275862 C34.8137884,58.9103452 33.7839137,58.9517241 32.662069,58.9517241 Z M53.7103448,45.0206897 C53.5264359,45.0574714 53.3885062,45.0758621 53.2965517,45.0758621 C53.0574701,45.0758621 52.8827592,45.0298855 52.7724138,44.937931 C52.6620684,44.8459766 52.5793106,44.7448281 52.5241379,44.6344828 C52.0459746,43.5862017 51.4758654,42.8229909 50.8137931,42.3448276 C50.1517208,41.8666643 49.2505804,41.6275862 48.1103448,41.6275862 C47.6689633,41.6275862 47.2505767,41.6873557 46.8551724,41.8068966 C46.4597681,41.9264374 46.114944,42.1011483 45.8206897,42.3310345 C45.5264353,42.5609207 45.2919549,42.8413777 45.1172414,43.1724138 C44.9425279,43.5034499 44.8551724,43.8712623 44.8551724,44.2758621 C44.8551724,45.1402342 45.2183872,45.8482731 45.9448276,46.4 C46.671268,46.9517269 47.7425217,47.5126408 49.1586207,48.0827586 C50.9241468,48.7816127 52.2252832,49.5586164 53.062069,50.4137931 C53.8988548,51.2689698 54.3172414,52.3218328 54.3172414,53.5724138 C54.3172414,54.3264406 54.2023,55.0298818 53.9724138,55.6827586 C53.7425276,56.3356354 53.3839105,56.9057447 52.8965517,57.3931034 C52.409193,57.8804622 51.7793142,58.2620676 51.0068966,58.537931 C50.2344789,58.8137945 49.3057526,58.9517241 48.2206897,58.9517241 C47.0804541,58.9517241 46.0459817,58.8321851 45.1172414,58.5931034 C44.1885011,58.3540218 43.4023021,58.0413812 42.7586207,57.6551724 C42.703448,56.8827548 42.6206902,56.1379346 42.5103448,55.4206897 C42.3999994,54.7034447 42.2712651,53.9862105 42.1241379,53.2689655 C42.2528742,53.2137928 42.4091945,53.1862069 42.5931034,53.1862069 C42.8137942,53.1862069 42.9839074,53.2367811 43.1034483,53.337931 C43.2229891,53.439081 43.3287352,53.5999989 43.4206897,53.8206897 C43.8804621,55.1448342 44.4735596,56.1195371 45.2,56.7448276 C45.9264404,57.3701181 46.9425222,57.6827586 48.2482759,57.6827586 C48.8367846,57.6827586 49.3517219,57.6000008 49.7931034,57.4344828 C50.234485,57.2689647 50.6022974,57.0390819 50.8965517,56.7448276 C51.1908061,56.4505732 51.4114935,56.1195421 51.5586207,55.7517241 C51.7057479,55.3839062 51.7793103,54.9885079 51.7793103,54.5655172 C51.7793103,53.6091906 51.4528768,52.8551752 50.8,52.3034483 C50.1471232,51.7517214 49.2137992,51.2551746 48,50.8137931 C47.2091914,50.5195388 46.4919572,50.2114959 45.8482759,49.8896552 C45.2045945,49.5678145 44.6528759,49.1954044 44.1931034,48.7724138 C43.733331,48.3494232 43.3793116,47.8574741 43.1310345,47.2965517 C42.8827574,46.7356294 42.7586207,46.0689694 42.7586207,45.2965517 C42.7586207,44.6160886 42.8827574,43.9770145 43.1310345,43.3793103 C43.3793116,42.7816062 43.7379287,42.2620712 44.2068966,41.8206897 C44.6758644,41.3793081 45.241376,41.0298863 45.9034483,40.7724138 C46.5655206,40.5149412 47.3103407,40.3862069 48.137931,40.3862069 C49.0023032,40.3862069 49.8298811,40.4689647 50.6206897,40.6344828 C51.4114982,40.8000008 52.3034433,41.0758601 53.2965517,41.462069 C53.3333335,42.0137959 53.3839077,42.6068934 53.4482759,43.2413793 C53.512644,43.8758652 53.5999994,44.4689628 53.7103448,45.0206897 Z M66.3448276,58.9517241 C64.7999923,58.9517241 63.4482817,58.7126461 62.2896552,58.2344828 C61.1310287,57.7563194 60.1701188,57.0988548 59.4068966,56.262069 C58.6436743,55.4252832 58.0735651,54.441385 57.6965517,53.3103448 C57.3195383,52.1793047 57.1310345,50.9609261 57.1310345,49.6551724 C57.1310345,48.5701095 57.3195383,47.4758676 57.6965517,46.3724138 C58.0735651,45.26896 58.6436743,44.2712688 59.4068966,43.3793103 C60.1701188,42.4873519 61.1310287,41.7609223 62.2896552,41.2 C63.4482817,40.6390777 64.7999923,40.3586207 66.3448276,40.3586207 C66.9517272,40.3586207 67.5080434,40.3724137 68.0137931,40.4 C68.5195428,40.4275863 69.0022966,40.4735629 69.462069,40.537931 C69.9218414,40.6022992 70.3724116,40.685057 70.8137931,40.7862069 C71.2551746,40.8873568 71.7149401,41.0022982 72.1931034,41.1310345 C72.2114943,41.6275887 72.2758615,42.2344792 72.3862069,42.9517241 C72.4965523,43.6689691 72.6436772,44.3953986 72.8275862,45.1310345 C72.680459,45.2045981 72.5333341,45.2413793 72.3862069,45.2413793 C72.2390797,45.2413793 72.1057477,45.2229887 71.9862069,45.1862069 C71.8666661,45.1494251 71.7885059,45.0482767 71.7517241,44.8827586 C71.420688,43.6689594 70.8965553,42.8046003 70.1793103,42.2896552 C69.4620654,41.7747101 68.4229953,41.5172414 67.062069,41.5172414 C65.9218334,41.5172414 64.9149469,41.7011476 64.0413793,42.0689655 C63.1678117,42.4367834 62.4321869,42.9517208 61.8344828,43.6137931 C61.2367786,44.2758654 60.7862084,45.0712597 60.4827586,46 C60.1793088,46.9287403 60.0275862,47.9632127 60.0275862,49.1034483 C60.0275862,50.3724201 60.2206877,51.5402246 60.6068966,52.6068966 C60.9931054,53.6735686 61.5126404,54.5930996 62.1655172,55.3655172 C62.8183941,56.1379349 63.5816048,56.7356301 64.4551724,57.1586207 C65.32874,57.5816113 66.262064,57.7931034 67.2551724,57.7931034 C68.045981,57.7931034 68.712641,57.7149433 69.2551724,57.5586207 C69.7977039,57.4022981 70.2482741,57.177013 70.6068966,56.8827586 C70.965519,56.5885043 71.2689643,56.2252895 71.5172414,55.7931034 C71.7655185,55.3609174 71.9999989,54.8689683 72.2206897,54.3172414 C72.3494259,54.0413779 72.5701134,53.9034483 72.8827586,53.9034483 C72.9747131,53.9034483 73.0712639,53.9172412 73.1724138,53.9448276 C73.2735637,53.9724139 73.3517239,54.0045975 73.4068966,54.0413793 C73.1862058,54.6850607 72.9655183,55.3930996 72.7448276,56.1655172 C72.5241368,56.9379349 72.3402306,57.710341 72.1931034,58.4827586 C71.2919495,58.6298858 70.3724185,58.7448272 69.4344828,58.8275862 C68.496547,58.9103452 67.4666723,58.9517241 66.3448276,58.9517241 Z" id="path-1"></path>
        <filter x="-3.0%" y="-8.1%" width="110.0%" height="132.3%" filterUnits="objectBoundingBox" id="filter-2">
            <feOffset dx="2" dy="3" in="SourceAlpha" result="shadowOffsetOuter1"></feOffset>
            <feColorMatrix values="0 0 0 0 0   0 0 0 0 0   0 0 0 0 0  0 0 0 0.5 0" type="matrix" in="shadowOffsetOuter1"></feColorMatrix>
        </filter>
    </defs>
    <g id="courselogo-csc" stroke="none" stroke-width="1" fill="none" fill-rule="evenodd">
        <g id="Group-2">
            <g id="CSI_2C_POS_LRG">
                <path d="M14.8937931,68.5655172 C11.8303448,62.9468966 10.0862069,56.5055172 10.0862069,49.6551724 C10.0862069,27.802069 27.802069,10.0862069 49.6551724,10.0862069 C60.9655172,10.0862069 71.1689655,14.8289655 78.3806897,22.437931 C79.2193103,23.3848276 80.0206897,24.3793103 80.78,25.4234483 C93.5772414,43.0386207 89.6724138,67.6924138 72.057931,80.4903448 C54.4434483,93.2882759 29.7889655,89.3834483 16.9910345,71.7689655 C16.2324138,70.7248276 15.5351724,69.6551724 14.8937931,68.5655172" id="Fill-2" fill="#D02139"></path>
                <path d="M81.6668966,26.3965517 C80.6441379,24.9889655 79.5448276,23.6689655 78.3806897,22.437931 C78.9034483,23.0703448 79.4117241,23.7213793 79.9006897,24.3937931 C92.6641379,41.962069 88.7703448,66.5503448 71.2027586,79.3131034 C53.6358621,92.0772414 29.0475862,88.182069 16.2834483,70.6151724 C15.7944828,69.942069 15.3337931,69.257931 14.8937931,68.5655172 C15.7048276,70.0531034 16.6206897,71.5062069 17.6427586,72.9137931 C30.4882759,90.5924138 55.2337931,94.5124138 72.9137931,81.6675862 C90.5931034,68.8227586 94.5124138,44.0772414 81.6668966,26.3965517" id="Fill-3" fill="#5A1913"></path>
                <path d="M84.4972414,14.5393103 C84.5724138,14.4634483 84.6965517,14.4634483 84.7717241,14.5386207 C86.5813793,16.3524138 88.2731034,18.3303448 89.8268966,20.4689655 C105.946207,42.6551724 101.027586,73.7082759 78.8413793,89.8268966 C56.6551724,105.946207 25.6027586,101.027586 9.48344828,78.8413793 C7.93034483,76.7041379 6.57241379,74.4841379 5.40689655,72.2034483 C5.35793103,72.1082759 5.39586207,71.9896552 5.49172414,71.9413793 C5.58758621,71.8937931 5.7,71.9337931 5.7537931,72.0268966 C6.60275862,73.4937931 7.53655172,74.9317241 8.55448276,76.3337931 C24.44,98.1972414 55.0406897,103.044138 76.9034483,87.1593103 C98.7675862,71.2744828 103.613103,40.6737931 87.7289655,18.8103448 C86.7096552,17.4082759 85.6303448,16.0758621 84.4972414,14.8144828 C84.4262069,14.7358621 84.422069,14.6158621 84.4972414,14.5393103" id="Fill-4" fill="#5A1913"></path>
                <path d="M20.1737931,10.1772414 C20.0468966,10.0041379 20.0862069,9.76137931 20.2593103,9.63517241 L20.6772414,9.33103448 C20.8510345,9.20551724 21.0937931,9.24344828 21.2193103,9.41655172 L22.5875862,11.3 C22.7137931,11.4737931 22.6751724,11.7158621 22.5013793,11.842069 L22.0841379,12.1455172 C21.9103448,12.2724138 21.6675862,12.2331034 21.5413793,12.06 L20.1737931,10.1772414" id="Fill-5" fill="#5A1913"></path>
                <path d="M15.4268966,14.2131034 C15.28,14.0572414 15.2875862,13.8117241 15.4441379,13.6655172 L15.8206897,13.3110345 C15.9765517,13.1641379 16.2213793,13.1717241 16.3682759,13.3268966 L17.9634483,15.0227586 C18.1103448,15.1793103 18.1034483,15.4241379 17.9468966,15.5710345 L17.5703448,15.9255172 C17.4137931,16.0724138 17.1682759,16.0648276 17.022069,15.9089655 L15.4268966,14.2131034" id="Fill-6" fill="#5A1913"></path>
                <path d="M11.2282759,18.8165517 C11.062069,18.68 11.0386207,18.4351724 11.1758621,18.2703448 L11.5048276,17.8717241 C11.6406897,17.7055172 11.8848276,17.6827586 12.0503448,17.8186207 L13.8468966,19.2993103 C14.0117241,19.4358621 14.0358621,19.6793103 13.8993103,19.8448276 L13.5703448,20.2441379 C13.4337931,20.4096552 13.1896552,20.4337931 13.0241379,20.2972414 L11.2282759,18.8165517" id="Fill-7" fill="#5A1913"></path>
                <path d="M7.64344828,23.9131034 C7.46137931,23.797931 7.40758621,23.5586207 7.52275862,23.377931 L7.79862069,22.9406897 C7.91310345,22.7586207 8.15172414,22.7048276 8.3337931,22.8193103 L10.3013793,24.0613793 C10.4834483,24.1758621 10.5372414,24.4137931 10.4227586,24.5958621 L10.1468966,25.0337931 C10.0324138,25.2144828 9.79310345,25.2696552 9.61172414,25.1551724 L7.64344828,23.9131034" id="Fill-8" fill="#5A1913"></path>
                <path d="M4.73034483,29.42 C4.53586207,29.3289655 4.45172414,29.0986207 4.54344828,28.9048276 L4.76137931,28.4358621 C4.85172414,28.2413793 5.08275862,28.157931 5.27724138,28.2482759 L7.38689655,29.2324138 C7.58068966,29.3227586 7.66482759,29.5531034 7.5737931,29.7475862 L7.35586207,30.2172414 C7.26551724,30.4110345 7.03448276,30.4944828 6.84,30.4041379 L4.73034483,29.42" id="Fill-9" fill="#5A1913"></path>
                <path d="M2.53655172,35.2510345 C2.33172414,35.1862069 2.22,34.9675862 2.28551724,34.7641379 L2.44275862,34.2710345 C2.50827586,34.0668966 2.7262069,33.9544828 2.93034483,34.0193103 L5.14758621,34.7296552 C5.35172414,34.7951724 5.46344828,35.0131034 5.39862069,35.2172414 L5.24137931,35.7096552 C5.17517241,35.9137931 4.95655172,36.0262069 4.7537931,35.9613793 L2.53655172,35.2510345" id="Fill-10" fill="#5A1913"></path>
                <path d="M1.09517241,41.3124138 C0.883448276,41.2744828 0.744827586,41.0717241 0.785517241,40.8613793 L0.87862069,40.3524138 C0.917241379,40.1413793 1.12,40.0027586 1.33103448,40.0413793 L3.61931034,40.4662069 C3.83034483,40.5048276 3.96965517,40.7068966 3.93034483,40.9186207 L3.83586207,41.4262069 C3.79724138,41.6372414 3.59517241,41.7765517 3.38344828,41.7372414 L1.09517241,41.3124138" id="Fill-11" fill="#5A1913"></path>
                <path d="M0.430344828,47.5075862 C0.215862069,47.4958621 0.0531034483,47.3124138 0.0662068966,47.0993103 L0.0951724138,46.582069 C0.106206897,46.3675862 0.289655172,46.2048276 0.503448276,46.2165517 L2.82827586,46.3489655 C3.04137931,46.3613793 3.20482759,46.5441379 3.19310345,46.7586207 L3.16413793,47.2751724 C3.15172414,47.4882759 2.96896552,47.6524138 2.75448276,47.6393103 L0.430344828,47.5075862" id="Fill-12" fill="#5A1913"></path>
                <path d="M0.553103448,53.7365517 C0.339310345,53.7524138 0.154482759,53.5910345 0.14,53.377931 L0.103448276,52.8606897 C0.0875862069,52.6468966 0.248965517,52.462069 0.462758621,52.4468966 L2.78551724,52.2855172 C2.99862069,52.2696552 3.18413793,52.4310345 3.19931034,52.6455172 L3.23517241,53.1613793 C3.25034483,53.3744828 3.08896552,53.56 2.87517241,53.5744828 L0.553103448,53.7365517" id="Fill-13" fill="#5A1913"></path>
                <path d="M1.46,59.9 C1.24965517,59.9434483 1.04689655,59.8075862 1.0062069,59.5972414 L0.904137931,59.0889655 C0.862068966,58.8786207 0.997931034,58.6744828 1.20827586,58.6331034 L3.49103448,58.1786207 C3.70137931,58.1372414 3.9062069,58.2737931 3.94827586,58.4848276 L4.04896552,58.9910345 C4.09103448,59.2013793 3.95448276,59.4055172 3.74344828,59.4462069 L1.46,59.9" id="Fill-14" fill="#5A1913"></path>
                <path d="M3.13862069,65.9006897 C2.93586207,65.9696552 2.71655172,65.86 2.64965517,65.6572414 L2.48413793,65.1655172 C2.41586207,64.962069 2.52551724,64.7427586 2.72896552,64.6751724 L4.93655172,63.9372414 C5.14,63.8682759 5.35931034,63.9786207 5.42758621,64.182069 L5.59172414,64.6717241 C5.65931034,64.8744828 5.55034483,65.0951724 5.3462069,65.162069 L3.13862069,65.9006897" id="Fill-15" fill="#5A1913"></path>
                <path d="M25.3910345,6.77241379 C25.2875862,6.58413793 25.3572414,6.34827586 25.5448276,6.2462069 L25.997931,5.99655172 C26.1862069,5.8937931 26.422069,5.96275862 26.5248276,6.15034483 L27.6441379,8.19103448 C27.7468966,8.37862069 27.6793103,8.6137931 27.4903448,8.71793103 L27.0372414,8.96689655 C26.8496552,9.06965517 26.6137931,9.00068966 26.5103448,8.81310345 L25.3910345,6.77241379" id="Fill-16" fill="#5A1913"></path>
                <path d="M30.9965517,4.05310345 C30.917931,3.8537931 31.0165517,3.62896552 31.2158621,3.55034483 L31.6965517,3.36068966 C31.8965517,3.28206897 32.1213793,3.37931034 32.1993103,3.57931034 L33.0531034,5.74482759 C33.1317241,5.94413793 33.0337931,6.16896552 32.8337931,6.24827586 L32.3531034,6.43793103 C32.1537931,6.51655172 31.9289655,6.41862069 31.8503448,6.21931034 L30.9965517,4.05310345" id="Fill-17" fill="#5A1913"></path>
                <path d="M36.9006897,2.06275862 C36.8482759,1.85517241 36.9731034,1.64482759 37.1813793,1.59172414 L37.6827586,1.46413793 C37.8903448,1.41172414 38.1006897,1.53655172 38.1537931,1.74482759 L38.7268966,4.00137931 C38.7793103,4.20896552 38.6544828,4.41931034 38.4468966,4.47172414 L37.9455172,4.6 C37.737931,4.65241379 37.5268966,4.52758621 37.4737931,4.32 L36.9006897,2.06275862" id="Fill-18" fill="#5A1913"></path>
                <path d="M43.0089655,0.833793103 C42.982069,0.62137931 43.1337931,0.428275862 43.3462069,0.40137931 L43.86,0.33862069 C44.0731034,0.312413793 44.2655172,0.464137931 44.2924138,0.676551724 L44.5758621,2.98758621 C44.602069,3.2 44.4510345,3.39310345 44.2386207,3.41931034 L43.7241379,3.48206897 C43.5124138,3.50896552 43.3193103,3.35793103 43.2917241,3.14482759 L43.0089655,0.833793103" id="Fill-19" fill="#5A1913"></path>
                <path d="M49.2227586,0.386206897 C49.2234483,0.171724138 49.3986207,-0.00137931034 49.6131034,1.69406589e-21 L50.1303448,0.00206896552 C50.3448276,0.00275862069 50.5165517,0.177931034 50.5158621,0.391724138 L50.5055172,2.71931034 C50.5048276,2.9337931 50.3310345,3.1062069 50.1165517,3.10551724 L49.5986207,3.10344828 C49.3841379,3.10275862 49.2117241,2.92827586 49.2124138,2.71448276 L49.2227586,0.386206897" id="Fill-20" fill="#5A1913"></path>
                <path d="M55.4441379,0.725517241 C55.4717241,0.513103448 55.6668966,0.363448276 55.8793103,0.391724138 L56.3924138,0.459310345 C56.6048276,0.487586207 56.7537931,0.68137931 56.7262069,0.894482759 L56.4227586,3.20275862 C56.3944828,3.41448276 56.2,3.56413793 55.9875862,3.53586207 L55.4744828,3.46827586 C55.2613793,3.44137931 55.1124138,3.2462069 55.14,3.03310345 L55.4441379,0.725517241" id="Fill-21" fill="#5A1913"></path>
                <path d="M61.5724138,1.84689655 C61.6268966,1.64068966 61.8393103,1.51655172 62.0468966,1.57103448 L62.5462069,1.70275862 C62.7544828,1.75793103 62.8772414,1.96896552 62.8234483,2.17655172 L62.2303448,4.42758621 C62.1751724,4.63517241 61.9648276,4.75862069 61.7565517,4.70344828 L61.2558621,4.57241379 C61.0496552,4.51862069 60.9255172,4.3062069 60.98,4.09862069 L61.5724138,1.84689655" id="Fill-22" fill="#5A1913"></path>
                <path d="M67.5110345,3.7337931 C67.5903448,3.53517241 67.8165517,3.43862069 68.0158621,3.52 L68.4944828,3.71310345 C68.6937931,3.79310345 68.7889655,4.01931034 68.7096552,4.21862069 L67.8372414,6.37655172 C67.7572414,6.57517241 67.5324138,6.67172414 67.3331034,6.59103448 L66.8524138,6.39655172 C66.6537931,6.31724138 66.5586207,6.09103448 66.6386207,5.89172414 L67.5110345,3.7337931" id="Fill-23" fill="#5A1913"></path>
                <path d="M73.1634483,6.3537931 C73.2668966,6.16758621 73.5041379,6.10068966 73.6917241,6.20551724 L74.142069,6.45793103 C74.3289655,6.56275862 74.3951724,6.79931034 74.2917241,6.98689655 L73.1537931,9.01724138 C73.0489655,9.20413793 72.8137931,9.27103448 72.6268966,9.1662069 L72.1737931,8.91310345 C71.9875862,8.80896552 71.9206897,8.57310345 72.0255172,8.38482759 L73.1634483,6.3537931" id="Fill-24" fill="#5A1913"></path>
                <path d="M78.44,9.66758621 C78.5662069,9.49517241 78.8096552,9.45862069 78.982069,9.5862069 L79.397931,9.8937931 C79.5703448,10.0213793 79.6055172,10.2641379 79.4793103,10.4365517 L78.0944828,12.3082759 C77.9668966,12.48 77.7248276,12.5158621 77.5524138,12.3889655 L77.1358621,12.0813793 C76.9641379,11.9544828 76.9275862,11.7110345 77.0544828,11.537931 L78.44,9.66758621" id="Fill-25" fill="#5A1913"></path>
                <path d="M81.6668966,26.3965517 C80.6441379,24.9889655 79.5448276,23.6689655 78.3806897,22.437931 C78.9034483,23.0703448 79.4117241,23.7213793 79.9006897,24.3937931 C92.6641379,41.962069 88.7703448,66.5503448 71.2027586,79.3131034 C53.6358621,92.0772414 29.0475862,88.182069 16.2834483,70.6151724 C15.7944828,69.942069 15.3337931,69.257931 14.8937931,68.5655172 C15.7048276,70.0531034 16.6206897,71.5062069 17.6427586,72.9137931 C30.4882759,90.5924138 55.2337931,94.5124138 72.9137931,81.6675862 C90.5931034,68.8227586 94.5124138,44.0772414 81.6668966,26.3965517" id="Fill-26" fill="#5A1913"></path>
                <path d="M84.4972414,14.5393103 C84.5724138,14.4634483 84.6965517,14.4634483 84.7717241,14.5386207 C86.5813793,16.3524138 88.2731034,18.3303448 89.8268966,20.4689655 C105.946207,42.6551724 101.027586,73.7082759 78.8413793,89.8268966 C56.6551724,105.946207 25.6027586,101.027586 9.48344828,78.8413793 C7.93034483,76.7041379 6.57241379,74.4841379 5.40689655,72.2034483 C5.35793103,72.1082759 5.39586207,71.9896552 5.49172414,71.9413793 C5.58758621,71.8937931 5.7,71.9337931 5.7537931,72.0268966 C6.60275862,73.4937931 7.53655172,74.9317241 8.55448276,76.3337931 C24.44,98.1972414 55.0406897,103.044138 76.9034483,87.1593103 C98.7675862,71.2744828 103.613103,40.6737931 87.7289655,18.8103448 C86.7096552,17.4082759 85.6303448,16.0758621 84.4972414,14.8144828 C84.4262069,14.7358621 84.422069,14.6158621 84.4972414,14.5393103" id="Fill-27" fill="#5A1913"></path>
                <path d="M20.1737931,10.1772414 C20.0468966,10.0041379 20.0862069,9.76137931 20.2593103,9.63517241 L20.6772414,9.33103448 C20.8510345,9.20551724 21.0937931,9.24344828 21.2193103,9.41655172 L22.5875862,11.3 C22.7137931,11.4737931 22.6751724,11.7158621 22.5013793,11.842069 L22.0841379,12.1455172 C21.9103448,12.2724138 21.6675862,12.2331034 21.5413793,12.06 L20.1737931,10.1772414" id="Fill-28" fill="#5A1913"></path>
                <path d="M15.4268966,14.2131034 C15.28,14.0572414 15.2875862,13.8117241 15.4441379,13.6655172 L15.8206897,13.3110345 C15.9765517,13.1641379 16.2213793,13.1717241 16.3682759,13.3268966 L17.9634483,15.0227586 C18.1103448,15.1793103 18.1034483,15.4241379 17.9468966,15.5710345 L17.5703448,15.9255172 C17.4137931,16.0724138 17.1682759,16.0648276 17.022069,15.9089655 L15.4268966,14.2131034" id="Fill-29" fill="#5A1913"></path>
                <path d="M11.2282759,18.8165517 C11.062069,18.68 11.0386207,18.4351724 11.1758621,18.2703448 L11.5048276,17.8717241 C11.6406897,17.7055172 11.8848276,17.6827586 12.0503448,17.8186207 L13.8468966,19.2993103 C14.0117241,19.4358621 14.0358621,19.6793103 13.8993103,19.8448276 L13.5703448,20.2441379 C13.4337931,20.4096552 13.1896552,20.4337931 13.0241379,20.2972414 L11.2282759,18.8165517" id="Fill-30" fill="#5A1913"></path>
                <path d="M7.64344828,23.9131034 C7.46137931,23.797931 7.40758621,23.5586207 7.52275862,23.377931 L7.79862069,22.9406897 C7.91310345,22.7586207 8.15172414,22.7048276 8.3337931,22.8193103 L10.3013793,24.0613793 C10.4834483,24.1758621 10.5372414,24.4137931 10.4227586,24.5958621 L10.1468966,25.0337931 C10.0324138,25.2144828 9.79310345,25.2696552 9.61172414,25.1551724 L7.64344828,23.9131034" id="Fill-31" fill="#5A1913"></path>
                <path d="M4.73034483,29.42 C4.53586207,29.3289655 4.45172414,29.0986207 4.54344828,28.9048276 L4.76137931,28.4358621 C4.85172414,28.2413793 5.08275862,28.157931 5.27724138,28.2482759 L7.38689655,29.2324138 C7.58068966,29.3227586 7.66482759,29.5531034 7.5737931,29.7475862 L7.35586207,30.2172414 C7.26551724,30.4110345 7.03448276,30.4944828 6.84,30.4041379 L4.73034483,29.42" id="Fill-32" fill="#5A1913"></path>
                <path d="M2.53655172,35.2510345 C2.33172414,35.1862069 2.22,34.9675862 2.28551724,34.7641379 L2.44275862,34.2710345 C2.50827586,34.0668966 2.7262069,33.9544828 2.93034483,34.0193103 L5.14758621,34.7296552 C5.35172414,34.7951724 5.46344828,35.0131034 5.39862069,35.2172414 L5.24137931,35.7096552 C5.17517241,35.9137931 4.95655172,36.0262069 4.7537931,35.9613793 L2.53655172,35.2510345" id="Fill-33" fill="#5A1913"></path>
                <path d="M1.09517241,41.3124138 C0.883448276,41.2744828 0.744827586,41.0717241 0.785517241,40.8613793 L0.87862069,40.3524138 C0.917241379,40.1413793 1.12,40.0027586 1.33103448,40.0413793 L3.61931034,40.4662069 C3.83034483,40.5048276 3.96965517,40.7068966 3.93034483,40.9186207 L3.83586207,41.4262069 C3.79724138,41.6372414 3.59517241,41.7765517 3.38344828,41.7372414 L1.09517241,41.3124138" id="Fill-34" fill="#5A1913"></path>
                <path d="M0.430344828,47.5075862 C0.215862069,47.4958621 0.0531034483,47.3124138 0.0662068966,47.0993103 L0.0951724138,46.582069 C0.106206897,46.3675862 0.289655172,46.2048276 0.503448276,46.2165517 L2.82827586,46.3489655 C3.04137931,46.3613793 3.20482759,46.5441379 3.19310345,46.7586207 L3.16413793,47.2751724 C3.15172414,47.4882759 2.96896552,47.6524138 2.75448276,47.6393103 L0.430344828,47.5075862" id="Fill-35" fill="#5A1913"></path>
                <path d="M0.553103448,53.7365517 C0.339310345,53.7524138 0.154482759,53.5910345 0.14,53.377931 L0.103448276,52.8606897 C0.0875862069,52.6468966 0.248965517,52.462069 0.462758621,52.4468966 L2.78551724,52.2855172 C2.99862069,52.2696552 3.18413793,52.4310345 3.19931034,52.6455172 L3.23517241,53.1613793 C3.25034483,53.3744828 3.08896552,53.56 2.87517241,53.5744828 L0.553103448,53.7365517" id="Fill-36" fill="#5A1913"></path>
                <path d="M1.46,59.9 C1.24965517,59.9434483 1.04689655,59.8075862 1.0062069,59.5972414 L0.904137931,59.0889655 C0.862068966,58.8786207 0.997931034,58.6744828 1.20827586,58.6331034 L3.49103448,58.1786207 C3.70137931,58.1372414 3.9062069,58.2737931 3.94827586,58.4848276 L4.04896552,58.9910345 C4.09103448,59.2013793 3.95448276,59.4055172 3.74344828,59.4462069 L1.46,59.9" id="Fill-37" fill="#5A1913"></path>
                <path d="M3.13862069,65.9006897 C2.93586207,65.9696552 2.71655172,65.86 2.64965517,65.6572414 L2.48413793,65.1655172 C2.41586207,64.962069 2.52551724,64.7427586 2.72896552,64.6751724 L4.93655172,63.9372414 C5.14,63.8682759 5.35931034,63.9786207 5.42758621,64.182069 L5.59172414,64.6717241 C5.65931034,64.8744828 5.55034483,65.0951724 5.3462069,65.162069 L3.13862069,65.9006897" id="Fill-38" fill="#5A1913"></path>
                <path d="M25.3910345,6.77241379 C25.2875862,6.58413793 25.3572414,6.34827586 25.5448276,6.2462069 L25.997931,5.99655172 C26.1862069,5.8937931 26.422069,5.96275862 26.5248276,6.15034483 L27.6441379,8.19103448 C27.7468966,8.37862069 27.6793103,8.6137931 27.4903448,8.71793103 L27.0372414,8.96689655 C26.8496552,9.06965517 26.6137931,9.00068966 26.5103448,8.81310345 L25.3910345,6.77241379" id="Fill-39" fill="#5A1913"></path>
                <path d="M30.9965517,4.05310345 C30.917931,3.8537931 31.0165517,3.62896552 31.2158621,3.55034483 L31.6965517,3.36068966 C31.8965517,3.28206897 32.1213793,3.37931034 32.1993103,3.57931034 L33.0531034,5.74482759 C33.1317241,5.94413793 33.0337931,6.16896552 32.8337931,6.24827586 L32.3531034,6.43793103 C32.1537931,6.51655172 31.9289655,6.41862069 31.8503448,6.21931034 L30.9965517,4.05310345" id="Fill-40" fill="#5A1913"></path>
                <path d="M36.9006897,2.06275862 C36.8482759,1.85517241 36.9731034,1.64482759 37.1813793,1.59172414 L37.6827586,1.46413793 C37.8903448,1.41172414 38.1006897,1.53655172 38.1537931,1.74482759 L38.7268966,4.00137931 C38.7793103,4.20896552 38.6544828,4.41931034 38.4468966,4.47172414 L37.9455172,4.6 C37.737931,4.65241379 37.5268966,4.52758621 37.4737931,4.32 L36.9006897,2.06275862" id="Fill-41" fill="#5A1913"></path>
                <path d="M43.0089655,0.833793103 C42.982069,0.62137931 43.1337931,0.428275862 43.3462069,0.40137931 L43.86,0.33862069 C44.0731034,0.312413793 44.2655172,0.464137931 44.2924138,0.676551724 L44.5758621,2.98758621 C44.602069,3.2 44.4510345,3.39310345 44.2386207,3.41931034 L43.7241379,3.48206897 C43.5124138,3.50896552 43.3193103,3.35793103 43.2917241,3.14482759 L43.0089655,0.833793103" id="Fill-42" fill="#5A1913"></path>
                <path d="M49.2227586,0.386206897 C49.2234483,0.171724138 49.3986207,-0.00137931034 49.6131034,1.69406589e-21 L50.1303448,0.00206896552 C50.3448276,0.00275862069 50.5165517,0.177931034 50.5158621,0.391724138 L50.5055172,2.71931034 C50.5048276,2.9337931 50.3310345,3.1062069 50.1165517,3.10551724 L49.5986207,3.10344828 C49.3841379,3.10275862 49.2117241,2.92827586 49.2124138,2.71448276 L49.2227586,0.386206897" id="Fill-43" fill="#5A1913"></path>
                <path d="M55.4441379,0.725517241 C55.4717241,0.513103448 55.6668966,0.363448276 55.8793103,0.391724138 L56.3924138,0.459310345 C56.6048276,0.487586207 56.7537931,0.68137931 56.7262069,0.894482759 L56.4227586,3.20275862 C56.3944828,3.41448276 56.2,3.56413793 55.9875862,3.53586207 L55.4744828,3.46827586 C55.2613793,3.44137931 55.1124138,3.2462069 55.14,3.03310345 L55.4441379,0.725517241" id="Fill-44" fill="#5A1913"></path>
                <path d="M61.5724138,1.84689655 C61.6268966,1.64068966 61.8393103,1.51655172 62.0468966,1.57103448 L62.5462069,1.70275862 C62.7544828,1.75793103 62.8772414,1.96896552 62.8234483,2.17655172 L62.2303448,4.42758621 C62.1751724,4.63517241 61.9648276,4.75862069 61.7565517,4.70344828 L61.2558621,4.57241379 C61.0496552,4.51862069 60.9255172,4.3062069 60.98,4.09862069 L61.5724138,1.84689655" id="Fill-45" fill="#5A1913"></path>
                <path d="M67.5110345,3.7337931 C67.5903448,3.53517241 67.8165517,3.43862069 68.0158621,3.52 L68.4944828,3.71310345 C68.6937931,3.79310345 68.7889655,4.01931034 68.7096552,4.21862069 L67.8372414,6.37655172 C67.7572414,6.57517241 67.5324138,6.67172414 67.3331034,6.59103448 L66.8524138,6.39655172 C66.6537931,6.31724138 66.5586207,6.09103448 66.6386207,5.89172414 L67.5110345,3.7337931" id="Fill-46" fill="#5A1913"></path>
                <path d="M73.1634483,6.3537931 C73.2668966,6.16758621 73.5041379,6.10068966 73.6917241,6.20551724 L74.142069,6.45793103 C74.3289655,6.56275862 74.3951724,6.79931034 74.2917241,6.98689655 L73.1537931,9.01724138 C73.0489655,9.20413793 72.8137931,9.27103448 72.6268966,9.1662069 L72.1737931,8.91310345 C71.9875862,8.80896552 71.9206897,8.57310345 72.0255172,8.38482759 L73.1634483,6.3537931" id="Fill-47" fill="#5A1913"></path>
                <path d="M78.44,9.66758621 C78.5662069,9.49517241 78.8096552,9.45862069 78.982069,9.5862069 L79.397931,9.8937931 C79.5703448,10.0213793 79.6055172,10.2641379 79.4793103,10.4365517 L78.0944828,12.3082759 C77.9668966,12.48 77.7248276,12.5158621 77.5524138,12.3889655 L77.1358621,12.0813793 C76.9641379,11.9544828 76.9275862,11.7110345 77.0544828,11.537931 L78.44,9.66758621" id="Fill-48" fill="#5A1913"></path>
            </g>
            <g id="CSC" fill-rule="nonzero">
                <use fill="black" fill-opacity="1" filter="url(#filter-2)" xlink:href="#path-1"></use>
                <use fill="#000000" xlink:href="#path-1"></use>
                <use fill="#FFFFFF" xlink:href="#path-1"></use>
            </g>
        </g>
    </g>
</svg>