<?xml version="1.0" encoding="UTF-8"?>
<svg width="100px" height="100px" viewBox="0 0 100 100" version="1.1" xmlns="http://www.w3.org/2000/svg" xmlns:xlink="http://www.w3.org/1999/xlink">
    <!-- Generator: Sketch 55 (78076) - https://sketchapp.com -->
    <title>courselogo-excelvba</title>
    <desc>Created with Sketch.</desc>
    <defs>
        <path d="M67.6675,89.59 L69.8125,89.59 L72.4675,97.915 L72.5575,97.915 L75.2875,89.59 L77.3125,89.59 L73.6825,100 L71.2375,100 L67.6675,89.59 Z M79.3775,89.59 L82.7225,89.59 C83.4525036,89.59 84.0599976,89.6474994 84.545,89.7625 C85.0300024,89.8775006 85.4149986,90.0499989 85.7,90.28 C85.9850014,90.5100011 86.1849994,90.7999983 86.3,91.15 C86.4150006,91.5000018 86.4725,91.9099977 86.4725,92.38 C86.4725,92.9200027 86.3600011,93.3724982 86.135,93.7375 C85.9099989,94.1025018 85.5175028,94.3699991 84.9575,94.54 L84.9575,94.6 C85.6075032,94.7500007 86.0749986,95.027498 86.36,95.4325 C86.6450014,95.837502 86.7875,96.3599968 86.7875,97 C86.7875,97.4700023 86.7300006,97.8924981 86.615,98.2675 C86.4999994,98.6425019 86.2975015,98.9574987 86.0075,99.2125 C85.7174986,99.4675013 85.3300024,99.6624993 84.845,99.7975 C84.3599976,99.9325007 83.7525036,100 83.0225,100 L79.3775,100 L79.3775,89.59 Z M82.1975,93.97 C82.607502,93.97 82.9599985,93.9500002 83.255,93.91 C83.5500015,93.8699998 83.7924991,93.7975005 83.9825,93.6925 C84.172501,93.5874995 84.3124995,93.4450009 84.4025,93.265 C84.4925005,93.0849991 84.5375,92.8500015 84.5375,92.56 C84.5375,92.2499985 84.4925005,92.0050009 84.4025,91.825 C84.3124995,91.6449991 84.1750009,91.5075005 83.99,91.4125 C83.8049991,91.3174995 83.5650015,91.2550001 83.27,91.225 C82.9749985,91.1949998 82.6175021,91.18 82.1975,91.18 L81.3425,91.18 L81.3425,93.97 L82.1975,93.97 Z M82.5125,98.395 C82.9625023,98.395 83.3349985,98.3750002 83.63,98.335 C83.9250015,98.2949998 84.1599991,98.2175006 84.335,98.1025 C84.5100009,97.9874994 84.6324996,97.8350009 84.7025,97.645 C84.7725003,97.454999 84.8075,97.2100015 84.8075,96.91 C84.8075,96.6399987 84.7725003,96.4100009 84.7025,96.22 C84.6324996,96.029999 84.5100009,95.8775006 84.335,95.7625 C84.1599991,95.6474994 83.9250015,95.5625003 83.63,95.5075 C83.3349985,95.4524997 82.9625023,95.425 82.5125,95.425 L81.3425,95.425 L81.3425,98.395 L82.5125,98.395 Z M95.7975,97.24 L91.4475,97.24 L90.4575,100 L88.4325,100 L92.3325,89.59 L94.9725,89.59 L98.8425,100 L96.7575,100 L95.7975,97.24 Z M95.2125,95.59 L93.7275,91.345 L93.5475,91.345 L92.0325,95.59 L95.2125,95.59 Z" id="path-1"></path>
        <polygon id="path-2" points="0 99.7433225 99.8690554 99.7433225 99.8690554 0 0 0"></polygon>
    </defs>
    <g id="courselogo-excelvba" stroke="none" stroke-width="1" fill="none" fill-rule="evenodd">
        <g id="Group-2">
            <g id="VBA" fill-rule="nonzero">
                <use fill="#000000" xlink:href="#path-1"></use>
                <use fill="#20734A" xlink:href="#path-1"></use>
            </g>
            <g id="Group-10">
                <path d="M96.0912052,83.869544 L59.2693811,83.869544 L59.2091205,77.130456 L68.0781759,77.130456 L68.0781759,69.2838762 L59.1397394,69.2838762 L59.0983713,64.6441368 L68.0781759,64.6441368 L68.0781759,56.797557 L59.0283388,56.797557 L58.9872964,52.1578176 L68.0781759,52.1578176 L68.0781759,44.3112378 L58.9576547,44.3112378 L58.9576547,39.6714984 L68.0781759,39.6714984 L68.0781759,31.8249186 L58.9576547,31.8249186 L58.9576547,27.1851792 L68.0781759,27.1851792 L68.0781759,19.3385993 L58.9576547,19.3385993 L58.9576547,12.2092834 L96.0912052,12.2092834 L96.0912052,83.869544 Z M95.5201954,8.51677524 L59.3915309,8.51677524 L59.3915309,0.00016286645 L0,9.16824104 L0,89.5154723 L59.3915309,99.7431596 L59.3915309,87.126873 L95.5201954,87.126873 C97.9221498,87.126873 99.8690554,85.3767101 99.8690554,83.2180782 L99.8690554,12.42557 C99.8690554,10.2666124 97.9221498,8.51677524 95.5201954,8.51677524 L95.5201954,8.51677524 Z" id="Fill-1" fill="#20734A"></path>
                <mask id="mask-3" fill="white">
                    <use xlink:href="#path-2"></use>
                </mask>
                <g id="Clip-4"></g>
                <polygon id="Fill-3" fill="#20734A" mask="url(#mask-3)" points="73.0726384 27.1850163 88.4905537 27.1850163 88.4905537 19.3384365 73.0726384 19.3384365"></polygon>
                <polygon id="Fill-5" fill="#20734A" mask="url(#mask-3)" points="73.0726384 39.6713355 88.4905537 39.6713355 88.4905537 31.8247557 73.0726384 31.8247557"></polygon>
                <polygon id="Fill-6" fill="#20734A" mask="url(#mask-3)" points="73.0726384 52.1576547 88.4905537 52.1576547 88.4905537 44.3110749 73.0726384 44.3110749"></polygon>
                <polygon id="Fill-7" fill="#20734A" mask="url(#mask-3)" points="73.0726384 64.6439739 88.4905537 64.6439739 88.4905537 56.7973941 73.0726384 56.7973941"></polygon>
                <polygon id="Fill-8" fill="#20734A" mask="url(#mask-3)" points="73.0726384 77.1302932 88.4905537 77.1302932 88.4905537 69.2837134 73.0726384 69.2837134"></polygon>
                <polygon id="Fill-9" fill="#FEFEFE" mask="url(#mask-3)" points="15.5057003 30.8701954 23.1594463 30.4327362 27.9705212 43.6627036 33.6561889 29.8861564 41.3099349 29.4486971 32.0161238 48.231759 41.3099349 67.0614007 33.2187296 66.5148208 27.7519544 52.1614007 22.2848534 65.9679153 14.8496743 65.3118893 23.4874593 48.6796417"></polygon>
            </g>
        </g>
    </g>
</svg>