<?xml version="1.0" encoding="UTF-8"?>
<svg width="100px" height="100px" viewBox="0 0 100 100" version="1.1" xmlns="http://www.w3.org/2000/svg" xmlns:xlink="http://www.w3.org/1999/xlink">
    <!-- Generator: Sketch 55 (78076) - https://sketchapp.com -->
    <title>courselogo-frm</title>
    <desc>Created with Sketch.</desc>
    <defs>
        <path d="M22.6410156,35.8339223 L9.29197749,35.8339223 L9.29197749,45.3222091 L21.3322863,45.3222091 L21.3322863,53.8289491 L9.29197749,53.8289491 L9.29197749,72.8055228 L-4.61852778e-14,72.8055228 L-4.61852778e-14,27 L22.6410156,27 L22.6410156,35.8339223 Z M46.6758278,72.8055228 L39.3469441,57.4279545 L36.0751211,57.4279545 L36.0751211,72.8055228 L26.7831436,72.8055228 L26.7831436,27 L40.0667452,27 C49.1624133,27 54.5282031,32.6275357 54.5282031,42.2466955 C54.5282031,48.4631593 52.237927,53.0437116 48.1808664,55.4648606 L56.8184793,72.8055228 L46.6758278,72.8055228 Z M36.0751211,35.8339223 L36.0751211,48.5940322 L39.9358723,48.5940322 C43.2076953,48.5940322 44.9744798,46.3691925 44.9744798,42.2466955 C44.9744798,38.0587619 43.2076953,35.8339223 39.9358723,35.8339223 L36.0751211,35.8339223 Z M90.642586,27 L100,27 L100,72.8055228 L90.9043319,72.8055228 L90.9043319,61.5504515 C91.1660777,55.9883523 91.3623871,50.4262531 91.624133,44.8641539 L91.2969507,44.733281 L87.1744536,56.7735898 L84.8841775,62.9900537 L75.7230729,62.9900537 L73.4327968,56.7735898 L69.3102997,44.733281 L68.9831174,44.8641539 C69.1794268,50.4262531 69.4411726,55.9883523 69.637482,61.5504515 L69.637482,72.8055228 L60.6072504,72.8055228 L60.6072504,27 L69.9646643,27 L77.162675,44.3406622 C78.0787855,46.6309384 79.6492606,50.6225625 80.1727523,52.3239105 L80.4344981,52.3239105 C80.9579898,50.6225625 82.5284649,46.6309384 83.4445753,44.3406622 L90.642586,27 Z" id="path-1"></path>
    </defs>
    <g id="courselogo-frm" stroke="none" stroke-width="1" fill="none" fill-rule="evenodd">
        <g id="FRM" fill-rule="nonzero">
            <use fill="#000000" xlink:href="#path-1"></use>
            <use fill="#00A4E3" xlink:href="#path-1"></use>
        </g>
    </g>
</svg>