<?xml version="1.0" encoding="UTF-8"?>
<svg width="100px" height="100px" viewBox="0 0 100 100" version="1.1" xmlns="http://www.w3.org/2000/svg" xmlns:xlink="http://www.w3.org/1999/xlink">
    <!-- Generator: Sketch 55 (78076) - https://sketchapp.com -->
    <title>courselogo-python</title>
    <desc>Created with Sketch.</desc>
    <defs>
        <path d="M48.4666667,0.535087719 C48.3692982,0.535087719 48.2719298,0.535087719 48.1745614,0.535964912 L48.1745614,0.535964912 C44.1535088,0.554385965 40.3140351,0.897368421 36.9359649,1.49561404 L36.9359649,1.49561404 C26.9833333,3.25350877 25.1754386,6.93421053 25.1754386,13.7219298 L25.1754386,13.7219298 L25.1754386,22.6850877 L48.695614,22.6850877 L48.695614,25.6736842 L25.1754386,25.6736842 L16.3491228,25.6736842 C9.51403509,25.6736842 3.52807018,29.7815789 1.65526316,37.5973684 L1.65526316,37.5973684 C0.576315789,42.0763158 0.0122807018,45.7140351 0,49.4008772 L0,49.4008772 L0,49.6359649 C0.0114035088,53.2464912 0.551754386,56.9236842 1.65526316,61.5008772 L1.65526316,61.5008772 C3.32807018,68.4640351 7.32105263,73.4254386 14.1561404,73.4254386 L14.1561404,73.4254386 L22.2429825,73.4254386 L22.2429825,62.6798246 C22.2429825,54.9166667 28.9596491,48.0692982 36.9359649,48.0692982 L36.9359649,48.0692982 L60.4280702,48.0692982 C66.9666667,48.0692982 72.1877193,42.6850877 72.1877193,36.1175439 L72.1877193,36.1175439 L72.1877193,13.7219298 C72.1877193,7.34824561 66.8105263,2.55877193 60.4280702,1.49561404 L60.4280702,1.49561404 C56.5157895,0.843859649 52.4596491,0.536842105 48.5552632,0.535087719 L48.5552632,0.535087719 L48.4666667,0.535087719 Z M31.0421053,12.2412281 C31.0421053,9.7622807 33.0175439,7.74473684 35.4552632,7.74473684 L35.4552632,7.74473684 C37.8842105,7.74473684 39.8684211,9.7622807 39.8684211,12.2412281 L39.8684211,12.2412281 C39.8684211,14.7114035 37.8842105,16.7087719 35.4552632,16.7087719 L35.4552632,16.7087719 C33.0175439,16.7087719 31.0421053,14.7114035 31.0421053,12.2412281 L31.0421053,12.2412281 Z" id="path-1"></path>
        <linearGradient x1="-2.28909925%" y1="3.84731994%" x2="70.8004576%" y2="67.9640465%" id="linearGradient-3">
            <stop stop-color="#599ED4" offset="0%"></stop>
            <stop stop-color="#2F6997" offset="100%"></stop>
        </linearGradient>
        <path d="M50.5596491,0.235087719 L50.5596491,10.6789474 C50.5596491,18.7763158 43.6938596,25.5912281 35.8666667,25.5912281 L35.8666667,25.5912281 L12.3745614,25.5912281 C5.93947368,25.5912281 0.614035088,31.0982456 0.614035088,37.5429825 L0.614035088,37.5429825 L0.614035088,59.9385965 C0.614035088,66.3122807 6.15614035,70.0631579 12.3745614,71.8903509 L12.3745614,71.8903509 C16.2131579,73.0201754 19.9710526,73.6719298 23.9315789,73.6842105 L23.9315789,73.6842105 L24.1596491,73.6842105 C27.8114035,73.672807 31.6394737,73.1175439 35.8666667,71.8903509 L35.8666667,71.8903509 C41.7877193,70.1754386 47.6263158,66.7245614 47.6263158,59.9385965 L47.6263158,59.9385965 L47.6263158,50.9745614 L24.1342105,50.9745614 L24.1342105,47.9868421 L47.6263158,47.9868421 L59.3868421,47.9868421 C66.2219298,47.9868421 68.7684211,43.2192982 71.145614,36.0622807 L71.145614,36.0622807 C73.6017544,28.695614 73.4973684,21.6096491 71.145614,12.1587719 L71.145614,12.1587719 C69.4570175,5.35438596 66.2307018,0.235087719 59.3868421,0.235087719 L59.3868421,0.235087719 L50.5596491,0.235087719 Z M32.9333333,61.4192982 C32.9333333,58.9482456 34.9175439,56.9508772 37.3464912,56.9508772 L37.3464912,56.9508772 C39.7850877,56.9508772 41.7596491,58.9482456 41.7596491,61.4192982 L41.7596491,61.4192982 C41.7596491,63.8982456 39.7850877,65.9149123 37.3464912,65.9149123 L37.3464912,65.9149123 C34.9175439,65.9149123 32.9333333,63.8982456 32.9333333,61.4192982 L32.9333333,61.4192982 Z" id="path-4"></path>
        <linearGradient x1="64.5558724%" y1="71.7257661%" x2="38.8002225%" y2="34.3628356%" id="linearGradient-6">
            <stop stop-color="#FFD43B" offset="0%"></stop>
            <stop stop-color="#FFE872" offset="100%"></stop>
        </linearGradient>
    </defs>
    <g id="courselogo-python" stroke="none" stroke-width="1" fill="none" fill-rule="evenodd">
        <g id="Group-7" transform="translate(1.000000, 0.000000)">
            <g id="Group-3" transform="translate(0.000000, 0.342105)">
                <mask id="mask-2" fill="white">
                    <use xlink:href="#path-1"></use>
                </mask>
                <g id="Clip-2"></g>
                <path d="M48.4666667,0.535087719 C48.3692982,0.535087719 48.2719298,0.535087719 48.1745614,0.535964912 L48.1745614,0.535964912 C44.1535088,0.554385965 40.3140351,0.897368421 36.9359649,1.49561404 L36.9359649,1.49561404 C26.9833333,3.25350877 25.1754386,6.93421053 25.1754386,13.7219298 L25.1754386,13.7219298 L25.1754386,22.6850877 L48.695614,22.6850877 L48.695614,25.6736842 L25.1754386,25.6736842 L16.3491228,25.6736842 C9.51403509,25.6736842 3.52807018,29.7815789 1.65526316,37.5973684 L1.65526316,37.5973684 C0.576315789,42.0763158 0.0122807018,45.7140351 0,49.4008772 L0,49.4008772 L0,49.6359649 C0.0114035088,53.2464912 0.551754386,56.9236842 1.65526316,61.5008772 L1.65526316,61.5008772 C3.32807018,68.4640351 7.32105263,73.4254386 14.1561404,73.4254386 L14.1561404,73.4254386 L22.2429825,73.4254386 L22.2429825,62.6798246 C22.2429825,54.9166667 28.9596491,48.0692982 36.9359649,48.0692982 L36.9359649,48.0692982 L60.4280702,48.0692982 C66.9666667,48.0692982 72.1877193,42.6850877 72.1877193,36.1175439 L72.1877193,36.1175439 L72.1877193,13.7219298 C72.1877193,7.34824561 66.8105263,2.55877193 60.4280702,1.49561404 L60.4280702,1.49561404 C56.5157895,0.843859649 52.4596491,0.536842105 48.5552632,0.535087719 L48.5552632,0.535087719 L48.4666667,0.535087719 Z M31.0421053,12.2412281 C31.0421053,9.7622807 33.0175439,7.74473684 35.4552632,7.74473684 L35.4552632,7.74473684 C37.8842105,7.74473684 39.8684211,9.7622807 39.8684211,12.2412281 L39.8684211,12.2412281 C39.8684211,14.7114035 37.8842105,16.7087719 35.4552632,16.7087719 L35.4552632,16.7087719 C33.0175439,16.7087719 31.0421053,14.7114035 31.0421053,12.2412281 L31.0421053,12.2412281 Z" id="Fill-1" fill="url(#linearGradient-3)" mask="url(#mask-2)"></path>
            </g>
            <g id="Group-6" transform="translate(24.561404, 25.780702)">
                <mask id="mask-5" fill="white">
                    <use xlink:href="#path-4"></use>
                </mask>
                <g id="Clip-5"></g>
                <path d="M50.5596491,0.235087719 L50.5596491,10.6789474 C50.5596491,18.7763158 43.6938596,25.5912281 35.8666667,25.5912281 L35.8666667,25.5912281 L12.3745614,25.5912281 C5.93947368,25.5912281 0.614035088,31.0982456 0.614035088,37.5429825 L0.614035088,37.5429825 L0.614035088,59.9385965 C0.614035088,66.3122807 6.15614035,70.0631579 12.3745614,71.8903509 L12.3745614,71.8903509 C16.2131579,73.0201754 19.9710526,73.6719298 23.9315789,73.6842105 L23.9315789,73.6842105 L24.1596491,73.6842105 C27.8114035,73.672807 31.6394737,73.1175439 35.8666667,71.8903509 L35.8666667,71.8903509 C41.7877193,70.1754386 47.6263158,66.7245614 47.6263158,59.9385965 L47.6263158,59.9385965 L47.6263158,50.9745614 L24.1342105,50.9745614 L24.1342105,47.9868421 L47.6263158,47.9868421 L59.3868421,47.9868421 C66.2219298,47.9868421 68.7684211,43.2192982 71.145614,36.0622807 L71.145614,36.0622807 C73.6017544,28.695614 73.4973684,21.6096491 71.145614,12.1587719 L71.145614,12.1587719 C69.4570175,5.35438596 66.2307018,0.235087719 59.3868421,0.235087719 L59.3868421,0.235087719 L50.5596491,0.235087719 Z M32.9333333,61.4192982 C32.9333333,58.9482456 34.9175439,56.9508772 37.3464912,56.9508772 L37.3464912,56.9508772 C39.7850877,56.9508772 41.7596491,58.9482456 41.7596491,61.4192982 L41.7596491,61.4192982 C41.7596491,63.8982456 39.7850877,65.9149123 37.3464912,65.9149123 L37.3464912,65.9149123 C34.9175439,65.9149123 32.9333333,63.8982456 32.9333333,61.4192982 L32.9333333,61.4192982 Z" id="Fill-4" fill="url(#linearGradient-6)" mask="url(#mask-5)"></path>
            </g>
        </g>
    </g>
</svg>