<?xml version="1.0" encoding="UTF-8"?>
<svg width="100px" height="100px" viewBox="0 0 100 100" version="1.1" xmlns="http://www.w3.org/2000/svg" xmlns:xlink="http://www.w3.org/1999/xlink">
    <!-- Generator: Sketch 55 (78076) - https://sketchapp.com -->
    <title>courselogo-r</title>
    <desc>Created with Sketch.</desc>
    <defs>
        <linearGradient x1="0%" y1="0.190124126%" x2="100%" y2="99.8098759%" id="linearGradient-1">
            <stop stop-color="#CBCED0" offset="0%"></stop>
            <stop stop-color="#84838B" offset="100%"></stop>
        </linearGradient>
        <linearGradient x1="-0.190849829%" y1="0%" x2="100.19085%" y2="100%" id="linearGradient-2">
            <stop stop-color="#276DC3" offset="0%"></stop>
            <stop stop-color="#165CAA" offset="100%"></stop>
        </linearGradient>
    </defs>
    <g id="courselogo-r" stroke="none" stroke-width="1" fill="none" fill-rule="evenodd">
        <g id="Rlogo" transform="translate(0.000000, 12.000000)">
            <path d="M50.0627424,66.7614883 C22.483241,66.7614883 0.125484765,51.8164381 0.125484765,33.3808133 C0.125484765,14.9450503 22.483241,0 50.0627424,0 C77.6423823,0 100,14.9450503 100,33.3808133 C100,51.8164381 77.6423823,66.7614883 50.0627424,66.7614883 Z M57.7065097,13.0507397 C36.7436288,13.0507397 19.7498615,23.2678241 19.7498615,35.8712172 C19.7498615,48.4746104 36.7436288,58.6916948 57.7065097,58.6916948 C78.6692521,58.6916948 94.1394737,51.7065368 94.1394737,35.8712172 C94.1394737,20.0408743 78.6692521,13.0507397 57.7065097,13.0507397 Z" id="Shape" fill="url(#linearGradient-1)"></path>
            <path d="M76.1772853,51.7019749 C76.1772853,51.7019749 79.199723,52.612289 80.9556787,53.4991023 C81.5649584,53.8068259 82.6191136,54.4208905 83.3795014,55.2271095 C84.1243767,56.0167397 84.4875346,56.8168761 84.4875346,56.8168761 L96.398892,76.8617594 L77.1468144,76.8703303 L68.1440443,59.9964093 C68.1440443,59.9964093 66.300554,56.8349856 65.166205,55.9183124 C64.2199446,55.1537038 63.816482,54.8815081 62.8808864,54.8815081 C62.2296399,54.8815081 58.3066482,54.8815081 58.3066482,54.8815081 L58.3102493,76.8581652 L41.2742382,76.8653537 L41.2742382,20.7275153 L75.4847645,20.7275153 C75.4847645,20.7275153 91.066482,21.0080054 91.066482,35.8043088 C91.066482,50.6006122 76.1772853,51.7019749 76.1772853,51.7019749 Z M68.767313,32.9045745 L58.4538781,32.897939 L58.4487535,42.4434506 L68.767313,42.4401329 C68.767313,42.4401329 73.5457064,42.4253411 73.5457064,37.5844327 C73.5457064,32.6462029 68.767313,32.9045745 68.767313,32.9045745 Z" id="Shape" fill="url(#linearGradient-2)"></path>
        </g>
    </g>
</svg>