<?xml version="1.0" encoding="UTF-8"?>
<svg width="100px" height="100px" viewBox="0 0 100 100" version="1.1" xmlns="http://www.w3.org/2000/svg" xmlns:xlink="http://www.w3.org/1999/xlink">
    <!-- Generator: Sketch 55 (78076) - https://sketchapp.com -->
    <title>courselogo-sas</title>
    <desc>Created with Sketch.</desc>
    <g id="courselogo-sas" stroke="none" stroke-width="1" fill="none" fill-rule="evenodd">
        <g id="Group" transform="translate(17.000000, 0.000000)" fill="#4975AD">
            <path d="M42.858551,30.4452638 L41.1954447,28.4327205 C38.887658,25.6727422 35.1288362,25.6848989 32.3561861,27.9804909 C29.5659977,30.290671 28.7467415,34.1163875 31.0468679,36.9150647 C31.0498917,36.9179013 31.3224395,37.2514004 31.8052443,37.837759" id="Fill-4"></path>
            <g id="Group-8" transform="translate(-0.000000, 0.000000)">
                <path d="M31.7518233,37.7753545 C37.0378806,44.1614768 44.1456944,52.7566758 44.1456944,52.7566758 C53.0083373,63.5641933 49.0436936,76.8871367 37.0257853,84.4696818 C26.4379468,91.1508068 6.99694006,88.772144 0.302382958,77.8037526 C5.49228246,93.1990098 22.909944,103.261929 42.1608527,98.4239636 C58.8574317,94.2323301 77.5148634,72.6563991 57.112682,47.7756666 L41.9522084,29.376689" id="Fill-5"></path>
                <path d="M33.3943676,60.8964034 C28.2478096,54.6739915 21.9618727,47.0821263 21.9618727,47.0821263 C13.102052,36.2746087 17.0701228,22.9488288 29.084604,15.3626367 C39.6714346,8.68211947 59.1136509,11.0607823 65.8080064,22.0346442 C60.6152846,6.63351127 43.2024612,-3.42332946 23.9495366,1.41159661 C7.2517481,5.60363534 -11.4068931,27.1704488 8.99811048,52.0598937 L23.4548381,69.6076989" id="Fill-7"></path>
            </g>
            <path d="M21.1577356,66.916406 L24.604095,71.0991246 C26.9116801,73.8591029 30.6676796,73.8412731 33.4433536,71.5428445 C36.2309213,69.235501 37.0527982,65.4128236 34.7528734,62.6052315 C34.7466241,62.602395 33.3943676,60.9650888 31.4351276,58.5979748" id="Fill-9"></path>
        </g>
    </g>
</svg>