<?xml version="1.0" encoding="UTF-8"?>
<svg width="100px" height="100px" viewBox="0 0 100 100" version="1.1" xmlns="http://www.w3.org/2000/svg" xmlns:xlink="http://www.w3.org/1999/xlink">
    <!-- Generator: Sketch 55 (78076) - https://sketchapp.com -->
    <title>courselogo-socialmedia</title>
    <desc>Created with Sketch.</desc>
    <g id="courselogo-socialmedia" stroke="none" stroke-width="1" fill="none" fill-rule="evenodd">
        <g id="network">
            <polygon id="Fill-1" fill="#979797" points="50.7446559 86.8451961 54.4984731 86.8451961 54.4984731 53.0138595 50.7446559 53.0138595"></polygon>
            <polygon id="Fill-2" fill="#979797" points="85.1162791 10.3453136 87.7777778 12.997416 59.5889124 41.1862814 56.9274137 38.534179"></polygon>
            <polygon id="Fill-3" fill="#979797" points="47.5311252 47.9304675 50.1926239 50.5919662 12.60747 88.1677237 9.94597134 85.5156213"></polygon>
            <polygon id="Fill-4" fill="#979797" points="25.7575758 15.9807376 46.4317595 36.6549213 43.7702607 39.3140709 23.1054733 18.6422363"></polygon>
            <polygon id="Fill-5" fill="#979797" points="57.7073056 47.9304675 85.896171 76.1193329 83.2370214 78.7714353 55.048156 50.5825699"></polygon>
            <path d="M99.5959596,9.79563073 C99.5959596,14.9894292 95.3934696,19.1919192 90.1996711,19.1919192 C85.015269,19.1919192 80.8033827,14.9894292 80.8033827,9.79563073 C80.8033827,4.60183228 85.015269,0.39934226 90.1996711,0.39934226 C95.3934696,0.39934226 99.5959596,4.60183228 99.5959596,9.79563073 Z" id="Fill-6" fill="#2AD752"></path>
            <path d="M62.0108057,90.5990134 C62.0108057,95.7928118 57.8083157,99.9953019 52.6145173,99.9953019 C47.4301151,99.9953019 43.2182288,95.7928118 43.2182288,90.5990134 C43.2182288,85.4146112 47.4301151,81.2027249 52.6145173,81.2027249 C57.8083157,81.2027249 62.0108057,85.4146112 62.0108057,90.5990134 Z" id="Fill-7" fill="#B272E9"></path>
            <path d="M18.7925769,86.8475452 C18.7925769,92.0319474 14.5900869,96.2438337 9.39628847,96.2438337 C4.20249002,96.2438337 0,92.0319474 0,86.8475452 C0,81.6537468 4.20249002,77.4512568 9.39628847,77.4512568 C14.5900869,77.4512568 18.7925769,81.6537468 18.7925769,86.8475452 Z" id="Fill-8" fill="#57D8CB"></path>
            <path d="M28.1888654,15.4287057 C28.1888654,18.5506225 25.6659619,21.073526 22.5557905,21.073526 C19.4338736,21.073526 16.9109702,18.5506225 16.9109702,15.4287057 C16.9109702,12.3185342 19.4338736,9.79563073 22.5557905,9.79563073 C25.6659619,9.79563073 28.1888654,12.3185342 28.1888654,15.4287057 Z" id="Fill-9" fill="#FF7563"></path>
            <path d="M88.3298097,75.56965 C88.3298097,78.6798215 85.8045572,81.2027249 82.6849894,81.2027249 C79.5748179,81.2027249 77.0519145,78.6798215 77.0519145,75.56965 C77.0519145,72.4594785 79.5748179,69.9365751 82.6849894,69.9365751 C85.8045572,69.9365751 88.3298097,72.4594785 88.3298097,75.56965 Z" id="Fill-10" fill="#FFDD6C"></path>
            <path d="M65.7740193,45.4991778 C65.7740193,52.767207 59.8825464,58.6586798 52.6145173,58.6586798 C45.3582335,58.6586798 39.4667606,52.767207 39.4667606,45.4991778 C39.4667606,38.2311487 45.3582335,32.3514212 52.6145173,32.3514212 C59.8825464,32.3514212 65.7740193,38.2311487 65.7740193,45.4991778 Z" id="Fill-11" fill="#296DEA"></path>
        </g>
    </g>
</svg>