<?xml version="1.0" encoding="UTF-8"?>
<svg width="100px" height="100px" viewBox="0 0 100 100" version="1.1" xmlns="http://www.w3.org/2000/svg" xmlns:xlink="http://www.w3.org/1999/xlink">
    <!-- Generator: Sketch 55 (78076) - https://sketchapp.com -->
    <title>courselogo-sql</title>
    <desc>Created with Sketch.</desc>
    <defs>
        <linearGradient x1="80.3280215%" y1="9.01070817%" x2="21.1353005%" y2="89.9726663%" id="linearGradient-1">
            <stop stop-color="#39BABD" offset="0%"></stop>
            <stop stop-color="#3882E4" offset="100%"></stop>
        </linearGradient>
    </defs>
    <g id="courselogo-sql" stroke="none" stroke-width="1" fill="none" fill-rule="evenodd">
        <path d="M86.2537543,81.375042 C86.2537543,88.1015209 71.2990932,95.6148347 49.8194598,95.6148347 C28.3446241,95.6148347 13.3851653,88.1015209 13.3851653,81.375042 L13.3851653,70.3161733 C20.0828576,76.4621216 33.8572662,80.3627117 49.8194598,80.3627117 C65.76726,80.3627117 79.5608598,76.4429305 86.2537543,70.3161733 L86.2537543,81.375042 Z M49.8194598,4.38516528 C71.7836684,4.38516528 85.2798062,10.3440004 85.2798062,14.6140191 C85.2798062,18.9080267 71.7836684,24.8860529 49.8194598,24.8860529 C27.8600489,24.8860529 14.3639111,18.9080267 14.3639111,14.6140191 C14.3639111,10.3440004 27.8600489,4.38516528 49.8194598,4.38516528 L49.8194598,4.38516528 Z M86.2537543,34.3328695 C86.2537543,41.0593485 71.2990932,48.5966512 49.8194598,48.5966512 C28.3446241,48.5966512 13.3851653,41.0593485 13.3851653,34.3328695 L13.3851653,24.5502087 C19.924531,30.0964353 35.1046874,32.965504 49.8194598,32.965504 C64.5342321,32.965504 79.7143885,30.0964353 86.2537543,24.5502087 L86.2537543,34.3328695 Z M86.2537543,58.0002879 C86.2537543,64.7507556 71.2990932,72.2640695 49.8194598,72.2640695 C28.3446241,72.2640695 13.3851653,64.7507556 13.3851653,58.0002879 L13.3851653,46.946217 C20.0828576,53.0729741 33.8572662,57.0071487 49.8194598,56.9927554 C65.76726,56.9927554 79.5608598,53.0729741 86.2537543,46.946217 L86.2537543,58.0002879 Z M90.6389195,22.5831214 C90.6389195,20.9902605 90.1879288,19.3590174 89.3099362,17.7661565 L89.0364631,17.2767836 C89.4106894,16.4275776 89.6649715,15.549585 89.6649715,14.6140191 C89.6649715,5.11442691 69.1257017,0 49.8194598,0 C30.5132179,0 9.99313918,5.11442691 9.99313918,14.6140191 C9.99313918,15.5399894 10.2426234,16.4131843 10.612052,17.2575925 L10.3289834,17.7661565 C9.45099074,19.3590174 9,20.9902605 9,22.5831214 L9,34.3328695 C9,36.4007101 9.7340594,38.3821907 11.0438517,40.2245358 L10.4681188,41.2272705 C9.50376625,42.8968958 9,44.5857122 9,46.2505397 L9,58.0002879 C9,60.0201507 9.69087943,61.9536535 10.9383006,63.7624142 L10.4681188,64.5828336 C9.50376625,66.2476611 9,67.9364775 9,69.6204961 L9,81.375042 C9,91.8102001 26.9340786,100 49.8194598,100 C72.724032,100 90.6389195,91.8102001 90.6389195,81.375042 L90.6389195,69.6204961 C90.6389195,67.9556686 90.1495466,66.22847 89.1755985,64.5828336 L88.7054167,63.7624142 C89.9528379,61.9536535 90.6389195,60.0201507 90.6389195,58.0002879 L90.6389195,46.2505397 C90.6389195,44.5857122 90.1495466,42.8777047 89.1755985,41.2080795 L88.6046634,40.2245358 C89.9144557,38.3773929 90.6389195,36.4007101 90.6389195,34.3328695 L90.6389195,22.5831214 Z" id="Fill-1" fill="url(#linearGradient-1)"></path>
    </g>
</svg>