<?xml version="1.0" encoding="UTF-8"?>
<svg width="100px" height="99px" viewBox="0 0 100 99" version="1.1" xmlns="http://www.w3.org/2000/svg" xmlns:xlink="http://www.w3.org/1999/xlink">
    <!-- Generator: Sketch 55 (78076) - https://sketchapp.com -->
    <title>courselogo-tableau</title>
    <desc>Created with Sketch.</desc>
    <g id="courselogo-tableau" stroke="none" stroke-width="1" fill="none" fill-rule="evenodd">
        <polygon id="Fill-1" fill="#E7762C" points="65.7114754 46.8983607 52.1262295 46.8983607 52.1262295 32.1295082 46.7852459 32.1295082 46.7852459 46.8983607 33.1983607 46.8983607 33.1983607 52.1459016 46.7852459 52.1459016 46.7852459 66.9114754 52.1262295 66.9114754 52.1262295 52.1459016 65.7114754 52.1459016"></polygon>
        <polygon id="Fill-2" fill="#C72036" points="38.397377 71.0091803 26.2236066 71.0091803 26.2236066 57.7878689 21.6170492 57.7878689 21.6170492 71.0091803 9.44655738 71.0091803 9.44655738 75.0403279 21.6170492 75.0403279 21.6170492 88.264918 26.2236066 88.264918 26.2236066 75.0403279 38.397377 75.0403279"></polygon>
        <polygon id="Fill-3" fill="#5A879A" points="89.465082 23.7122951 77.2945902 23.7122951 77.2945902 10.4270492 72.6831148 10.4270492 72.6831148 23.7122951 60.512623 23.7122951 60.512623 27.7401639 72.6831148 27.7401639 72.6831148 40.902459 77.2945902 40.902459 77.2945902 27.7401639 89.465082 27.7401639"></polygon>
        <polygon id="Fill-4" fill="#5B6591" points="47.5657377 76.4606557 47.5657377 85.6819672 39.31 85.6819672 39.31 89.242623 47.5657377 89.242623 47.5657377 98.4655738 51.5001639 98.4655738 51.5001639 89.242623 59.7591803 89.242623 59.7591803 85.6819672 51.5001639 85.6819672 51.5001639 76.4606557"></polygon>
        <polygon id="Fill-5" fill="#EA9128" points="38.397377 23.7098361 26.0809836 23.7098361 26.0809836 10.4262295 21.7629508 10.4262295 21.7629508 23.7098361 9.44655738 23.7098361 9.44655738 27.6213115 21.7629508 27.6213115 21.7629508 40.9016393 26.0809836 40.9016393 26.0809836 27.6213115 38.397377 27.6213115"></polygon>
        <polygon id="Fill-6" fill="#5B6591" points="86.6227869 38.5219672 86.6227869 47.7416393 78.3654098 47.7416393 78.3654098 51.3039344 86.6227869 51.3039344 86.6227869 60.5252459 90.5588525 60.5252459 90.5588525 51.3039344 98.8162295 51.3039344 98.8162295 47.7416393 90.5588525 47.7416393 90.5588525 38.5219672"></polygon>
        <polygon id="Fill-7" fill="#1F447E" points="89.465082 71.0091803 77.2945902 71.0091803 77.2945902 57.7878689 72.6831148 57.7878689 72.6831148 71.0091803 60.512623 71.0091803 60.512623 75.0403279 72.6831148 75.0403279 72.6831148 88.264918 77.2945902 88.264918 77.2945902 75.0403279 89.465082 75.0403279"></polygon>
        <polygon id="Fill-8" fill="#7098A5" points="48.0644262 0.999344262 48.0644262 10.0485246 39.8955738 10.0485246 39.8955738 12.7862295 48.0644262 12.7862295 48.0644262 21.8337705 51.0021311 21.8337705 51.0021311 12.7862295 59.172623 12.7862295 59.172623 10.0485246 51.0021311 10.0485246 51.0021311 0.999344262"></polygon>
        <polygon id="Fill-9" fill="#7098A5" points="8.20032787 39.2257377 8.20032787 48.0962295 0.000327868852 48.0962295 0.000327868852 50.9486885 8.20032787 50.8978689 8.20032787 59.8208197 11.0822951 59.8208197 11.0822951 50.8814754 19.2822951 50.8322951 19.2822951 48.0962295 11.0822951 48.0962295 11.0822951 39.2257377"></polygon>
    </g>
</svg>